<svg xmlns="http://www.w3.org/2000/svg" xml:space="preserve" id="Ebene_1" x="0" y="0" style="enable-background:new 0 0 129 129" version="1.1" viewBox="0 0 129 129"><style type="text/css">.st0{display:none}.st1,.st2,.st3{display:inline;fill:#0091d2}.st2,.st3{fill:#fac200}.st3{fill:#fff}.st4,.st6{stroke-miterlimit:10}.st4{display:inline;fill:none;stroke:#0091d2;stroke-width:2.2409}.st6{fill:#fac200;stroke:#fac200;stroke-width:.5}.st6,.st7{display:inline}.st8{fill:#fac200}.st9{display:none;fill:none;stroke:#fff;stroke-width:9.8041}.st10{fill:none;stroke:#fac200;stroke-width:3;stroke-linecap:round;stroke-linejoin:round}.st11,.st12,.st13{display:inline;stroke:#fac200}.st11{fill:none;stroke-width:3;stroke-linecap:round;stroke-linejoin:round}.st12,.st13{stroke-miterlimit:10}.st12{fill:#fac200;stroke-width:.15}.st13{fill:none}.st14{fill:#262626}</style><g id="Ebene_3" class="st0"><path d="M30.9 32.8c2-1.7 4-2.8 5.9-3.4-.6 0-1.1.1-1.7.1-2.4.1-4.7.2-6.9.4-.6.1-1.4 0-2 .1l-.8.1c-1.2.1-.7.1-1.7.3-.2 0-.4.1-.5.1 1.9-.2 8.2-.6 8.2-.6-1.5.5-3 1.3-4.4 2.2l-9.7 1.1-1.2.9-1 1h.2l9.1-1c-1.1 1-2.2 2-3.2 3.2l-8.8 1c-.1.1-.2.3-.3.4-.2.2-.3.5-.4.7-.5.7-1 1.4-1.5 2.3h.2l8.1-.8c-.9 1.3-1.7 2.7-2.5 4.2l-8 .8c-.6 1.2-1.1 2.5-1.6 3.9h.1l7.5-.6c-.7 1.6-1.3 3.2-1.8 4.9l-7.4.6c-.4 1.6-.8 3.2-1.2 4.9L11 59l-1.2 5.4-7 .5c-.2 1.1-.3 2.3-.4 3.4-.1.5-.1.9-.2 1.4 0 .2 0 .4-.1.6v.8l6.9-.3c-.1 1.5-.3 3.1-.3 4.7l-6.7.2h-.1v5.5H2c0 .8.1 1.5.1 2.3h6.7c.1 1.1.1 2.1.2 3.2H2.2c0 .2 0 .3.1.5.1.6.1 1.1.2 1.7.1.9.2 1.8.3 2.8h.1c.1.7.2 1.5.3 2.3l6.9.8.6 3-7-.8V96.7v.2c.1.3.1.5.2.8.3 1.4.6 2.7 1 3.9.3 1.1.6 2 1 3l7.1.9.6 1.8-7.2-.9c.1.2.1.3.2.5.3.8.6 1.5.9 2.2.2.4.3.8.5 1.1h.1c.5 1.1 1.1 2.1 1.6 3.1l7 1 .6 1.2-7-1.1c.2.3.3.5.5.7.5.8 1.1 1.6 1.6 2.4.1.1.2.3.3.4h.1c.6.8 1.3 1.5 2 2.2l6.6 1.1c.3.3.6.7.9 1l-6.7-1.2c.1.1.3.2.4.3.7.6 1.4 1.2 2.2 1.7.2.1.3.3.4.3.1.1.2.1.3.1 1.4.8 2.8 1.5 4.2 1.8.4.1.8.2 1.3.2 1.5.1 5 .5 8.1.9-6.3-3.4-11.9-13.8-15-28.7-5.6-24.8.5-53.9 13.4-64.8m27.6 71.1c4.2-6.2 6.1-22.8 4.2-37-1.9-14.3-6.8-20.8-10.9-14.6-4.2 6.2-6.1 22.8-4.2 37 1.8 14.2 6.7 20.8 10.9 14.6m2.4 6.6c-5.3 7.8-11.4-.5-13.7-18.4s0-38.7 5.3-46.5c5.2-7.8 11.4.5 13.7 18.4 2.3 17.9 0 38.7-5.3 46.5m-4.8-78.7c-1.1-.2-3.5.2-5.2 1.4l-9.3-1.1c1.1-.9 1.6-1.3 2.6-1.8l11.9 1.5zm-16.4 2.3 9.4 1c-.3.3-.6.5-.9.8-.7.7-1.3 1.5-2 2.4l-9-1c.8-1.2 1.6-2.2 2.5-3.2m4.6 7.6c-.7 1.3-1.4 2.7-2 4.2l-8.9-.8c.6-1.5 1.2-2.9 1.9-4.2l9 .8zm-3.4 8.1c-.5 1.6-1 3.2-1.4 4.9l-9-.7c.4-1.7.9-3.3 1.4-4.9l9 .7zM29.3 59l9.2.5c-.4 1.8-.7 3.6-.9 5.4l-9.1-.5c.2-1.8.5-3.6.8-5.4m-1.5 11.8 9.1.3c-.1 1.5-.2 3-.3 4.6l-9.1-.2c.1-1.6.2-3.1.3-4.7m-.2 12.6h9c0 1.1.1 2.1.1 3.2h-9c0-1 0-2.1-.1-3.2M28.7 95l8.8-.7c.1.9.2 1.8.4 2.7l-8.7.8v-.2c-.2-.9-.3-1.8-.5-2.6m2.3 10.8 8.4-.9c.1.6.3 1.1.4 1.7l-8.4.9c-.1-.6-.3-1.2-.4-1.7m2.9 8.8 8.1-1.1c.1.4.3.7.4 1.1l-8.1 1c-.2-.3-.3-.6-.4-1m3.8 7.1 7.6-1.1c.2.2.3.5.5.7l-7.6 1c-.2-.1-.4-.3-.5-.6m36.5-61.3c-1.7-10.1-4.6-17.7-8.2-22.6-3.6-4.8-6.4-6.1-6.6-6.2l-12.9-1.8s.4-.3 1.8-.5h-6.1c-2.3.6-4.6 1.7-6.6 3.4-12.9 10.9-19 40-13.7 65.1 3.2 15.2 9.1 25.7 15.6 28.9h.3c6.3.1 15.9-.1 21.5-1.7 2.2-.6 3.8-2 4.9-3 9.4-10.2 13.9-37.8 10-61.6" class="st1"/></g><g id="Ebene_5" class="st0"><path d="M101.1 23.2h-21V8.8H101l.1 14.4zm22-3.3 2-2S121 8.9 108.5 5v4.2s7.1 2.8 10.7 13.9c.2.8.5 1.6.7 2.5 1.2 4.5 2.5 10.1 2.4 14.1 0 .5 0 .9-.1 1.4-.7 6.8-2.5 7.7-4 7.7-1 0-1.8-.4-2.7-1.5-.8-1.2-1.6-3.3-1.6-6.8v-7.6c0-2.9-1.1-5.5-3.1-7.2-1.5-1.3-4-2-6.1-2.2V9.1c0-2.3-1.9-4.3-4.3-4.3H80.5c-2.4 0-4.3 1.9-4.3 4.3v43.6H74v4.8h33v-4.8h-2.2V28.1c1.1.2 2.6.6 3.1 1.1.9.8 1.4 1.8 1.4 3.7v7.6c0 4.1.8 7.2 2.5 9.5 1.6 2.3 4.1 3.5 6.4 3.4h.1c4.4 0 8-4.2 8.5-12 0-.6.1-1.1.1-1.7.1-6.6-2.2-15-3.8-19.8" class="st1"/></g><g id="Ebene_8" class="st0"><path d="M108.6 86.9c2-2.4 5.6-2.9 8-.9 2.4 2 2.7 5.6.8 8-2 2.4-15.6 10-15.6 10s4.8-14.7 6.8-17.1M107.8 105.5c2.9-1.3 6.3-.2 7.6 2.6 1.3 2.9.1 6.1-2.7 7.6-2.9 1.3-18.3 2.5-18.3 2.5s10.6-11.3 13.4-12.7M24.7 86.9c-2-2.4-5.6-2.9-8-.9s-2.7 5.6-.8 8c2 2.4 15.6 10 15.6 10s-4.8-14.7-6.8-17.1M25.6 105.5c-2.9-1.3-6.3-.2-7.6 2.6s-.1 6.1 2.7 7.6c2.9 1.3 18.3 2.5 18.3 2.5s-10.6-11.3-13.4-12.7" class="st2"/></g><g id="Ebene_4" class="st0"><path d="M64.5.4v69.9h62.4z" class="st3"/></g><g id="Ebene_6" class="st0"><path d="M128.2 24.2s-.5-8.1-12.4-6.7c0 0 2.9-6.6-3.7-8.9 0 .1 1.2-6.4-6.5-6.8-5.6-.5-9.2 1.5-10.5 4.1 0 0-16.1-1.6-12.7 8.9 0 0-14 .1-8.9 9.4h54.7z" class="st1"/></g><g id="Ebene_9" class="st0"><path d="M85.5 42.1c-1.6 2-4.6 2.3-6.5.7-2-1.6-2.2-4.5-.6-6.5s12.7-8.2 12.7-8.2-4 12-5.6 14M90.3 62.8c-1.6 2-4.6 2.3-6.5.7-2-1.6-2.2-4.5-.6-6.5s12.7-8.2 12.7-8.2-4 12-5.6 14M103 42.1c-1.6 2-4.6 2.3-6.5.7-2-1.6-2.2-4.5-.6-6.5s12.7-8.2 12.7-8.2-3.9 12-5.6 14M107.8 62.8c-1.6 2-4.6 2.3-6.5.7-2-1.6-2.2-4.5-.6-6.5s12.7-8.2 12.7-8.2-4 12-5.6 14M120.5 42.1c-1.6 2-4.6 2.3-6.5.7-2-1.6-2.2-4.5-.6-6.5s12.7-8.2 12.7-8.2-3.9 12-5.6 14" class="st4"/></g><g id="Ebene_3_1_" class="st0"><path d="M17.6 116.1c-.2.2-.3.6-.3.9 0 .4.2.7.5.9 2.7 1.9 5.5 2.3 7.8 1 .3.4.6.7.9 1.1l3.9 4.8c.4.5 1.2.6 1.7.2l.1-.1c.4-.4.5-1.1.1-1.6l-3.9-4.8c-.3-.3-.6-.7-.8-1 3.9-4.1 3.7-9.1-.5-15.6-.5-.7-1-1.6-1.6-2.5-.2-.3-.5-.5-.9-.6h-.4l.1-.5c.1-.3 0-.7-.1-.9-4.5-7.4-10.4-17.5-10.4-17.6-.2-.3-.5-.6-.9-.6s-.8.1-1 .4c-.3.1-6.6 7.5-2.9 22.4 0 .2.1.4.1.5.1.3.2.5.5.7l3.1 2.2-1.4 1.5c-.3.3-.4.9-.3 1.3 1.3 3.1 2.8 5.6 4.5 7.5.2.3.6.4.9.4h1.2zM21.9 98l-.9 3.6c-.1.5.1 1.1.5 1.3.5.3 1 .2 1.4-.1l1.3-1.1c.3.5.6.9.9 1.4 4.3 6.7 3.1 10 1 12.3-6.4-8.8-10.4-19-11.6-29.8 2.1 3.5 4.9 8.3 7.4 12.4zm-8.4 10 1.9-1.9c.2-.3.4-.6.3-1 0-.4-.2-.7-.5-.9l-3.9-2.7v-.1c-1.8-7.1-1-12.3-.1-15.3.2-.7.5-1.4.7-2 .5 6.4 2 12.6 4.4 18.5 2 5.1 4.7 9.8 7.9 14.2-1.3.6-2.6.3-3.7-.2l.9-.9c.3-.3.4-.9.3-1.3-.2-.4-.6-.7-1.1-.7H17c-1.3-1.6-2.5-3.5-3.5-5.7z" class="st6"/></g><g id="Ebene_4_1_" class="st0"><path d="M122.8 34.3c.3 0 .6.1.9.3.3.2.4.6.4.9-.3 3.3-1.9 5.6-4.5 6.6.1.4.2.9.3 1.3l1.2 6c.1.7-.3 1.3-1 1.4h-.1c-.6.1-1.2-.4-1.3-1l-1.2-6c-.1-.4-.2-.9-.3-1.3-5.9.4-9.7-2.9-12.1-10.3-.3-.8-.6-1.8-.9-2.8-.1-.3-.1-.7.1-1l.3-.3-.5-.2c-.3-.1-.5-.4-.7-.7-2.9-8.2-7-19-7-19.1-.1-.4-.1-.8.1-1.1.2-.3.6-.5 1-.5s10.6-.1 20 12.1c.1.2.2.3.3.5.2.2.3.5.2.8l-.3 3.7 2.1-.2c.5 0 1 .2 1.2.6 1.6 2.9 2.6 5.7 3 8.2.1.3-.1.7-.3.9l-.9 1.2zM105.4 26l3.5 1.6c.5.2.8.7.7 1.3s-.5.9-1.1 1l-1.7.2c.2.5.4 1.1.5 1.5 2.4 7.5 5.9 8.7 9.1 8.6-2.7-10.5-8.2-19.9-16-27.7 1.5 3.8 3.4 9 5 13.5zm13.6 0-2.8.2c-.4 0-.7-.1-1-.3-.3-.2-.4-.6-.4-.9l.4-4.7s0-.1-.1-.1c-4.5-5.8-9.1-8.5-12.2-9.8-.7-.3-1.4-.5-2-.7 4.7 4.4 8.7 9.5 11.9 15.1 2.7 4.8 4.7 9.8 6.1 15 1.3-.6 2-1.8 2.3-3l-1.3.1c-.5 0-1-.2-1.2-.6-.2-.4-.2-1 .2-1.3l2.4-2.7c-.4-2-1.1-4.1-2.3-6.3z" class="st6"/></g><g id="Ebene_6_1_" class="st0"><g id="Ebene_7_1_" class="st7"><path d="M95.2 116.1c-2.2-1.9-4.3-3.9-6.5-5.8h-4.6v-9.2h4.6l6.5-5.8 2.7-2.4v25.6l-2.7-2.4z" class="st8"/><path d="M98.8 118.6c-2.8-2.5-5.7-5.1-8.5-7.6h-6V98.9h6l8.5-7.6 3.5-3.1v33.6l-3.5-3.2z" class="st9"/></g><g id="Ebene_11"><g id="Layer_3" class="st7"><path d="M114.5 88.5c3.2 4.5 5.1 10.5 5.1 16.9s-1.9 12.3-5 16.9M109 93.1c2.4 3.2 3.9 7.5 3.9 12.2 0 4.7-1.4 9-3.8 12.1m-5.5-19.7c1.7 1.8 2.8 4.6 2.8 7.6 0 2.9-1 5.7-2.7 7.5" class="st10"/></g></g></g><g id="Ebene_7_2_" class="st0"><g class="st7"><g><path d="M110.6 108.7h-2c-.7 0-1.3-.6-1.3-1.3 0-.7.6-1.3 1.3-1.3h3.6c.5 0 .9-.4.9-.9s-.4-.9-.9-.9h-1.7V103c0-.5-.4-.9-.9-.9s-.9.4-.9.9v1.2h-.1c-1.7 0-3.1 1.4-3.1 3.1 0 1.7 1.4 3.1 3.1 3.1h2c.7 0 1.3.6 1.3 1.3 0 .7-.6 1.3-1.3 1.3h-3.7c-.5 0-.9.4-.9.9s.4.9.9.9h1.8v1.3c0 .5.4.9.9.9s.9-.4.9-.9V115h.1c1.7 0 3.1-1.4 3.1-3.1 0-1.8-1.4-3.2-3.1-3.2z" class="st8"/><path d="M123 106.7c-.9-2.2-2.2-4.2-3.9-6.2-2-2.4-3.9-4-4.9-4.7l3.8-7c.2-.3.1-.8-.2-1.1-1-1-2-1.4-3.2-1.4-1.1 0-2 .4-2.9.8-.7.3-1.3.5-1.8.5-.2 0-.3 0-.4-.1-1.8-.6-3.1-1-4.4-1-1.7 0-3.1.7-4.5 2.1-.3.3-.3.8-.1 1.1l4.1 6.2c-1 .7-2.9 2.3-4.9 4.6-1.6 2-2.9 4-3.9 6.2-1.2 2.7-1.8 5.5-1.8 8.4 0 3.8 3.1 6.9 6.9 6.9h16.9c3.8 0 6.9-3.1 6.9-6.9 0-2.9-.6-5.7-1.7-8.4zm-20.6-17.4c.9-.7 1.7-1.1 2.7-1.1 1.1 0 2.2.4 3.8.9.3.1.7.2 1 .2.9 0 1.7-.3 2.5-.7.8-.3 1.5-.6 2.2-.6.3 0 .8.1 1.4.5l-3.6 6.6h-6.2l-3.8-5.8zm15.4 30.9H101c-2.8 0-5.1-2.3-5.1-5.1 0-4.8 1.7-9.3 5.2-13.4 2.2-2.6 4.4-4.2 5-4.7h6.7c.7.5 2.9 2.1 5 4.7 3.4 4.1 5.2 8.7 5.2 13.4-.1 2.8-2.4 5.1-5.2 5.1z" class="st8"/></g></g></g><g id="Ebene_8_1_" class="st0"><g id="Ebene_11_1_" class="st7"><g id="Layer_3_1_"><path d="M118.1 81.6c3.2 4.5 5.1 10.5 5.1 16.9s-1.9 12.3-5 16.9m-5.7-29.1c2.4 3.2 3.9 7.5 3.9 12.2 0 4.7-1.4 9-3.8 12.1m-5.4-19.7c1.7 1.8 2.8 4.6 2.8 7.6 0 2.9-1 5.7-2.7 7.5" class="st10"/></g></g></g><g id="Ebene_10_1_" class="st0"><path d="M16.2 92.6c-1.3 12.7 7.1 23.9 18.7 25.1" class="st11"/></g><g id="Ebene_11_2_" class="st0"><path d="M9.9 88.9c-1.9 18.7 7.8 35 21.8 36.4" class="st11"/></g><g id="Ebene_13" class="st0"><path d="M109.7 46.6c4.6-11.9-.5-24.9-11.4-29.1" class="st11"/></g><g id="Ebene_14" class="st0"><path d="M117.4 51.4c5.8-17.9-.3-35.9-13.6-40.2" class="st11"/></g><g id="Ebene_16" class="st0"><g class="st7"><g><path d="M107.6 107.9c-1.7 0-3.1 1.4-3.1 3.1 0 1.7 1.4 3.1 3.1 3.1 1.7 0 3.1-1.4 3.1-3.1-.1-1.8-1.4-3.1-3.1-3.1zm0 5c-1.1 0-2-.9-2-2s.9-2 2-2 2 .9 2 2-.9 2-2 2z" class="st8"/></g></g><g class="st7"><g><path d="M107.6 94.1c-8.4 0-15.3 6.9-15.3 15.3s6.9 15.3 15.3 15.3 15.3-6.9 15.3-15.3-6.9-15.3-15.3-15.3zm0 29.5c-7.9 0-14.3-6.4-14.3-14.3S99.7 95 107.6 95s14.3 6.4 14.3 14.3-6.5 14.3-14.3 14.3z" class="st8"/></g></g><g class="st7"><g><path d="M107.6 97.2c-6.7 0-12.2 5.5-12.2 12.2 0 6.7 5.5 12.2 12.2 12.2s12.2-5.5 12.2-12.2c0-6.7-5.5-12.2-12.2-12.2zm0 1c4.8 0 8.8 3 10.4 7.2l-3.8 1.3c-1.3.4-2.7.4-4-.2-1.7-.7-3.6-.7-5.3 0l-.2.1c-1.1.5-2.4.6-3.7.3l-4.1-1.1c1.6-4.5 5.8-7.6 10.7-7.6zm-11.2 11.2v-.3l.4.1c5 1.7 8.6 6.1 9.2 11.3-5.5-.8-9.6-5.5-9.6-11.1zm11.2 11.2h-.6c-.6-5.7-4.4-10.5-9.9-12.3l-.6-.2c.1-.4.1-.9.2-1.3l4.1 1.1c.6.1 1.1.2 1.7.2.9 0 1.8-.2 2.7-.6l.2-.1c1.4-.6 3.1-.6 4.5 0 1.5.7 3.2.7 4.7.2l3.8-1.3c.2.6.3 1.1.3 1.7l-.6.2c-5.5 1.8-9.3 6.6-9.9 12.3-.2.1-.4.1-.6.1zm1.6-.1c.6-5.2 4.2-9.6 9.2-11.3l.4-.1v.3c0 5.6-4.2 10.3-9.6 11.1z" class="st8"/></g></g></g><g id="Ebene_17" class="st0"><path d="M102.5 107.6c2.5-4.1 1.7-11.4 7.8-11.4 6.4 0 6.1-10-.3-10-5.2 0-10.3 2.6-13.1 7-3.1 5-1.4 10.8-8.2 13.1-6.1 2.1-3.3 11.7 2.8 9.6 4.7-1.5 8.5-4.2 11-8.3z" class="st12"/></g><g id="Ebene_19" class="st0"><path d="M115.4 119.7c2.5-4.1 1.7-11.4 7.8-11.4 6.4 0 6.1-10-.3-10-5.2 0-10.3 2.6-13.1 7-3.1 5-1.4 10.8-8.2 13.1-6.1 2.1-3.3 11.7 2.8 9.6 4.6-1.5 8.4-4.2 11-8.3z" class="st12"/></g><g id="Ebene_18" class="st0"><path d="M114 8.1c-7.1 2.9-8.7 11.6-8.7 18.5 0 4.1.7 8.2-2.3 11.5-2.5 2.6-5.7 4.4-8 7.3-3.9 5 3.1 12.1 7.1 7.1 4-5 10.2-7.6 12.3-14.1 1.2-3.5.9-7.2.9-10.9 0-1.7 0-3.3.3-5 .1-.8 1.5-4.9 1.1-4.7 5.9-2.4 3.3-12.1-2.7-9.7zM84.2 4.7C68.1.4 53 9.5 47.5 24.8c-3 8.5-2.9 17.7-2.8 26.6.1 8.6 1.5 21.3-8 25.5-5.9 2.6-.8 11.2 5 8.6C58 78.3 54.4 56.7 54.8 42.6c.2-7.7 1.3-16.1 6.4-22.2 5-6 13-8 20.4-6 6.1 1.7 8.8-8 2.6-9.7z" class="st2"/></g><g id="Ebene_20" class="st0"><path d="M119.9 4.3c-1.7 8.4-2.2 18.7-6.3 26.3-2 3.7-4.7 6.8-6.2 10.6-1.6 3.9-2.1 8.1-2 12.3.1 4.4 1.1 8.6 1.4 12.9.3 4.6-1.8 8-3.9 12-4.5 8.4-9.4 16.6-14.6 24.6-3.5 5.4 5.1 10.4 8.6 5 5.4-8.3 10.4-16.7 15.1-25.4 2-3.7 4.1-7.4 4.7-11.5.6-4.2-.4-8.2-.8-12.3-.5-4.4-.9-9.1.6-13.3 1.5-4.1 4.7-7.4 6.6-11.3 4-8.2 4.8-18.4 6.5-27.3 1.2-6.2-8.4-8.9-9.7-2.6zM105.3.6c-4.7 3.5-9.9 6.7-11.9 12.6-2.2 6.2-.4 13.1-1.7 19.5-1.2 6.3 8.4 9 9.6 2.7 1-4.9.9-9.6 1-14.5.1-6.1 3.4-8.2 8-11.6 5.2-3.9.2-12.6-5-8.7z" class="st2"/></g><g id="Ebene_21" class="st0"><path d="M132.6 56.3c-5.9-.8-11.5.8-15.4 5.5-2 2.4-3.2 5.3-3.4 8.4-.3 3.8 1.2 7.2-1.9 10.2-4.7 4.5-10.8 6.2-14.8 11.7-2.8 3.8-4.9 10.8-9.5 12.7-5.9 2.3-3.3 12 2.7 9.6 10.5-4.2 12-16.2 21.3-21.8 5-3 10.3-6.4 12-12.4 1.2-4.3-1.9-15.5 6.4-14.3 6.3 1 9-8.7 2.6-9.6zM124.4-26.7c-5.8 18.1-5.8 37.2-8.9 55.8-.8 4.7-2.4 9.3-3.1 14-.2 0-.3.1-.5.2-1.7-.1-3.5 1.1-4.8 2.1-3.3 2.7-4 6.6-4.4 10.6-.4 4.8-1.4 7.9-5.3 11-5 4 2.1 11.1 7.1 7.1 3-2.4 5.2-5.4 6.6-9 .7-1.8 1.1-3.6 1.3-5.5.1-1.3-.3-5.7.7-6.5.7-.6 3.7 0 4.8-.7 1.5-.8 2.3-2.3 3-3.7 2-4.3 2.8-9.6 3.6-14.2C128.1 15 127.8-5 133.9-24c2.1-6.2-7.6-8.8-9.5-2.7zM30.9 110.4c-9.4-4.1-21.9-4.8-30.5 1.5-9 6.6-16.3 15.8-22.2 25.2-3.5 5.5 5.2 10.5 8.6 5 4.5-7.1 9.7-13.5 15.9-19.1 3.4-3.1 6.5-5.3 11.2-5.6 4-.2 8.2 0 12 1.6 5.8 2.5 10.9-6.1 5-8.6z" class="st2"/><path d="M42.6 117.6c-5.1 2.1-11.2 3.7-15.1 7.9-2.1 2.2-2.9 2.7-6 3.3-3.7.7-7.5 1.4-11.2 2.2-6.3 1.2-3.6 10.9 2.7 9.6 5.7-1.1 13.4-1.2 18.3-4.5 1.9-1.3 2.8-3.4 4.6-4.7 2.7-1.9 6.4-2.9 9.4-4.1 5.8-2.4 3.3-12.1-2.7-9.7z" class="st2"/><path d="m114.2 88.4-4.1-2.2" class="st13"/></g><g id="Ebene_22"><path d="M62.7 103c-4.2 0-7.7-3.5-7.7-7.7V42.4c0-4.2 3.5-7.7 7.7-7.7s7.7 3.5 7.7 7.7v52.9c-.1 4.2-3.5 7.7-7.7 7.7z" class="st8"/><path d="m64.6 44.2.9.5c4.3 2.2 9.7.6 11.9-3.7l5.3-10.1c2.2-4.3.6-9.7-3.7-11.9l-1-.6c-4.3-2.2-9.7-.6-11.9 3.7l-5.3 10.1c-2.2 4.4-.5 9.7 3.8 12z" class="st8"/><g id="Ebene_24"><path d="M71.5 117c4.7-1.3 7.4-6.2 6.1-10.9l-3.1-11c-1.3-4.7-6.2-7.4-10.9-6.1-4.7 1.3-7.4 6.2-6.1 10.9l3.1 11c1.4 4.6 6.3 7.4 10.9 6.1z" class="st8"/></g></g><g id="Ebene_10"><path d="M58.5 21.1c2.1-1.8 4.1-2.9 6.1-3.6-.5 0-1.1.1-1.8.1-2.5.1-4.8.2-7.2.4-.7.1-1.4 0-2.1.1l-.8.2c-1.2.1-.7.1-1.8.3-.2 0-.3.1-.5.1 2-.1 8.6-.5 8.6-.5-1.6.5-3.2 1.3-4.6 2.2l-10 1.1c-.4.3-.9.7-1.2 1l-1 1h.2l9.4-1.1c-1.1 1-2.2 2.1-3.3 3.3l-9.1 1c-.1.1-.2.3-.3.4-.1.2-.3.4-.4.7-.5.8-1.1 1.5-1.5 2.3h.2l8.4-.9c-.9 1.3-1.8 2.9-2.5 4.4l-8.2.9c-.5 1.3-1.1 2.6-1.6 3.9h.1l7.8-.7c-.7 1.6-1.3 3.3-1.9 5l-7.7.7c-.4 1.6-.9 3.3-1.2 5L38 48c-.4 1.9-.9 3.7-1.2 5.6l-7.2.5c-.2 1.2-.3 2.4-.4 3.5 0 .5-.1 1-.1 1.4 0 .2 0 .4-.1.5v.9l7-.3-.3 4.8-6.9.2h-.1v5.6h.1c0 .8.1 1.5.1 2.3h6.9c.1 1.1.1 2.2.2 3.3h-7.2v.5c0 .5.1 1.2.2 1.8.1 1 .2 1.9.3 2.9h.1c.1.9.2 1.6.3 2.5l7.1.8c.2 1 .4 2.1.7 3.1l-7.3-.8V86.8v.2c.1.3.1.5.2.8.3 1.4.7 2.7 1 4.1.3 1.1.7 2.1 1 3.2l7.3.9c.2.7.4 1.3.7 2l-7.5-.9c.1.2.1.3.2.5.3.8.7 1.5.9 2.3.1.3.3.8.4 1.2h.1c.5 1.2 1.1 2.2 1.6 3.2l7.2 1c.2.4.4.9.7 1.2l-7.3-1.1c.1.2.3.4.5.8.5.9 1.1 1.6 1.6 2.4.1.1.2.3.3.4.7.9 1.3 1.5 2.1 2.3l6.9 1.2c.3.3.7.8 1 1.1l-7-1.2c.1.1.3.2.4.3.8.7 1.5 1.3 2.3 1.8.1.1.3.2.4.3.1.1.2.1.3.1 1.4.9 2.9 1.5 4.3 1.9.4.1.9.2 1.3.2 1.6.1 5.3.5 8.4.9-6.6-3.5-12.3-14.4-15.6-29.7-5.2-25.5 1.2-55.8 14.6-67.1m28.6 73.8c4.4-6.5 6.3-23.7 4.4-38.5-2-14.8-7-21.6-11.4-15.1S73.8 65 75.7 79.8c2 14.7 7 21.5 11.4 15.1m2.5 6.8c-5.5 8.1-11.8-.4-14.3-19.1-2.4-18.6 0-40.3 5.5-48.3 5.5-8.1 11.8.4 14.3 19.1 2.4 18.7-.1 40.3-5.5 48.3m-5-81.6c-1.2-.2-3.6.2-5.4 1.4l-9.7-1.1c1.1-1 1.6-1.3 2.7-1.9l12.4 1.6zm-17 2.3 9.8 1c-.3.2-.7.5-.9.9-.7.8-1.4 1.5-2.1 2.4l-9.3-1c.7-1.2 1.6-2.3 2.5-3.3m4.7 7.9c-.8 1.3-1.4 2.9-2.1 4.4l-9.2-.9c.7-1.5 1.2-3 2-4.4l9.3.9zm-3.5 8.3c-.5 1.6-1.1 3.3-1.5 5l-9.4-.6c.4-1.8.9-3.4 1.4-5l9.5.6zm-12 9.7 9.5.5c-.3 1.9-.7 3.7-1 5.6l-9.5-.5c.4-1.9.6-3.9 1-5.6m-1.6 12.3 9.5.3c-.1 1.5-.2 3.2-.3 4.7l-9.4-.2c0-1.6.1-3.3.2-4.8m-.1 13h9.4c0 1.1 0 2.2.1 3.3h-9.3c-.2-1.1-.2-2.2-.2-3.3m1.1 12 9.1-.8c.1 1 .2 1.9.4 2.9l-9 .8v-.2c-.3-1-.4-1.8-.5-2.7m2.3 11.3 8.7-1c.1.5.3 1.2.4 1.8l-8.7.9c-.1-.6-.2-1.2-.4-1.7m3.1 9.1 8.3-1.1c.1.3.3.8.4 1.1l-8.3 1.1c-.2-.3-.3-.7-.4-1.1m3.9 7.4 7.9-1.1c.2.2.3.5.5.8l-7.9 1.1c-.2-.3-.4-.5-.5-.8m37.8-63.7c-1.8-10.5-4.8-18.4-8.6-23.5-.3-.7-.8-1.3-1.3-2-.1-.1-.1-.2-.2-.3l-.3-.3c-1.4-1.4-2.9-2.5-4.3-3.3-.2-.1-.3-.3-.5-.4L74.7 18s.4-.3 1.9-.5H70.2c-2.4.5-4.7 1.8-6.9 3.5-13.4 11.3-19.7 41.6-14.2 67.7 3.4 15.8 9.4 26.7 16.2 29.9h.3c6.5.1 16.6-.1 22.4-1.8 2.3-.7 3.9-2.1 5-3.2 9.8-10.5 14.5-39.2 10.3-63.9" class="st14"/></g></svg>