<svg xmlns="http://www.w3.org/2000/svg" width="1596" height="899" version="1.2" viewBox="0 0 1197 674.25"><defs><clipPath id="clip1"><path d="M.664 0h1195.672v673.5H.664Zm0 0"/></clipPath><clipPath id="clip2"><path d="M24.61 286.309h346.863v346.863H24.609Zm0 0"/></clipPath><clipPath id="clip3"><path d="M808.258 286.309h346.863v346.863H808.258Zm0 0"/></clipPath></defs><g id="surface1"><g clip-path="url(#clip1)" clip-rule="nonzero"><path d="M.664 0h1195.672v680.992H.664Zm0 0" style="stroke:none;fill-rule:nonzero;fill:#fff;fill-opacity:1"/><path d="M.664 0h1195.672v673.5H.664Zm0 0" style="stroke:none;fill-rule:nonzero;fill:#fff;fill-opacity:1"/><path d="M.664 0h1195.672v673.5H.664Zm0 0" style="stroke:none;fill-rule:nonzero;fill:#fff;fill-opacity:1"/></g><path d="M1092.39 294.762v38.37c-30.035-26.921-69.515-43.503-112.863-43.874h-.222c-.371 0-.742-.074-1.114-.074-46.617 0-88.847 18.738-119.777 49.078-.297.222-.598.52-.894.742-17.993 17.922-31.97 39.933-40.594 64.398H780.57l42.602-85.144 50.336-67.145h156.058l63.121 42.16c0 .446-.296.97-.296 1.489Zm-228.699 97.86 2.23 6.616c2.602 7.957 10.114 13.012 18.067 13.012 2.008 0 4.016-.297 6.024-.965 9.965-3.348 15.316-14.129 11.968-24.094l-9.515-28.554a132.232 132.232 0 0 1 52.789-27.067l-3.121 6.172c-4.688 9.442-.895 20.895 8.472 25.578 2.754 1.34 5.653 2.008 8.551 2.008a19.08 19.08 0 0 0 17.028-10.484l13.457-26.992c20.52 1.71 39.554 8.18 56.43 18.144l-6.618 2.23c-9.96 3.348-15.387 14.13-12.043 24.094 2.676 7.957 10.113 13.012 18.067 13.012 2.007 0 4.015-.371 6.023-1.039l28.55-9.52a132.23 132.23 0 0 1 27.063 52.797l-6.172-3.125c-9.441-4.683-20.89-.89-25.574 8.477-4.683 9.445-.894 20.894 8.473 25.582l26.992 13.457c-1.71 20.523-8.18 39.559-18.145 56.441l-2.23-6.62c-3.27-9.962-14.05-15.391-24.086-12.044-9.965 3.344-15.316 14.125-11.973 24.09l9.516 28.555a132.191 132.191 0 0 1-52.785 27.066l3.121-6.172c4.684-9.441.89-20.894-8.477-25.578-9.441-4.683-20.89-.89-25.574 8.477l-13.457 26.992c-20.523-1.711-39.554-8.18-56.433-18.145l6.617-2.23c9.965-3.344 15.39-14.129 12.047-24.09-3.348-9.965-14.055-15.32-24.09-11.973l-28.551 9.516a132.24 132.24 0 0 1-27.062-52.793l6.168 3.121c2.753 1.34 5.652 2.008 8.55 2.008a19.08 19.08 0 0 0 17.028-10.484c4.683-9.446.89-20.895-8.477-25.578l-26.988-13.461c1.71-20.524 8.18-39.559 18.14-56.438Zm-132.937 86.925H445.25v-38.074h285.504ZM320.047 340.715c-.223-.297-.52-.594-.82-.89-30.704-31.009-73.235-50.196-120.075-50.567h-.297c-.296 0-.667-.074-1.039-.074-20 0-39.183 3.644-57.101 10.039v-47.07l3.12-1.04h86.618l142.383 89.008 25.277 63.281h-39.035c-8.398-23.722-21.707-45.062-39.031-62.687ZM170.23 363.32c2.75 1.34 5.653 2.008 8.551 2.008a19.08 19.08 0 0 0 17.028-10.484l13.457-26.992c20.52 1.71 39.554 8.18 56.43 18.144l-6.618 2.23c-9.96 3.348-15.39 14.13-12.043 24.094 2.676 7.957 10.11 13.012 18.067 13.012 2.007 0 4.015-.371 6.023-1.039l28.55-9.52a132.28 132.28 0 0 1 27.063 52.797l-6.172-3.125c-9.441-4.683-20.89-.89-25.578 8.477-4.683 9.445-.89 20.894 8.477 25.582l26.988 13.457c-1.707 20.523-8.176 39.559-18.14 56.441l-2.231-6.62c-3.344-9.962-13.977-15.391-24.09-12.044-9.96 3.344-15.312 14.125-11.969 24.09l9.516 28.555a132.232 132.232 0 0 1-52.789 27.066l3.125-6.172c4.684-9.441.89-20.894-8.477-25.578-9.441-4.683-20.89-.89-25.574 8.477l-13.46 26.992c-20.52-1.711-39.552-8.18-56.356-18.145l6.543-2.23c9.96-3.344 15.316-14.129 12.043-24.09-3.344-9.965-14.051-15.32-24.086-11.973l-28.551 9.516a132.298 132.298 0 0 1-27.066-52.793l6.171 3.121c2.75 1.34 5.653 2.008 8.551 2.008a19.08 19.08 0 0 0 17.028-10.484c4.683-9.446.89-20.895-8.477-25.578l-26.988-13.461c1.785-20.524 8.176-39.559 18.215-56.438l2.156 6.617c2.601 7.957 10.113 13.012 18.066 13.012 2.008 0 4.016-.297 6.024-.965 9.96-3.348 15.316-14.129 12.043-24.094l-9.516-28.554c15.094-12.715 33.012-22.086 52.715-27.067l-3.125 6.172c-4.684 9.442-.89 20.895 8.476 25.578Zm-29.515-264.5c0-10.484 8.55-19.035 19.031-19.035h76.137V213.04h-95.168Zm475.84 114.22v-76.145H682.5l50.781 76.144Zm0 38.073h140.52l28.55 57.106-9.516 19.039H616.555Zm0 114.215h140.52l-19.036 38.074H616.555ZM273.949 232.074V79.785h228.403v247.473h-93.68l-2.824-7.067c-1.563-3.793-4.164-6.914-7.586-9.07l-124.535-77.855c0-.446.222-.743.222-1.192Zm165.133 171.328-15.168-38.074h78.438v38.074Zm101.336 0v-38.074h38.066v38.074Zm185.8-315.14 102.903 154.375c.52.742 1.113 1.336 1.707 1.93l-20.668 27.59-24.312-48.634c-.149-.296-.446-.593-.668-.89-.223-.371-.297-.746-.524-1.117L708.523 107.3c-3.492-5.281-9.441-8.48-15.836-8.48H597.52c-10.485 0-19.036 8.554-19.036 19.038v209.399h-38.066V79.785h169.965c6.394 0 12.344 3.125 15.836 8.477Zm319.63 127.976a18.955 18.955 0 0 0-10.555-3.199H855.141L757.89 67.145c-10.63-15.915-28.399-25.43-47.508-25.43H159.746c-31.523 0-57.098 25.578-57.098 57.105v125.895l-25.058 8.328c-4.012 1.34-7.434 4.016-9.813 7.512L29.711 297.66c-5.8 8.777-3.496 20.598 5.277 26.399 8.774 5.8 20.594 3.496 26.395-5.278l34.426-51.683 6.84-2.305v53.39c-8.848 5.876-17.028 12.641-24.61 20.079-.3.222-.598.52-.82.742-31.004 30.785-50.258 73.246-50.633 120.168v.297c0 .37-.074.668-.074 1.043 0 46.25 18.441 88.191 48.328 119.05.148.149.297.223.445.446 31.078 31.898 74.5 51.828 122.531 51.828 46.618 0 88.848-18.738 119.778-49.078.297-.223.594-.52.89-.742 30.93-30.786 50.188-73.246 50.559-120.168v-.297c0-.371.074-.668.074-1.04 0-6.472-.445-12.792-1.117-19.038h39.184v57.109c0 10.484 8.55 19.035 19.035 19.035h323.57c10.48 0 19.031-8.55 19.031-19.035v-57.11h39.184c-.594 5.801-.965 11.676-1.04 17.7v.297c0 .37-.073.668-.073 1.043 0 46.25 18.437 88.191 48.324 119.05.148.149.297.223.45.446 31.077 31.898 74.495 51.828 122.526 51.828 46.618 0 88.848-18.738 119.778-49.078.297-.223.593-.52.89-.742 30.93-30.786 50.188-73.246 50.559-120.168v-.297c0-.371.074-.668.074-1.04 0-28.183-6.914-54.656-19.031-78.152v-63.953l8.473 5.653c8.773 5.8 20.597 3.496 26.394-5.278 5.875-8.777 3.496-20.597-5.277-26.398l-114.203-76.145" style="stroke:none;fill-rule:nonzero;fill:#000;fill-opacity:1"/><path d="M426.219 213.04h-76.137v-57.11h76.137Zm38.066 19.034v-95.18c0-10.484-8.55-19.035-19.035-19.035h-114.2c-10.484 0-19.034 8.551-19.034 19.036v95.18c0 10.484 8.55 19.038 19.035 19.038H445.25c10.484 0 19.035-8.554 19.035-19.039M978.191 422.438c20.965 0 38.067 17.101 38.067 38.074 0 20.968-17.102 38.07-38.067 38.07-20.968 0-38.066-17.102-38.066-38.07 0-20.973 17.098-38.075 38.066-38.075Zm0 114.218c42.008 0 76.133-34.133 76.133-76.144 0-42.016-34.125-76.145-76.133-76.145-42.007 0-76.136 34.13-76.136 76.145 0 42.011 34.129 76.144 76.136 76.144M197.816 422.438c20.965 0 38.067 17.101 38.067 38.074 0 20.968-17.102 38.07-38.067 38.07-20.968 0-38.07-17.102-38.07-38.07 0-20.973 17.102-38.075 38.07-38.075Zm-76.136 38.074c0 42.011 34.129 76.144 76.136 76.144 42.008 0 76.133-34.133 76.133-76.144 0-42.016-34.125-76.145-76.133-76.145-42.007 0-76.136 34.13-76.136 76.145" style="stroke:none;fill-rule:nonzero;fill:#000;fill-opacity:1"/><g clip-path="url(#clip2)" clip-rule="nonzero"><path d="M198.043 633.172c95.789 0 173.43-77.64 173.43-173.43 0-95.793-77.641-173.433-173.43-173.433-95.793 0-173.434 77.64-173.434 173.433 0 95.79 77.641 173.43 173.434 173.43Zm-117.45-281.07 9.505 9.53 9.836-9.808-9.532-9.531c6.84-6.258 14.168-11.945 22.02-16.969l6.73 11.711 12.043-6.937-6.785-11.766c8.184-4.273 16.746-7.937 25.68-10.754l3.512 13.223 13.43-3.594-3.509-13.152c8.918-1.985 18.145-3.11 27.582-3.524v13.528h13.875V300.53c9.434.403 18.66 1.524 27.594 3.524l-3.535 13.168 13.402 3.593 3.551-13.25c8.95 2.829 17.496 6.493 25.684 10.778l-6.801 11.781 12.016 6.922 6.757-11.723c7.852 5.008 15.192 10.727 22.032 16.98l-9.543 9.52 9.808 9.809 9.543-9.531c6.258 6.84 11.95 14.18 16.969 22.02l-11.723 6.757 6.938 12.016 11.781-6.801c4.27 8.199 7.934 16.746 10.75 25.695l-13.234 3.54 3.594 13.401 13.164-3.523c1.984 8.95 3.125 18.176 3.527 27.598h-13.531v13.875h13.53c-.401 9.433-1.542 18.66-3.526 27.593l-13.164-3.55-3.594 13.402 13.234 3.566c-2.816 8.934-6.48 17.497-10.75 25.684l-11.765-6.828-6.938 12.015 11.707 6.786c-5.008 7.84-10.695 15.18-16.969 22.02l-9.504-9.548-9.808 9.825 9.52 9.543c-6.84 6.257-14.18 11.96-22.036 16.984l-6.726-11.754-12.016 6.953 6.77 11.793c-8.188 4.274-16.747 7.922-25.696 10.754l-3.512-13.266-13.402 3.61 3.496 13.164c-8.933 2-18.16 3.125-27.582 3.527v-13.531h-13.875v13.531c-9.433-.402-18.66-1.527-27.594-3.527l3.536-13.164-13.414-3.594-3.555 13.25c-8.95-2.832-17.496-6.496-25.68-10.781l6.797-11.782-12.016-6.937-6.77 11.727c-7.839-5.008-15.179-10.7-22.019-16.97l9.547-9.53-9.808-9.813-9.547 9.535c-6.258-6.828-11.946-14.168-16.969-22.008l11.723-6.754-6.938-12.03-11.793 6.796c-4.258-8.183-7.922-16.746-10.738-25.68l13.238-3.539-3.594-13.414-13.168 3.524c-1.984-8.922-3.109-18.149-3.523-27.582h13.527v-13.875H38.832c.402-9.438 1.54-18.664 3.523-27.598l13.153 3.55 3.61-13.413-13.24-3.567c2.817-8.937 6.481-17.496 10.767-25.683l11.753 6.812 6.95-12.015-11.723-6.77c5.023-7.84 10.71-15.18 16.969-22.02Zm0 0" style="stroke:none;fill-rule:nonzero;fill:#fbc404;fill-opacity:1"/></g><path d="M198.043 563.8c57.48 0 104.059-46.577 104.059-104.058 0-57.484-46.579-104.062-104.059-104.062-57.484 0-104.063 46.578-104.063 104.062 0 57.48 46.579 104.059 104.063 104.059Zm47.852-110.995c-1.18-8.2-4.344-15.696-9.075-22.035l29.637-29.637c12.125 14.14 19.91 32.023 21.422 51.672ZM169.07 498.52c6.344 4.746 13.836 7.894 22.035 9.074v41.972c-19.648-1.5-37.53-9.296-51.671-21.425Zm35.91 9.074c8.2-1.18 15.692-4.344 22.032-9.074l29.62 29.636c-14.124 12.125-32.007 19.91-51.652 21.422Zm-6.937-13.168c-19.133 0-34.688-15.551-34.688-34.684 0-19.133 15.555-34.687 34.688-34.687 19.133 0 34.684 15.554 34.684 34.687 0 19.133-15.551 34.684-34.684 34.684Zm28.969-73.465c-6.34-4.746-13.832-7.895-22.032-9.074v-41.985c19.645 1.5 37.528 9.297 51.668 21.422Zm-35.907-9.074c-8.199 1.18-15.69 4.343-22.035 9.074l-29.636-29.637c14.14-12.125 32.023-19.91 51.671-21.422Zm-31.843 18.883c-4.746 6.34-7.895 13.835-9.075 22.035h-41.984c1.5-19.649 9.297-37.532 21.422-51.672Zm-9.075 35.91c1.18 8.199 4.344 15.691 9.075 22.03l-29.649 29.622c-12.113-14.125-19.898-32.008-21.41-51.652Zm116.27 51.668L236.82 488.71c4.746-6.34 7.895-13.832 9.075-22.031h41.972c-1.5 19.644-9.285 37.527-21.41 51.668Zm0 0" style="stroke:none;fill-rule:nonzero;fill:#fbc404;fill-opacity:1"/><g clip-path="url(#clip3)" clip-rule="nonzero"><path d="M981.688 633.172c95.789 0 173.433-77.64 173.433-173.43 0-95.793-77.644-173.433-173.434-173.433-95.789 0-173.43 77.64-173.43 173.433 0 95.79 77.641 173.43 173.43 173.43Zm-117.45-281.07 9.504 9.53 9.84-9.808-9.531-9.531c6.84-6.258 14.164-11.945 22.015-16.969l6.73 11.711 12.044-6.937-6.785-11.766c8.187-4.273 16.746-7.937 25.683-10.754l3.508 13.223 13.434-3.594-3.512-13.152c8.922-1.985 18.148-3.11 27.582-3.524v13.528h13.875V300.53c9.434.403 18.66 1.524 27.598 3.524l-3.54 13.168 13.403 3.593 3.55-13.25c8.95 2.829 17.497 6.493 25.684 10.778l-6.797 11.781 12.016 6.922 6.754-11.723c7.855 5.008 15.195 10.727 22.035 16.98l-9.547 9.52 9.809 9.809 9.547-9.531c6.258 6.84 11.945 14.18 16.968 22.02l-11.722 6.757 6.933 12.016 11.782-6.801c4.273 8.199 7.937 16.746 10.754 25.695l-13.239 3.54 3.594 13.401 13.168-3.523c1.984 8.95 3.121 18.176 3.523 27.598h-13.527v13.875h13.527c-.402 9.433-1.539 18.66-3.523 27.593l-13.168-3.55-3.594 13.402 13.239 3.566c-2.817 8.934-6.48 17.497-10.754 25.684l-11.766-6.828-6.937 12.015 11.71 6.786c-5.007 7.84-10.699 15.18-16.968 22.02l-9.504-9.548-9.809 9.825 9.516 9.543c-6.84 6.257-14.18 11.96-22.031 16.984l-6.73-11.754-12.016 6.953 6.773 11.793c-8.188 4.274-16.75 7.922-25.695 10.754l-3.512-13.266-13.402 3.61 3.496 13.164c-8.938 2-18.164 3.125-27.582 3.527v-13.531h-13.875v13.531c-9.434-.402-18.66-1.527-27.598-3.527l3.539-13.164-13.418-3.594-3.55 13.25c-8.95-2.832-17.497-6.496-25.684-10.781l6.8-11.782-12.015-6.937-6.774 11.727c-7.836-5.008-15.175-10.7-22.015-16.97l9.543-9.53-9.809-9.813-9.547 9.535c-6.254-6.828-11.945-14.168-16.968-22.008l11.726-6.754-6.937-12.03-11.793 6.796c-4.262-8.183-7.922-16.746-10.739-25.68l13.235-3.539-3.594-13.414L826 494.262c-1.98-8.922-3.105-18.149-3.523-27.582h13.527v-13.875h-13.527c.402-9.438 1.543-18.664 3.523-27.598l13.156 3.55 3.606-13.413-13.235-3.567c2.817-8.937 6.477-17.496 10.766-25.683l11.75 6.812 6.953-12.015-11.726-6.77c5.023-7.84 10.714-15.18 16.968-22.02Zm0 0" style="stroke:none;fill-rule:nonzero;fill:#fbc404;fill-opacity:1"/></g><path d="M981.688 563.8c57.484 0 104.058-46.577 104.058-104.058 0-57.484-46.574-104.062-104.059-104.062-57.48 0-104.058 46.578-104.058 104.062 0 57.48 46.578 104.059 104.058 104.059Zm47.855-110.995c-1.18-8.2-4.344-15.696-9.074-22.035l29.636-29.637c12.125 14.14 19.907 32.023 21.422 51.672Zm-76.824 45.715c6.34 4.746 13.832 7.894 22.031 9.074v41.972c-19.645-1.5-37.531-9.296-51.668-21.425Zm35.906 9.074c8.2-1.18 15.691-4.344 22.035-9.074l29.621 29.636c-14.125 12.125-32.008 19.91-51.656 21.422Zm-6.938-13.168c-19.132 0-34.687-15.551-34.687-34.684 0-19.133 15.555-34.687 34.688-34.687 19.132 0 34.687 15.554 34.687 34.687 0 19.133-15.555 34.684-34.688 34.684Zm28.973-73.465c-6.344-4.746-13.836-7.895-22.035-9.074v-41.985c19.648 1.5 37.531 9.297 51.668 21.422Zm-35.91-9.074c-8.2 1.18-15.691 4.343-22.031 9.074l-29.637-29.637c14.137-12.125 32.023-19.91 51.668-21.422Zm-31.84 18.883c-4.746 6.34-7.894 13.835-9.074 22.035h-41.984c1.496-19.649 9.293-37.532 21.421-51.672Zm-9.074 35.91c1.18 8.199 4.34 15.691 9.074 22.03l-29.652 29.622c-12.113-14.125-19.895-32.008-21.406-51.652Zm116.27 51.668-29.637-29.637c4.742-6.34 7.894-13.832 9.074-22.031h41.969c-1.5 19.644-9.282 37.527-21.407 51.668Zm0 0" style="stroke:none;fill-rule:nonzero;fill:#fbc404;fill-opacity:1"/></g></svg>