<svg xmlns="http://www.w3.org/2000/svg" xml:space="preserve" x="0" y="0" style="enable-background:new 0 0 140 90" version="1.1" viewBox="0 0 140 90"><style type="text/css">.st0{display:none}.st1{display:inline}.st2{fill:none}.st3{fill:#464644}.st4,.st5{fill:none;stroke:#fbc300;stroke-width:5}.st5{stroke-width:4}.st6{fill:#fbc300}.st7{stroke:#fff}.st8{fill:none;stroke:#fbc300;stroke-width:2.7}.st9{stroke:#fff;stroke-width:2}.st10{fill:none;stroke:#fbc300;stroke-width:3}.st11{fill:#fff}.st12{fill:#fbc300;stroke:#fbc300}.st13,.st14{stroke:#fff;stroke-linejoin:round}.st14{fill:none;stroke:#000;stroke-width:2.5;stroke-linecap:round}.st15{display:inline}.st15,.st16,.st17{fill:none;stroke:#000;stroke-width:3;stroke-miterlimit:10}.st17{stroke-width:5}</style><g id="Ebene_1"><g id="Ebene_1_1_" class="st0"><g id="assets_1_" class="st1"><g id="bike-_x2F_-atv"><g id="icon_1_"><circle id="green_1_" cx="69.9" cy="36.1" r="76.1" class="st2"/><g id="quad" transform="translate(15 39.801)"><path id="Fill-18" d="M37.9-8.9c-1.2 0-2.1.9-2.1 2.1v6.1c0 1.2.9 2.1 2.1 2.1S40 .4 40-.8v-6.1c.1-1.1-.9-2-2.1-2" class="st3"/><path id="Fill-19" d="M46.3-8.9c-1.2 0-2.1.9-2.1 2.1v6.1c0 1.2.9 2.1 2.1 2.1 1.2 0 2.1-.9 2.1-2.1v-6.1c-.1-1.2-1-2.1-2.1-2.1" class="st3"/><path id="Fill-20" d="M54.6-8.9c-1.2 0-2.1.9-2.1 2.1v6.1c0 1.2.9 2.1 2.1 2.1 1.2 0 2.1-.9 2.1-2.1v-6.1c-.1-1.2-.9-2.1-2.1-2.1" class="st3"/><path id="Fill-21" d="M13.3 22.6c-3.6 0-6.4-2.9-6.4-6.4s2.9-6.4 6.4-6.4 6.4 2.9 6.4 6.4-2.9 6.4-6.4 6.4zm0-17c-5.8 0-10.6 4.7-10.6 10.6s4.7 10.6 10.6 10.6 10.6-4.7 10.6-10.6c0-5.9-4.7-10.6-10.6-10.6z" class="st3"/><path id="Fill-22" d="M96.7 32.5c-9 0-16.4-7.3-16.4-16.4S87.7-.3 96.7-.3s16.4 7.3 16.4 16.4-7.4 16.4-16.4 16.4zM63.3 7.1c-.4-.6-1.1-1.1-1.8-1.1H45.6c-.7 0-1.4.4-1.8 1.1L39.9 14h-6.3c-.7-6.4-4.2-11.8-9.3-15l3-6.1c.4-1 .2-2.1-.7-2.7l-23.3-15v-6.4h12.2l6.8 6.5c.3.3.5.4.8.4L89.5-3C82.4-.3 77.2 6.2 76.3 14h-9l-4-6.9zm-50 25.4c-9 0-16.4-7.3-16.4-16.4S4.3-.3 13.3-.3c9 0 16.4 7.3 16.4 16.4s-7.4 16.4-16.4 16.4zm46.5-61.2c1.3 0 2.6.3 3.8.7.7.3 1.6.2 2.2-.4 2.3-2.2 4.6-4.2 5.8-5.3 2.5 1.3 8.5 5 13.3 11.6h-8.3c-1.2 0-2.1.9-2.1 2.1s.9 2.1 2.1 2.1h11c1.7 3.2 3.1 6.9 3.8 11.2C83.8-9.2 49.8-20 49.8-20c.7-5 4.9-8.7 10-8.7zM96.7-4.4h-.8c-.8-9.8-5.2-18.8-12.5-25.9-5.6-5.4-11-7.8-11.2-7.9-.7-.4-1.5-.2-2.1.3-.1.1-1.3 1.1-3 2.7l-6.8-7c-.4-.4-2-2.1-4.7-2.1h-8.1c-1.2 0-2.1.9-2.1 2.1 0 1.2.9 2.1 2.1 2.1h8.1c1 0 1.5.5 1.6.6 0 .1 6.9 7.1 6.9 7.1-1.3-.4-2.7-.5-4-.5-7 0-12.7 5-14 11.5L25-28l-7.1-6.8c-.4-.4-.9-.5-1.4-.5H1.3c-1.2 0-2.1.9-2.1 2.1v9.7c0 .7.4 1.3 1 1.8L22.8-7.4 20.6-3c-2.2-.9-4.7-1.3-7.3-1.3C2-4.4-7.2 4.8-7.2 16.1S2 36.6 13.3 36.6c10.6 0 19.4-8.1 20.4-18.5h7.4c.7 0 1.4-.4 1.8-1.1l3.9-6.9h13.4l3.9 6.9c.4.6 1.1 1.1 1.8 1.1h10.3c1 10.4 9.8 18.5 20.4 18.5 11.3 0 20.5-9.2 20.5-20.5.1-11.3-9.1-20.5-20.4-20.5z" class="st3"/><circle id="Oval-2" cx="13.1" cy="15.9" r="18.5" class="st4"/><circle id="Oval-2_1_" cx="96.8" cy="15.9" r="18.5" class="st4"/><path id="Fill-23" d="M96.7 22.6c-3.6 0-6.4-2.9-6.4-6.4s2.9-6.4 6.4-6.4 6.4 2.9 6.4 6.4-2.9 6.4-6.4 6.4zm0-17c-5.8 0-10.6 4.7-10.6 10.6s4.7 10.6 10.6 10.6 10.6-4.7 10.6-10.6-4.8-10.6-10.6-10.6z" class="st3"/></g></g></g></g></g><g id="Ebene_2" class="st0"><g id="assets_2_" class="st1"><g id="bike-_x2F_-cruiser"><g id="icon_2_"><circle id="green_2_" cx="69.9" cy="36.9" r="76.1" class="st2"/><g id="cruiser" transform="translate(15 49.493)"><path id="Fill-3" d="M99.4 15.2c-7.9 0-14.3-6.4-14.3-14.3s6.4-14.3 14.3-14.3S113.7-7 113.7.9s-6.4 14.3-14.3 14.3zM80.3-15.1l-3-3c-.2-3.8-3-7.2-7.5-9.3l3.1-3 11.2 11.6-3.8 3.7zM64.6 5.7h-37c.4-1.5.6-3.1.6-4.7 0-2.5-.5-4.8-1.4-7.1H43c.5 0 1.1-.3 1.4-.7l2.7-3.3h24.1v4.8l-6.6 11zm-54.2 9.5C2.5 15.2-3.9 8.7-3.9.9s6.4-14.3 14.3-14.3S24.7-7 24.7.9s-6.4 14.3-14.3 14.3zM-.3-34.1l1.5-.5c.6-.2 1.2-.4 1.9-.4 2.1 0 4 1.3 4.7 3.3l3.5 9.5c.2.7.9 1.2 1.7 1.2h12.1l2.3 5c.3.6 1 1.1 1.6 1.1h11.3c.5 1.4 1.4 2.8 2.7 4l-.9 1.2H24.8c-3.3-4.4-8.5-7.2-14.4-7.2-1.4 0-2.9.2-4.1.5L-.3-34.1zm58.9 7.9c8.2 0 15.2 3.8 15.2 8.5 0 1.7-.9 3-1.9 3.9H45.3c-.9-1-1.9-2.3-1.9-3.9 0-4.6 7-8.5 15.2-8.5zM83.2-36h2.1v8.9h-2.1c-2.4 0-4.5-2-4.5-4.5.1-2.4 2.1-4.4 4.5-4.4zm16.2 19c-4.1 0-8 1.4-11 3.8l-2.3-2.4 2-1.9c.4-.4.5-.8.5-1.3s-.2-1-.5-1.3l-3.3-3.4h2.4c1 0 1.8-.8 1.8-1.8v-12.5c0-1-.8-1.8-1.8-1.8h-3.9c-3.8 0-7.1 2.7-7.9 6.4l-1-1c-.7-.7-1.9-.7-2.6-.1l-2 1.9L60-42.6c-.4-.4-1.3-1.3-3.3-1.3h-7.3c-1 0-1.8.8-1.8 1.8s.8 1.8 1.8 1.8h7.3c.4 0 .5.1.6.1l10 10.2-1.2 1.1c-2.3-.6-4.8-1-7.5-1-10.1 0-18.2 4.9-18.8 11.3h-9.7l-2.3-5c-.3-.6-1-1.1-1.6-1.1h-12L11.1-33c-1.3-3.4-4.6-5.7-8.1-5.7-1.1 0-2.1.2-3 .5L-3.3-37c-.4.2-.8.5-1 1-.2.4-.2.9-.1 1.4l7.1 19.2C-3.4-12.5-7.7-6.3-7.7 1c0 9.8 8.1 17.9 17.9 17.9C17.1 18.9 23 15 26 9.3H65.7c.6 0 1.3-.4 1.5-.9L74.5-4c.2-.3.3-.6.3-.9v-6.6c.7-.7 1.3-1.5 1.8-2.4l2.5 2.6c.4.4.8.5 1.3.5.4 0 .9-.2 1.3-.5l2-1.9 2.3 2.4C83.3-7.7 81.7-3.6 81.7.8c0 9.8 8.1 17.9 17.9 17.9s17.9-8.1 17.9-17.9C117.4-9 109.3-17 99.4-17z" class="st3"/><circle id="Oval" cx="10.5" cy=".9" r="16.4" class="st5"/><circle id="Oval_1_" cx="99.4" cy=".9" r="16.4" class="st5"/><path id="Fill-4" d="M99.4 6.5c-3.1 0-5.6-2.5-5.6-5.6s2.5-5.6 5.6-5.6S105-2.2 105 .9s-2.5 5.6-5.6 5.6zm0-14.8c-5.1 0-9.3 4.1-9.3 9.3 0 5.1 4.1 9.3 9.3 9.3s9.3-4.1 9.3-9.3-4.2-9.3-9.3-9.3z" class="st3"/><path id="Fill-5" d="M10.4 6.5C7.3 6.5 4.8 4 4.8.9s2.5-5.6 5.6-5.6S16-2.3 16 .9s-2.5 5.6-5.6 5.6zm0-14.8C5.3-8.3 1.1-4.2 1.1 1c0 5.1 4.1 9.3 9.3 9.3s9.3-4.1 9.3-9.3c-.1-5.2-4.2-9.3-9.3-9.3z" class="st3"/><path id="Fill-6" d="M51.4-6.4c-1 0-1.8.8-1.8 1.8v5c0 1 .8 1.8 1.8 1.8s1.8-.8 1.8-1.8v-4.9c0-1.1-.8-1.9-1.8-1.9" class="st3"/><path id="Fill-7" d="M58.6-6.4c-1 0-1.8.8-1.8 1.8v5c0 1 .8 1.8 1.8 1.8s1.8-.8 1.8-1.8v-4.9c0-1.1-.8-1.9-1.8-1.9" class="st3"/><path id="Fill-8" d="M43.2-2h-9.1c-1 0-1.8.8-1.8 1.8s.8 1.8 1.8 1.8h9.1c1 0 1.8-.8 1.8-1.8.1-1-.8-1.8-1.8-1.8" class="st3"/></g></g></g></g></g><g id="Ebene_3" class="st0"><g id="assets_3_" class="st1"><g id="bike-_x2F_-off-road"><g id="icon_3_"><circle id="green_3_" cx="69.9" cy="36.1" r="76.1" class="st2"/><g id="off-road" transform="translate(15 40.705)"><path id="Fill-14" d="M13 30.9c-9 0-16.2-7.3-16.2-16.2S4-1.5 13-1.5s16.2 7.2 16.2 16.2S21.8 30.9 13 30.9zm0-36.5C1.8-5.6-7.3 3.5-7.3 14.7S1.8 35 13 35s20.3-9.1 20.3-20.3S24.2-5.6 13-5.6z" class="st6"/><path id="Fill-15" d="M13 21c-3.5 0-6.4-2.9-6.4-6.4S9.5 8.3 13 8.3s6.4 2.9 6.4 6.4S16.5 21 13 21zm0-16.8C7.2 4.2 2.5 9 2.5 14.7S7.2 25.1 13 25.1s10.5-4.7 10.5-10.5S18.7 4.2 13 4.2z" class="st3"/><path id="Fill-16" d="M97.1 30.9c-8.9 0-16.2-7.2-16.2-16.2S88.1-1.5 97.1-1.5s16.2 7.2 16.2 16.2-7.3 16.2-16.2 16.2zM62.3 8.6H46.1c-.4-1-.9-2.5-1.6-4.4h13.4c1.2 0 2.1-.9 2.1-2.1S59.1 0 57.9 0H43c-.5-1.3-1.1-2.9-1.6-4.5H52c1.2 0 2.1-.9 2.1-2.1s-.9-1.9-2.1-1.9H38.4c-7.5.3-8.9-1.3-11.9-4.4-3.4-3.6-8.1-8.4-22.5-13.5-2.6-.9-4.3-2.1-5-3.7-.4-.7-.4-1.4-.4-2.1 6.1 1.8 24.2 7.1 38.7 11.3 4.4 1.3 8.9.5 12.6-.6-.1.4-.1.9-.1 1.3 0 2.4 1.2 4.7 3.2 6.6.4.4.9.5 1.3.5h24.8l.5 1.6L62.3 8.6zm12.6-34.2 3 8.4H55.4c-.7-.7-1.3-1.8-1.3-3 0-3.4 5.2-7 12.8-7 3.2.1 5.9.7 8 1.6zm14.4 9.9-5.7 2.1-6.2-17.2 5.7-2.1 6.2 17.2zm7.8 10.1c-1.7 0-3.4.2-5 .6l-2.3-6.5 2.9-1c3.2-.5 6.5-.5 9.8.1 1.1.2 2.2-.5 2.4-1.6.2-1.1-.5-2.1-1.6-2.4-3.3-.6-6.6-.7-9.8-.4l-7.1-19.3c-.4-1.1-1.5-1.6-2.6-1.3l-2.9 1.1-1.3-3.8c-.4-1.3-2.1-3.7-5.4-3.8H67c-1.2 0-2.1.9-2.1 2.1 0 1.2.9 2.1 2.1 2.1h7c1.2.1 1.5.7 1.6 1L77-35l-2.9 1.1c-.5.2-.9.5-1.2 1.1-.3.5-.3 1.1-.1 1.6l.3.9c-1.9-.4-4-.7-6.3-.7-4.7 0-8.9 1.2-11.9 3.1-1.7 1-9.6 5.3-16.4 3.3-17.8-5.2-40.6-12-40.8-12-1-.3-2 .2-2.4 1.1-.1.2-1.6 3.5-.1 7.2 1.2 2.7 3.7 4.7 7.4 6C16-17.6 20.3-13.2 23.4-10c3.4 3.6 5.8 5.7 13.4 5.7h.1c3.6 9.8 5.7 15.7 5.7 15.7.3.8 1.1 1.3 2 1.3h18.5c.6 0 1.2-.3 1.5-.7L83.5-9.3l2.4-.9 2.3 6.5C81.4-.3 76.8 6.7 76.8 14.7c0 11.2 9.1 20.3 20.3 20.3s20.3-9.1 20.3-20.3-9.1-20.3-20.3-20.3z" class="st3"/><path id="Fill-14_1_" d="M97.2 30.9c-8.9 0-16.2-7.2-16.2-16.2S88.2-1.5 97.2-1.5s16.2 7.2 16.2 16.2-7.4 16.2-16.2 16.2zm0-36.5C86-5.6 76.9 3.5 76.9 14.7S86 35 97.2 35s20.3-9.1 20.3-20.3-9.1-20.3-20.3-20.3z" class="st6"/><path id="Fill-17" d="M97.1 21c-3.5 0-6.4-2.9-6.4-6.4s2.9-6.4 6.4-6.4c3.5 0 6.4 2.9 6.4 6.4s-2.9 6.4-6.4 6.4zm0-16.8c-5.8 0-10.5 4.7-10.5 10.5s4.7 10.5 10.5 10.5 10.5-4.7 10.5-10.5-4.7-10.5-10.5-10.5z" class="st3"/></g></g></g></g></g><g id="Ebene_4" class="st0"><g id="assets_4_" class="st1"><g id="bike-_x2F_-road"><g id="icon_4_"><circle id="green_4_" cx="69.9" cy="36.9" r="76.1" class="st2"/><g id="road" transform="translate(15 45.587)"><path id="Fill-44" d="M99.3 22.8c-8 0-14.5-6.5-14.5-14.5S91.4-6.2 99.3-6.2 113.8.3 113.8 8.3c-.1 7.9-6.5 14.5-14.5 14.5zM86.4-20c.1-.4.1-.8.1-1.2 0-2.4-1.1-4.7-2.9-6.5l5.2-1.9 4.7 13-5.2 1.9-1.9-5.3zm-5.5 2.8H54c-1-1-1.9-2.3-1.9-4 0-4.7 7.1-8.6 15.4-8.6s15.4 3.9 15.4 8.6c-.1 1.6-1 3.1-2 4zM69.7 13.1H43c.3-1.6.4-3.2.4-4.8 0-1.7-.2-3.3-.4-4.9h7.6c1 0 1.9-.8 1.9-1.9 0-1-.8-1.9-1.9-1.9h-8.7c-2-5.5-5.8-10.1-10.8-13.1h48.2l-1.7 4.7H57.3c-1 0-1.9.8-1.9 1.9 0 1 .8 1.9 1.9 1.9h19.1l-6.7 18.1zM-1.9-7.8l-2.1-2v-3.8h8.7C2.2-12 0-10.1-1.9-7.8zm12.9-11c0-2.9 2.3-5.1 5.1-5.1h32.7c-.3.9-.4 1.8-.4 2.7 0 1.4.4 2.8 1 4H10.9l.1-1.6zm87.9-11.4h2.1v8.9h-2.1c-2.5 0-4.5-2-4.5-4.5-.1-2.4 2-4.4 4.5-4.4zm.4 20.4c-1.4 0-2.9.2-4.2.5l-1.3-3.5 2.6-.9c1-.4 1.4-1.4 1.1-2.3l-.6-1.7c.6.2 1.3.3 2 .3h4c1 0 1.9-.8 1.9-1.9v-12.6c0-1-.8-1.9-1.9-1.9h-4c-2.7 0-5 1.3-6.5 3.3l-.7-2.1c-.4-1-1.4-1.4-2.3-1.1l-2.6.9-2.8-7.7c-.4-1.2-1.7-3.2-4.7-3.2h-7.4c-1 0-1.9.8-1.9 1.9 0 1 .8 1.9 1.9 1.9h7.4c.8 0 1.1.4 1.2.6 0 .1 2.9 7.9 2.9 7.9l-2.6.9c-.2.1-.3.2-.4.3-3.3-2-7.8-3.1-12.8-3.1-7 0-13.1 2.3-16.4 5.9h-35c-4.8 0-8.9 3.9-8.9 8.9v1.6H-5.8c-1 0-1.9.8-1.9 1.9v6.4c0 .5.2 1 .5 1.3l3 3c-2.2 3.8-3.6 8.2-3.6 13 0 1 .8 1.9 1.9 1.9S-4 9.8-4 8.7c.1-12.3 9.8-22 21.8-22 12.1 0 21.8 9.8 21.8 21.7 0 2.1-.3 4.2-.9 6.2-.3 1 .3 2 1.3 2.2.2.1.4.1.5.1H71c.8 0 1.4-.4 1.7-1.3L83.4-14c.1-.2.3-.7.3-.8l.5-.5 1.3 3.5c.3.7 1 1.3 1.7 1.3.2 0 .4 0 .6-.1l2.6-.9L91.7-8C85.5-5.3 81.2 1 81.2 8.3c0 10 8.1 18.2 18.2 18.2s18.2-8.1 18.2-18.2-8.3-18.1-18.3-18.1z" class="st3"/><path id="Fill-45" d="M99.3 14c-3.1 0-5.7-2.6-5.7-5.7s2.6-5.7 5.7-5.7 5.7 2.6 5.7 5.7-2.5 5.7-5.7 5.7zm0-15.1c-5.2 0-9.4 4.2-9.4 9.4s4.2 9.4 9.4 9.4 9.4-4.2 9.4-9.4-4.3-9.4-9.4-9.4z" class="st3"/><path id="Fill-46" d="M17.9 22.8c-8 0-14.5-6.5-14.5-14.5S9.9-6.2 17.9-6.2 32.4.3 32.4 8.3c0 7.9-6.5 14.5-14.5 14.5zm0-32.6C8-9.8-.2-1.7-.2 8.3S8 26.4 18 26.4s18.2-8.1 18.2-18.2-8.3-18-18.3-18z" class="st6"/><path id="Fill-46_1_" d="M99.1 22.8c-8 0-14.5-6.5-14.5-14.5S91.2-6.2 99.1-6.2 113.6.3 113.6 8.3c0 7.9-6.5 14.5-14.5 14.5zm0-32.6C89.1-9.8 81-1.7 81 8.3s8.1 18.2 18.2 18.2 18.2-8.1 18.2-18.2-8.3-18.1-18.3-18.1z" class="st6"/><path id="Fill-47" d="M17.9 14c-3.1 0-5.7-2.6-5.7-5.7s2.6-5.7 5.7-5.7 5.7 2.6 5.7 5.7S21 14 17.9 14zm0-15.1c-5.2 0-9.4 4.2-9.4 9.4s4.2 9.4 9.4 9.4 9.4-4.2 9.4-9.4-4.2-9.4-9.4-9.4z" class="st3"/><path id="Fill-48" d="M57.9-.3c-1 0-1.9.8-1.9 1.9v5.1c0 1 .8 1.9 1.9 1.9 1 0 1.9-.8 1.9-1.9V1.5c-.1-1-.9-1.8-1.9-1.8" class="st3"/><path id="Fill-49" d="M65.2-.3c-1 0-1.9.8-1.9 1.9v5.1c0 1 .8 1.9 1.9 1.9 1 0 1.9-.8 1.9-1.9V1.5c0-1-.9-1.8-1.9-1.8" class="st3"/></g></g></g></g></g><g id="Ebene_5" class="st0"><g id="assets_5_" class="st1"><g id="bike-_x2F_-scooter"><g id="icon_5_"><circle id="green_5_" cx="69.9" cy="36.1" r="76.1" class="st2"/><g id="scooter" transform="translate(15 40.128)"><path id="Fill-35" d="M13.9 31.9c-7.2 0-13-5.8-13-13s5.8-13 13-13 13 5.8 13 13-5.9 13-13 13zm0-29.9C4.6 2-3 9.6-3 18.9s7.6 16.9 16.9 16.9 16.9-7.6 16.9-16.9C30.9 9.6 23.3 2 13.9 2z" class="st6"/><path id="Fill-36" d="M13.9 23.9C11.2 23.9 9 21.7 9 19s2.2-4.9 4.9-4.9 4.9 2.2 4.9 4.9-2.1 4.9-4.9 4.9zm0-13.8C9 10.1 5 14.1 5 19s4 9 8.9 9 8.9-4 8.9-8.9-4-9-8.9-9z" class="st3"/><path id="Fill-37" d="M100.3 31.9c-7.2 0-13-5.8-13-13s5.8-13 13-13 13 5.8 13 13-5.8 13-13 13zm0-29.9C91 2 83.4 9.6 83.4 18.9s7.6 16.9 16.9 16.9 16.9-7.6 16.9-16.9c.1-9.3-7.5-16.9-16.9-16.9z" class="st6"/><path id="Fill-38" d="M100.3 23.9c-2.7 0-4.9-2.2-4.9-4.9s2.2-4.9 4.9-4.9 4.9 2.2 4.9 4.9-2.1 4.9-4.9 4.9zm0-13.8c-4.9 0-8.9 4-8.9 8.9s4 8.9 8.9 8.9 8.9-4 8.9-8.9-4-8.9-8.9-8.9z" class="st3"/><path id="Fill-39" d="M76.6 11.3h-4.4C74.1 7.5 77.5.5 79.9-4.2c.3-.4.3-1 .2-1.5-2.9-9.4-4.7-15.1-6.3-19.7h3.8c6.4 3.8 11 8.2 14.3 12.1h-6.5c-1.1 0-2 .9-2 2s.9 2 2 2H95c.9 1.3 1.6 2.4 2.1 3.4-9.7 1.4-17.6 8.2-20.5 17.2zm-1.2 9.9H44.7L35.8 1.7c-.2-.4-.4-.7-.8-.9l-8.6-5.4H46l1.8 3.9h-3.1c-1.1 0-2 .9-2 2s.9 2 2 2h4.9l1.9 4h-3.7c-1.1 0-2 .9-2 2s.9 2 2 2h5.5l1.3 2.8c.4.7 1.1 1.2 1.8 1.2h19.1c-.2 1.2-.3 2.4-.3 3.6.1.8.2 1.6.2 2.3zM4.7-15.6c.3-2.9 2.6-5.1 5.5-5.1l33.3 4.8h.3c2.9 0 5.2 2.1 5.5 4.8L47-8.7H8.7l-4-6.9zM82-33.8l-4.5 4.6h-5.1L69-39.8c8.3 1.1 11.8 4.3 13 6zM100.3-2c.7 0 1.3-.4 1.7-.9.4-.5.4-1.3.2-1.9-.3-.5-5.7-13.2-20.8-22.8l4.5-4.6c.5-.5.7-1.3.4-2.1-.1-.4-3.5-8.9-20-9.8-.6 0-1.3.3-1.7.8-.4.5-.5 1.3-.4 1.9l1.7 5.3h-6c-1.1 0-2 .9-2 2s.9 2 2 2h7.3S73-14.4 75.9-5.2C73.1.3 69.1 8.4 67.7 11.4h-10L49.8-5.8l3-3c.4-.4.5-.9.5-1.4 0-5.3-4.2-9.6-9.5-9.7l-33.3-4.7h-.3c-5.3 0-9.7 4.3-9.7 9.7 0 .4.1.7.3 1l1.5 2.7-9.2 9.5c-.7.6-.6 1.9.2 2.7.4.4.9.5 1.3.5.5 0 1.1-.2 1.4-.6l8.3-8.7 1.3 2.2c.4.6 1 1 1.8 1h11.4l13.6 8.4L41.7 24c.4.7 1.1 1.2 1.8 1.2h34.3c.6 0 1.2-.3 1.5-.7.4-.4.5-1.1.4-1.6-.3-1.3-.4-2.6-.4-3.8 0-1.6.2-3.2.5-4.8C82.1 4.9 90.5-2 100.3-2z" class="st3"/></g></g></g></g></g><g id="Ebene_6" class="st0"><g id="assets_6_" class="st1"><g id="bike-_x2F_-track_1_"><g id="icon_6_"><circle id="green_6_" cx="69.9" cy="36.1" r="76.1" class="st2"/><g id="track_1_" transform="translate(15 42.866)"><path id="Fill-9_1_" d="M97.8 26.9c-8.7 0-15.7-7.1-15.7-15.7s7-15.8 15.7-15.8 15.7 7.1 15.7 15.7-7 15.8-15.7 15.8zm0-35.4C87-8.5 78.1.3 78.1 11.1S87 30.8 97.8 30.8s19.7-8.9 19.7-19.7-8.8-19.6-19.7-19.6z" class="st6"/><path id="Fill-10_1_" d="M97.8 17.4c-3.4 0-6.2-2.8-6.2-6.2S94.4 5 97.8 5c3.4 0 6.2 2.8 6.2 6.2s-2.7 6.2-6.2 6.2zm0-16.5c-5.6 0-10.2 4.6-10.2 10.2s4.6 10.2 10.2 10.2S108 16.7 108 11.1 103.4.9 97.8.9z" class="st3"/><path id="Fill-11_1_" d="M16.1 26.9C7.4 26.9.4 19.8.4 11.2s7-15.7 15.7-15.7 15.7 7.1 15.7 15.7-7 15.7-15.7 15.7zm0-35.4C5.3-8.5-3.6.3-3.6 11.1s8.9 19.7 19.7 19.7S35.8 22 35.8 11.1 27-8.5 16.1-8.5z" class="st6"/><path id="Fill-12_1_" d="M16.1 17.4c-3.4 0-6.2-2.8-6.2-6.2S12.7 5 16.1 5s6.2 2.8 6.2 6.2-2.8 6.2-6.2 6.2zm0-16.5C10.5.9 5.9 5.6 5.9 11.1s4.6 10.2 10.2 10.2 10.2-4.6 10.2-10.2S21.8.9 16.1.9z" class="st3"/><path id="Fill-13_1_" d="M49.1 18.3 38.6-8.6c-.2-.4-.5-.9-1-1.1L3.4-25.5l-5.8-11.2c2.6.3 4.7 1.7 6.1 4.4.3.5.8.9 1.4 1l17.3 2.6 3.9 7.1c.3.4.7.8 1.2.9l35.7 10.6c.4.1.9.1 1.3 0l16.7-6.3-1.5 6.7c-2.6 2.3-4.7 5-6.4 8H53c-1.1 0-2 .9-2 2s.9 2 2 2h18.7c-.6 1.9-1.1 3.8-1.3 5.9h-9c-1.1 0-2 .9-2 2s.9 2 2 2h8.9c.1 2.1.4 4.1.9 6.1H49.1zm2.3-38.9c.7-2.9 3.8-7.3 9.6-7.3.5 0 1.2 0 1.7.1l9.9 2.3 7.2 5.4L63.7-14l-13-3.8.7-2.8zM83-34.1l6.9-5.7c3.2 1.7 12.9 7.3 16.6 16.6-3.2 4.1-5.3 6.2-6 6.8-1-.1-1.9-.2-2.8-.2-4.7 0-9.2 1.2-13.3 3.4L87.8-28c.2-.6-.1-1.3-.5-1.8L83-34.1zm-8.8 45.2c0-3.5.8-7 2.2-10C77.9-2 80-4.8 82.8-7c4.2-3.5 9.6-5.5 15.1-5.5.9 0 1.8.1 2.8.2.3 0 .5 0 .8-.1l.6-.2c.3-.1.4-.2.6-.4.1-.1 2.9-2.2 7.8-8.8.4-.5.5-1.3.3-1.9-4.7-13.5-19.6-20.2-20.2-20.5-.7-.3-1.5-.2-2.1.3L78.9-36c-.4.4-.7.9-.7 1.4s.2 1.1.5 1.5l5 5.2-1 4.9-8-5.9c-.2-.2-.4-.3-.7-.4l-10.4-2.4h-.2c-.8-.1-1.6-.2-2.4-.2-7.2 0-12.3 5.4-13.5 10.4l-.6 2.4-17.4-5.2-4-7.2c-.3-.5-.8-.9-1.4-1L6.6-35c-3.1-4.9-7.4-5.6-9.8-5.6-1.7 0-2.9.4-3 .4-.5.2-1 .6-1.3 1.2-.3.5-.2 1.2.1 1.7L.3-23c.2.4.5.7.9.9L35.1-6.4 45.8 21c.3.8 1.1 1.3 1.9 1.3h26.1c.6 0 1.3-.4 1.6-.9s.4-1.3.2-1.9c-.9-2.6-1.4-5.5-1.4-8.4z" class="st3"/></g></g></g></g></g><g id="Ebene_15"><g id="assets_13_"><g id="tyre-_x2F_-4x4"><g id="nav_bar_4x4" transform="matrix(-1 0 0 1 126 38.5)"><path id="Shape_15_" d="M115-27h-6.4v-6.4c0-1.2-1-2.1-2.1-2.1H45.1c-.9 0-1.6.5-2 1.3l-8 19.9H-3.6c-1.2 0-2.1 1-2.1 2.1v28.5c0 1.2 1 2.1 2.1 2.1h5.3c1.2 0 2.1-1 2.1-2.1 0-8.1 6.6-13.8 14.9-13.8S33.5 9 33.5 16.4c0 2 1 2.1 2.1 2.1h32.8c1.2 0 2.1-1 2.1-2.1 0-8.1 6.6-13.8 14.9-13.8 8.1 0 14.9 5.5 14.9 13.8 0 1.2 1 2.1 2.1 2.1h8.5c1.2 0 2.1-1 2.1-2.1V6.9c0-1.2-1-2.1-2.1-2.1h-2.1V.6h6.4c1.2 0 2.1-1 2.1-2.1v-23.3c-.1-1.2-1.1-2.2-2.3-2.2zm-40.2-4.2h29.6v16.9H74.8v-16.9zm-28.2 0h24v16.9H39.8l6.8-16.9zm57.7 45.5c-1.1-9.5-9.1-15.8-18.9-15.8s-17.9 6.4-19 15.8H37.6c-1.1-9.5-9.1-15.8-19-15.8S.8 4.8-.3 14.3h-1.2V-1.6H.6c1.2 0 2.1-1 2.1-2.1S1.7-5.8.6-5.8h-2.1V-10h105.8v4.2h-2.1c-1.2 0-2.1 1-2.1 2.1s1 2.1 2.1 2.1h2.1v8.5c0 1.2 1 2.1 2.1 2.1h2.1v5.3h-4.2zm8.6-18h-4.2v-19.1h4.2v19.1z" class="st7"/><g id="tyre-1_6_" transform="translate(73.5 40.5)"><circle id="Oval_9_" cx="11.7" cy="-20.6" r="11.3" class="st8"/><circle id="Oval-2_15_" cx="11.7" cy="-20.6" r="2.9"/></g><g id="tyre-2_6_" transform="translate(10 40.5)"><circle id="Oval_8_" cx="8" cy="-20.6" r="11.3" class="st8"/><circle id="Oval-2_14_" cx="8" cy="-20.6" r="2.9"/></g></g></g></g></g><g id="Ebene_8" class="st0"><g id="assets_12_" class="st1"><g id="tyre-_x2F_-all-terrain"><g id="nav_bar_suv" transform="matrix(-1 0 0 1 130 42)"><path id="Shape_14_" d="M118.7-3.7v-9.7c0-.1-.1-.4-.1-.6s-.1-.3-.2-.4c0-.1-8.2-12.4-8.2-12.4-.3-.4-.8-.8-1.3-.9-51.2-8.6-64.2 0-64.9.4L28-15.4l-25.9 2c-.7.1-1.3.5-1.7 1.3-.2.4-4.6 9.9-.1 25.9.3.9 1.1 1.5 2 1.5h6.1c1.2 0 2.1-.9 2.1-2.1 0-7.9 6.4-14.3 14.3-14.3S39 5.3 39 13.2c0 1.2.9 2.1 2.1 2.1h36.8c1.2 0 2.1-.9 2.1-2.1 0-7.9 6.4-14.3 14.3-14.3s14.3 6.4 14.3 14.3c0 1.2.9 2.1 2.1 2.1h6.1c.7 0 1.4-.4 1.8-1.1 4.3-8 1-15.9.1-17.9zm-11.5-20.1 5.5 8.3H91.2l-6.4-11.2c6.5.6 13.8 1.5 22.4 2.9zm-39.6-3.5c3.6-.1 7.7 0 12.4.4 0 .1.1.3.1.4l6.4 11.3h-19c.1-.1.1-12.1.1-12.1zm-21.3 3.4c.1-.1 4.4-2.7 17.3-3.3v11.8H34.9l11.4-8.5zm69 35h-3c-1-9.2-8.9-16.4-18.3-16.4S76.9 1.9 75.9 11.1H43C42 1.9 34.2-5.2 24.7-5.2S7.4 1.9 6.5 11.1H3.9C2.7 6.3 2.4 2.2 2.5-1.1h1.9c1.2 0 2.1-.9 2.1-2.1s-.9-2-2.1-2H2.8c.3-1.9.6-3.3.9-4.2l25.1-2h85.7v4.1h-2.1c-1.2 0-2.1.9-2.1 2.1s.9 2.1 2.1 2.1h2.1c0 .4.1.7.3 1 .2.2 3.6 6.5.5 13.2z" class="st7"/><g id="tyre-1_5_" transform="translate(82.5 33.86)"><circle id="Oval_7_" cx="11.6" cy="-19.6" r="9.8" class="st8"/><circle id="Oval-2_13_" cx="11.6" cy="-19.6" r="2.5"/></g><g id="tyre-2_5_" transform="translate(14 33.86)"><circle id="Oval_6_" cx="10.2" cy="-19.6" r="9.8" class="st8"/><circle id="Oval-2_12_" cx="10.2" cy="-19.6" r="2.5"/></g></g></g></g></g><g id="Ebene_13" class="st0"><g id="assets_11_" class="st1"><g id="tyre-_x2F_-auto"><g id="passenger" transform="matrix(-1 0 0 1 130 42)"><g id="tyre-1_4_" transform="translate(82 33)"><circle id="Oval_5_" cx="12.7" cy="-20.6" r="9.9" class="st8"/><circle id="Oval-2_11_" cx="12.7" cy="-20.6" r="2.6"/></g><g id="tyre-2_4_" transform="translate(14 33)"><circle id="Oval_4_" cx="10.4" cy="-20.6" r="9.9" class="st8"/><circle id="Oval-2_10_" cx="10.4" cy="-20.6" r="2.6"/></g><path id="Shape_13_" d="M119.6 3V-9.3c0-.9-.5-1.7-1.4-2l-11.6-3.8c-4.4-7.4-10.4-14.4-23.6-16.7h-.1C58.4-35.2 40-29.7 28.2-15.3 14.4-15.2.4-10.9.4-3v6C-.8 3-1.7 4-1.7 5.1v8.2c0 1.2.9 2.1 2.1 2.1h8.2c1.2 0 2.1-.9 2.1-2.1 0-8 6.4-14.4 14.4-14.4s14.4 6.4 14.4 14.4c0 1.2.9 2.1 2.1 2.1h37c1.2 0 2.1-.9 2.1-2.1 0-8 6.4-14.4 14.4-14.4s14.4 6.4 14.4 14.4c0 1.2.9 2.1 2.1 2.1h8.2c1.2 0 2.1-.9 2.1-2.1V5.1c-.3-1.1-1.3-2.1-2.3-2.1zM92.9-23.9c3.6 2.1 6.3 5.1 8.5 8.5h-8.6l.1-8.5zm-24.7-4.8c4.4-.1 9 .3 14 .9 2.5.4 4.7 1.1 6.6 1.8l-.2 10.6H68.1l.1-13.3zm-4.1.1v13.1H33.7c7.6-7.8 17.7-12.1 30.4-13.1zm53.4 39.8h-4.2C112.3 2 104.4-5.3 95-5.3S77.6 1.9 76.6 11.2H43.5C42.3 2 34.6-5.1 25-5.1S7.6 2 6.6 11.3H2.4V7.2c1.2 0 2.1-.9 2.1-2.1V-1h2.1c1.2 0 2.1-.9 2.1-2.1s-1-2-2.2-2h-1c2.8-3 11.3-6.2 23.6-6.2h75.7l10.6 3.6v2.6h-2.1c-1.2 0-2.1.9-2.1 2.1s.9 2.1 2.1 2.1h2.1v6.2c0 1.2.9 2.1 2.1 2.1v3.8z" class="st7"/></g></g></g></g><g id="Ebene_14" class="st0"><g id="assets_10_" class="st1"><g id="tyre-_x2F_-light-truck"><g id="light-truck_1_" transform="matrix(-1 0 0 1 125 34)"><g id="tyre-2_3_" transform="translate(12 49)"><path id="Shape_12_" d="M9.1-31.8c-6.6 0-12 5.4-12 12S2.4-7.9 9.1-7.9s12-5.4 12-12-5.4-11.9-12-11.9zm0 19.9c-4.4 0-8-3.6-8-8s3.6-8 8-8 8 3.6 8 8-3.7 8-8 8z" class="st6"/><circle id="Oval-2_9_" cx="9.1" cy="-19.8" r="2.7"/></g><g id="tyre-1_3_" transform="translate(74 49)"><path id="Shape_11_" d="M13.9-31.8c-6.6 0-12 5.4-12 12s5.4 12 12 12 12-5.4 12-12-5.4-12-12-12zm0 19.9c-4.4 0-8-3.6-8-8s3.6-8 8-8 8 3.6 8 8-3.6 8-8 8z" class="st6"/><circle id="Oval-2_8_" cx="13.9" cy="-19.8" r="2.7"/></g><path id="Shape_10_" d="M112.8 11.2h-2v-45.9c0-1.1-.9-2-2-2H47c-4.4 0-8 3.6-8 8v41.9h-4v-29.9c0-1.1-.9-2-2-2H9c-.6 0-1.3.4-1.7.9L-4.5.1c-.3.4-.4.7-.4 1.1v21.9c0 1.1.9 2 2 2h6c.8 0 1.6-.5 1.9-1.3 2.2-6.4 8.3-10.6 15-10.6 4.2 0 9.2 1.5 11.7 3.6.4.3.8.4 1.3.4h6v6c0 1.1.9 2 2 2h30c.8 0 1.6-.5 1.9-1.3 2.2-6.4 8.3-10.6 15-10.6s12.7 4.2 15 10.6c.3.8 1 1.4 1.9 1.4h8c1.1 0 2-.9 2-2v-9.9c0-1.3-.9-2.2-2-2.2zm-102.7-26H23v14H.8l9.3-14zM31 11.6c-3.6-1.7-7.9-2.4-11-2.4-8 0-15.1 4.8-18.3 11.9H-.9v-9.9h2c1.1 0 2-.9 2-2s-.9-2-2-2h-2v-4H25c1.1 0 2-.9 2-2v-16h4v26.4zm79.8 9.5h-4.7C103 14 95.9 9.2 87.9 9.2s-15.1 4.7-18.3 12H43v-49.8c0-2.2 1.8-4 4-4h59.9V3.2h-2c-1.1 0-2 .9-2 2s.9 2 2 2h2v6c0 1.1.9 2 2 2h2c-.1-.1-.1 5.9-.1 5.9z" class="st7"/></g></g></g></g><g id="Ebene_9" class="st0"><g id="assets_9_" class="st1"><g id="tyre-_x2F_-motorbike"><g id="motorbike---edit---fixed" transform="translate(25.5 39)"><path id="Shape_9_" d="M76.7-3.7c3.2-1.1 6.6-1.6 10-1.3 2 .2 3.4-1.3 3.5-3.2l-.1-5.9c-.2-1-5.2-24.4-27.6-27.6-2.1-.4-4.5 1.9-3.4 4.5.5 1.3 1.1 2.7 1.6 4.2l-5.3-3c-1.5-.9-3.5-.4-4.4 1.3-.9 1.5-.4 3.5 1.3 4.4l10.8 6.1c.4 1.8.5 3.6.5 5.1-3-1.3-7.4-2.4-12.3-1.5-5 .9-9.5 3.8-13.2 8.5-8.6-4.1-36.7-15.7-49.4-.1-.4.5-.7 1.3-.7 2.1v8.5C-12 .7-9.3 2.7-6.9 1c4-3 8.7-4.5 13.6-4.5 5.2 0 10 1.8 13.9 4.7l4.6 4.6c3 3.8 4.7 8.7 4.7 14 0 1.8 1.4 3.2 3.2 3.2h23.6c1.8 0 3.2-1.4 3.2-3.2 0-8.5 4.3-16 10.8-20.4l6-3.1zM53.8 16.4H36.3C34.7 1.6 22.2-10 6.9-10c-4.3 0-8.5.9-12.4 2.7v-1.6C6.6-21.6 37.4-5.4 37.7-5.2c1.4.8 3.3.4 4.2-1.1 3-4.6 6.6-7.2 10.6-8.1 6.2-1.2 11.6 2.6 11.6 2.6 1.4 1.1 3.8.7 4.8-1.3 2.5-5.5.3-14.8-1.7-20.8 12.3 4.9 16 18.5 16.5 20.8v1.6C68.2-11 55.5 1.1 53.8 16.4z" class="st9"/><circle id="Oval_3_" cx="6.9" cy="19.7" r="15.5" class="st10"/><circle id="Oval_2_" cx="85.2" cy="19.7" r="15.5" class="st10"/><circle id="Oval-3" cx="6.9" cy="19.7" r="3.8"/><circle id="Oval-3_1_" cx="85.2" cy="19.7" r="3.8"/></g></g></g></g><g id="Ebene_10" class="st0"><g id="assets_8_" class="st1"><g id="tyre-_x2F_-racing"><g id="race-car" transform="translate(10 45)"><path id="Shape_8_" d="M37.3 5.2h32.1c3.4 0 6.6-1.8 8.4-4.7l3.4-5.8c.5-.9.3-2.1-.6-2.6-.9-.5-2.1-.3-2.6.6l-3.5 5.8c-1.1 1.8-3 2.9-5.1 2.9H37.3c-1.1 0-1.9.9-1.9 1.9s.8 1.9 1.9 1.9z" class="st7"/><path id="Shape_7_" d="M120 9V3.2c0-11.6-9.5-21.1-21.1-21.1H88.2c-3-2.3-15.1-11.5-22-11.5h-13c-2.7 0-5.3.4-7.8 1.2-.1 0-.1 0-.2.1L27.6-21c-2.7.8-5.5 1.3-8.2 1.3H13c-.1-.2-.2-.4-.4-.5l-1.9-1.9c2.1-.9 3.5-3 3.5-5.3v-1.9c0-1.1-.8-2-1.9-2H.8c-1.1 0-1.9.9-1.9 1.9v1.9c0 3.2 2.6 5.8 5.8 5.8h1.1l1.9 1.9H6.1c-3 0-5.3 2.4-5.3 5.3V1.3c0 4.5 3.2 8.2 8.1 9.6 2.4 3.5 6.5 5.8 11.1 5.8 3.7 0 7-1.4 9.4-3.8h60c2.4 2.4 5.7 3.8 9.4 3.8s7-1.4 9.4-3.8h11.5c1.1 0 1.9-.9 1.9-1.9.1-1-.6-1.8-1.6-2zM2.7-27.5h7.7c0 1.1-.9 1.9-2 1.9H4.6c-1 0-1.8-.8-1.9-1.9zm81.9 11.7c-.9.6-1.5 1.3-2 1.8l-36.3-3.6c1.7-3 5.2-8 10.3-8h9.7c4.4 0 13.4 6.1 18.3 9.8zM4.7 1.3v-15.8c0-.8.6-1.4 1.4-1.4h13.2c3.2 0 6.4-.4 9.4-1.4.1 0 .1 0 .2-.1l17.6-7.1c-.4.5-1 1.1-1.4 1.7-2.3 3-3.6 6.1-3.6 6.3-.2.5-.2 1.2.2 1.7s.9.8 1.4.9l40.2 3.8h.2c.7 0 1.3-.4 1.7-1 .2-.3 1.8-2.9 6-2.9h7.7c9.6 0 17.3 7.8 17.3 17.3V9H111c.8-1.8 1.3-3.7 1.3-5.7 0-7.4-6-13.4-13.4-13.4s-13.4 6-13.4 13.4c0 2.1.4 4 1.3 5.7H32.2c.8-1.8 1.3-3.7 1.3-5.7 0-7.4-6-13.4-13.4-13.4S6.7-4.1 6.7 3.3c0 .8.1 1.6.2 2.3-1.4-1-2.2-2.6-2.2-4.3zm5.7 2c0-5.3 4.3-9.6 9.6-9.6s9.6 4.3 9.6 9.6-4.3 9.6-9.6 9.6-9.6-4.3-9.6-9.6zm88.5 9.6c-5.3 0-9.6-4.3-9.6-9.6s4.3-9.6 9.6-9.6 9.6 4.3 9.6 9.6-4.4 9.6-9.6 9.6z" class="st7"/><g id="tyre-1_2_" transform="translate(82 18.6)"><circle id="Oval-4" cx="17" cy="-15.1" r="15.8" class="st11"/><g id="Oval-4_1_"><g><circle id="path-1" cx="17" cy="-15.1" r="13.3" class="st11"/></g><circle cx="17" cy="-15.1" r="11.8" class="st10"/></g><circle id="Oval-2_7_" cx="17" cy="-15.1" r="2.6"/></g><g id="tyre-2_2_" transform="translate(7 18.6)"><circle id="Oval-4_2_" cx="15.2" cy="-15.1" r="15.8" class="st11"/><g id="Oval-4_3_"><g><circle id="path-2" cx="15.2" cy="-15.1" r="13.3" class="st11"/></g><circle cx="15.2" cy="-15.1" r="11.8" class="st10"/></g><circle id="Oval-2_6_" cx="15.2" cy="-15.1" r="2.6"/></g></g></g></g></g><g id="Ebene_11" class="st0"><g id="assets_7_" class="st1"><g id="tyre-_x2F_-tractor"><g id="tractor" transform="translate(25 36)"><g id="tyre-2_1_" transform="translate(2 34)"><path id="Shape_6_" d="M32.4-14.1c0-10.2-8.3-18.5-18.5-18.5S-4.7-24.3-4.7-14.1 3.7 4.4 13.9 4.4c10.2 0 18.5-8.3 18.5-18.5zm-33.7 0c0-8.3 6.8-15.2 15.2-15.2s15.2 6.8 15.2 15.2S22.3 1.1 13.9 1.1-1.3-5.8-1.3-14.1z" class="st12"/><circle id="Oval-2_5_" cx="13.9" cy="-14.1" r="2.8"/></g><g id="tyre-1_1_" transform="translate(62.5 46)"><circle id="Oval-2_4_" cx="14.6" cy="-19.4" r="2.8"/><path id="Shape_5_" d="M14.6-7.6c6.5 0 11.8-5.3 11.8-11.8s-5.3-11.8-11.8-11.8S2.8-25.9 2.8-19.4 8.1-7.6 14.6-7.6zm0-20.2c4.7 0 8.4 3.8 8.4 8.4S19.2-11 14.6-11c-4.7 0-8.4-3.8-8.4-8.4s3.7-8.4 8.4-8.4z" class="st12"/></g><path id="Shape_4_" d="M86.6-7.6h-5V-16c0-.9-.7-1.7-1.7-1.7-.9 0-1.7.7-1.7 1.7v8.4H60.9l-9.7-29.2c-.3-.7-.9-1.2-1.6-1.2H15.9c-.8 0-1.5.6-1.7 1.4L10.9-13c-.1.9.5 1.8 1.4 1.9.9.1 1.8-.5 1.9-1.4l3.1-22.2h7.3l6.4 29c.2.8.9 1.3 1.6 1.3h54c2.5 0 4.2 1.3 4.8 3.4H76.5c-.9 0-1.7.7-1.7 1.7s.7 1.7 1.7 1.7h15.2v3.4H76.5c-.9 0-1.7.7-1.7 1.7 0 .9.7 1.7 1.7 1.7h15.2v15.2c0 .9.7 1.7 1.7 1.7s1.7-.7 1.7-1.7V.8c0-5-3.4-8.4-8.5-8.4zm-36 0 2.1-4.3c.4-.8.1-1.9-.7-2.2-.8-.4-1.9-.1-2.2.7l-2.9 5.8H34l-6-26.9h20.3l8.9 26.9h-6.6z"/><path id="Shape_3_" d="M59.7-.9c-.9 0-1.7.7-1.7 1.7v21.9H41.1v-5.1c0-4.6-1.3-9.1-3.6-13.1C32.9-3.1 24.8-7.6 15.9-7.6S-1.2-3.1-5.8 4.6c-.4.8-.3 1.8.5 2.3.8.4 1.8.2 2.3-.5C1-.3 8-4.2 15.8-4.2S30.6-.3 34.7 6.4c2.1 3.4 3.1 7.3 3.1 11.3v6.7c0 .9.7 1.7 1.7 1.7h20.2c.9 0 1.7-.7 1.7-1.7V.8c0-.9-.8-1.7-1.7-1.7z"/></g></g></g></g><g id="Ebene_12" class="st0"><g id="assets" class="st1"><g id="tyre-_x2F_-truck"><g id="version-0.2" transform="translate(19 42)"><g id="light-truck" transform="matrix(-1 0 0 1 106 0)"><g id="tyre-2" transform="translate(11.2 33)"><path id="Shape" d="M9.3-32.1c-6.9 0-12.5 5.6-12.5 12.5S2.4-7.1 9.3-7.1s12.5-5.6 12.5-12.5-5.6-12.5-12.5-12.5zm0 20.9C4.8-11.2 1-15 1-19.6s3.8-8.3 8.3-8.3 8.3 3.8 8.3 8.3-3.6 8.4-8.3 8.4z" class="st6"/><circle id="Oval-2_3_" cx="9.3" cy="-19.6" r="2.9"/></g><g id="tyre-1" transform="translate(73 33)"><path id="Shape_1_" d="M17.3-32.1c-6.9 0-12.5 5.6-12.5 12.5S10.4-7.1 17.3-7.1s12.5-5.6 12.5-12.5-5.6-12.5-12.5-12.5zm0 20.9c-4.7 0-8.4-3.8-8.4-8.4s3.8-8.3 8.3-8.3 8.3 3.8 8.3 8.3-3.6 8.4-8.2 8.4z" class="st6"/><circle id="Oval-2_2_" cx="17.3" cy="-19.6" r="2.9"/></g><path id="Shape_2_" d="M36.1-3.3v-31.3c0-1.2-.9-2.1-2.1-2.1H11.2c-.7 0-1.3.4-1.7.9L7.3-17c-.4.3-13 .7-13 1.2v23c0 1.2.9 2.1 2.1 2.1h6.3c.9 0 1.7-.5 2-1.4C6.9 1.2 13.3-3.3 20.3-3.3c4.4 0 9.7 1.5 12.3 3.7.4.3 2.8.1 3.2.1l.3-3.8zM13.4-32.5h10.1v14.6H11.7l1.7-14.6zM31.9-5c-3.7-1.7-8.2-2.6-11.5-2.6C12-7.6 4.5-2.5 1.2 5h-2.8V-5.4H.5c1.2 0 2.1-.9 2.1-2.1s-.8-2.1-2-2.1h-2.1v-1.9l27.1-2.2c1.2 0 2.1-.9 2.1-2.1v-16.7h4.2V-5z" class="st13"/></g><path id="Path-2" d="M103.7 13.3h5.7" class="st14"/><path id="Path-3" d="M3.4-1.4H-8.9v14.6h5.6C-3.3 5.7 3.1-5.5 16-5.5s18.9 9.8 18.9 18.7h32.5" class="st14"/><path id="Path-2_1_" d="M28.6-1.3h43.3" class="st14"/></g></g></g></g></g><g id="Ebene_2_1_" class="st0"><path d="m13 83.9 117.8-.1M13 76.9l117.8-.1" class="st15"/></g><g id="Ebene_3_1_"><path d="m11 79.9 117.8-.1M23 85.8h4.3M16.7 73.2l2.3 1.5M55.5 74.7l2-1.7M6.2 73.9 3 71.7M91.7 75l3.5-2.2M82.3 72.8l-4.5 4M65.2 85.8l-3 1.5M50 86.6l-4-3.3M116.3 84.2l-4 2.4" class="st16"/><path d="m125.3 73.9 3.9-.1M11.3 86.6l-6.7-5.1M87.3 86.6l3.5-1.6M65.8 73.9l4.2 1.6" class="st17"/></g></svg>