<svg xmlns="http://www.w3.org/2000/svg" width="630" height="632" version="1.2" viewBox="0 0 472.5 474"><defs><clipPath id="clip1"><path d="M0 .25h472v473.5H0Zm0 0"/></clipPath><clipPath id="clip2"><path d="M9 48h462v425.75H9Zm0 0"/></clipPath><clipPath id="clip3"><path d="M18.516 128.383h217.5v217.5h-217.5Zm0 0"/></clipPath></defs><g id="surface1"><g clip-path="url(#clip1)" clip-rule="nonzero"><path d="M0 .25h472.5V955H0Zm0 0" style="stroke:none;fill-rule:nonzero;fill:#fff;fill-opacity:1"/><path d="M0 .25h472.5v474H0Zm0 0" style="stroke:none;fill-rule:nonzero;fill:#fff;fill-opacity:1"/><path d="M0 .25h472.5v474H0Zm0 0" style="stroke:none;fill-rule:nonzero;fill:#fff;fill-opacity:1"/></g><path d="M16.945 329.094s.36 0 0 0c69.754-2.16 131.957-37.086 177.621-88.578 31.641-35.645 41.711-83.895 69.036-122.063 26.609-37.09 76.226-68.055 136.273-84.617 3.957-1.082 6.113-5.043 5.035-9.004-1.078-3.96-5.035-6.121-8.988-5.039-37.395 10.082-105.711 35.645-144.184 90.016-26.968 37.808-37.035 86.058-67.957 120.984-42.43 47.89-102.476 80.656-167.195 83.898-3.957.36-7.191 3.602-6.832 7.563.36 3.96 3.234 6.84 7.191 6.84ZM455.969 36.355c.719 0 1.797 0 2.515-.359 2.157-.723 4.313-1.8 6.473-2.523 3.594-1.438 5.754-5.399 4.313-9-1.438-3.602-5.391-5.762-8.989-4.32-2.156.718-4.672 1.8-6.832 2.519-3.594 1.441-5.75 5.402-4.312 9.363 1.437 2.52 3.953 4.32 6.832 4.32ZM300.637 189.387c3.238 0 6.113-2.16 6.832-5.403 1.437-4.68 2.515-9 3.957-13.32 1.078-3.96-1.082-7.922-4.676-9.004-3.957-1.078-7.91 1.082-8.988 4.68-1.438 4.683-2.88 9.363-3.957 13.683-1.078 3.961 1.078 7.922 5.035 9.004.719.36 1.078.36 1.797.36ZM324.008 113.41c-1.438 1.8-7.192 10.082-8.63 12.242-2.155 3.243-1.077 7.922 2.517 10.082 3.238 2.16 7.91 1.082 10.07-2.52 1.437-2.16 6.473-9.362 7.55-11.163 2.516-3.239 1.798-7.559-1.437-10.082-3.238-2.16-7.55-1.797-10.07 1.441ZM290.93 216.031c-3.598-1.441-7.91.36-9.348 4.32-.36 1.083-3.957 9.723-5.394 12.965-1.438 3.598 0 7.922 3.593 9.36 3.598 1.441 7.91 0 9.352-3.602 1.437-3.238 5.031-12.242 5.39-13.32 1.801-3.961 0-8.281-3.593-9.723ZM398.797 57.598c1.797 3.242 6.473 4.324 9.707 2.523 3.957-2.523 7.91-4.684 12.226-6.844 3.594-1.8 4.676-6.12 2.875-9.722-1.796-3.598-6.109-4.68-9.707-2.88-4.316 2.16-8.628 4.68-12.586 7.204-3.593 1.8-4.671 6.121-2.515 9.719Zm0 0" style="stroke:none;fill-rule:nonzero;fill:#000;fill-opacity:1"/><path d="M365.36 72.004c-3.958 2.879-7.551 6.121-11.15 9.36-2.874 2.519-3.233 7.202-.718 10.081 2.516 2.883 7.192 3.243 10.067.723 3.238-2.883 6.832-5.762 10.789-8.645 3.234-2.52 3.593-6.84 1.078-10.082-2.516-3.238-6.832-3.597-10.067-1.437ZM79.508 387.785c-3.957.723-8.988 1.082-14.024 1.8-3.953.36-6.832 3.962-6.113 7.923.36 3.601 4.316 6.844 7.91 6.12 5.035-.718 10.07-1.44 14.024-1.8 3.957-.719 6.832-4.32 6.113-8.281 0-3.602-3.957-6.121-7.91-5.762ZM182.34 349.98c-3.953 2.52-7.91 5.04-11.863 7.2-3.598 2.16-4.676 6.48-2.516 9.722 1.797 3.243 6.469 4.68 9.707 2.52 4.312-2.52 8.27-5.04 12.586-7.563 3.234-2.16 4.312-6.48 2.156-10.082-2.156-3.238-6.832-3.96-10.07-1.797ZM133.082 374.824c-4.316 1.442-8.629 3.238-12.945 4.32-3.953 1.083-5.75 5.043-4.672 9 1.078 3.602 5.39 5.762 8.988 4.684 4.672-1.441 9.348-2.883 13.664-4.683 3.594-1.438 5.75-5.399 4.313-9.36-1.438-3.242-5.39-5.402-9.348-3.96ZM224.41 314.332c-3.234 3.238-6.472 6.48-9.707 9.723-2.879 2.879-2.879 7.199-.36 10.082 2.516 2.879 7.192 2.879 10.067.36 3.598-3.243 6.832-6.845 10.426-10.442 2.879-2.883 2.52-7.563-.36-10.082-2.874-2.524-7.19-2.524-10.066.359ZM257.488 270.402c-2.515 3.961-5.031 7.922-7.55 11.883-2.157 3.242-1.438 7.922 2.16 10.082 3.234 2.16 7.91 1.442 10.066-2.16 2.516-3.96 5.395-8.281 7.91-12.242 2.156-3.242 1.078-7.922-2.515-9.723-3.598-2.52-7.91-1.082-10.07 2.16ZM16.945 408.309h7.551c3.953 0 7.192-3.598 6.832-7.559 0-3.96-3.598-7.203-7.55-6.844h-6.833c-3.957 0-7.191 3.242-7.191 7.203 0 3.961 3.234 7.2 7.191 7.2Zm0 0" style="stroke:none;fill-rule:nonzero;fill:#000;fill-opacity:1"/><g clip-path="url(#clip2)" clip-rule="nonzero"><path d="M469.27 52.2a7.199 7.199 0 0 0-9.707-3.243C404.19 75.965 374.347 128.895 359.245 168.5c-16.539 43.21-18.34 90.02-32.36 133.95-25.89 81.738-84.859 137.546-161.804 152.671-49.258 8.281-99.238 9-148.855 10.8-3.957 0-7.192 3.602-6.832 7.563 0 3.961 3.234 6.84 7.19 6.84h.36c50.336 0 101.395-2.52 151.016-10.8 82.336-16.204 145.262-75.254 172.586-162.395 13.664-43.567 15.82-90.379 32.004-133.227 14.02-37.086 41.707-86.777 93.125-111.98 3.953-1.8 5.394-6.121 3.594-9.723Zm0 0" style="stroke:none;fill-rule:nonzero;fill:#000;fill-opacity:1"/></g><g clip-path="url(#clip3)" clip-rule="nonzero"><path d="M127.266 345.883c60.066 0 108.75-48.684 108.75-108.75 0-60.063-48.684-108.75-108.75-108.75-60.063 0-108.75 48.687-108.75 108.75 0 60.066 48.687 108.75 108.75 108.75ZM53.62 169.64l5.961 5.976 6.168-6.152-5.977-5.977c4.29-3.922 8.883-7.492 13.805-10.64l4.219 7.343 7.555-4.351-4.254-7.375c5.132-2.68 10.5-4.977 16.101-6.742l2.203 8.289 8.418-2.254-2.199-8.246c5.594-1.246 11.379-1.95 17.297-2.211v8.484h8.7v-8.484c5.913.254 11.698.957 17.304 2.21l-2.219 8.255 8.402 2.254 2.227-8.31c5.613 1.778 10.973 4.075 16.106 6.763l-4.262 7.386 7.531 4.34 4.238-7.351c4.926 3.14 9.528 6.726 13.817 10.648l-5.985 5.969 6.149 6.152 5.988-5.976a102.02 102.02 0 0 1 10.637 13.804l-7.352 4.239 4.352 7.535 7.387-4.266c2.68 5.145 4.976 10.504 6.742 16.113l-8.301 2.22 2.254 8.401 8.258-2.207c1.242 5.61 1.957 11.395 2.207 17.305h-8.48v8.7h8.48c-.25 5.913-.965 11.699-2.207 17.304l-8.258-2.226-2.254 8.402 8.3 2.234c-1.765 5.606-4.062 10.973-6.742 16.106l-7.378-4.282-4.348 7.536 7.34 4.253a100.806 100.806 0 0 1-10.637 13.81l-5.96-5.99-6.153 6.161 5.969 5.988c-4.29 3.922-8.891 7.496-13.817 10.649l-4.219-7.371-7.535 4.359 4.246 7.394c-5.132 2.68-10.5 4.97-16.113 6.743l-2.2-8.317-8.402 2.262 2.192 8.258c-5.606 1.25-11.39 1.957-17.297 2.207v-8.48h-8.7v8.48c-5.917-.25-11.702-.957-17.304-2.207l2.219-8.258-8.414-2.254-2.227 8.309c-5.61-1.774-10.969-4.07-16.101-6.758l4.261-7.387-7.535-4.351-4.246 7.351a100.49 100.49 0 0 1-13.805-10.64l5.985-5.977-6.153-6.148-5.984 5.976a101.285 101.285 0 0 1-10.64-13.8l7.351-4.235-4.348-7.543-7.398 4.262c-2.668-5.133-4.965-10.5-6.73-16.106l8.296-2.215-2.254-8.414-8.253 2.211c-1.247-5.597-1.95-11.383-2.211-17.297h8.484v-8.699h-8.484c.253-5.918.964-11.703 2.21-17.305l8.247 2.227 2.261-8.414-8.297-2.234c1.766-5.602 4.063-10.973 6.75-16.106l7.368 4.274 4.359-7.536-7.352-4.246a102.048 102.048 0 0 1 10.641-13.804Zm0 0" style="stroke:none;fill-rule:nonzero;fill:#fac200;fill-opacity:1"/></g><path d="M127.266 302.383c36.046 0 65.25-29.203 65.25-65.25 0-36.043-29.203-65.25-65.25-65.25-36.043 0-65.25 29.207-65.25 65.25 0 36.047 29.207 65.25 65.25 65.25Zm30.007-69.598a30.152 30.152 0 0 0-5.691-13.816l18.586-18.582c7.602 8.863 12.484 20.078 13.43 32.398Zm-48.171 28.664c3.976 2.977 8.671 4.953 13.816 5.692v26.316c-12.32-.937-23.535-5.828-32.398-13.434Zm22.515 5.692a30.17 30.17 0 0 0 13.817-5.692l18.574 18.586c-8.86 7.602-20.07 12.485-32.39 13.43Zm-4.351-8.258c-11.996 0-21.75-9.75-21.75-21.75 0-11.996 9.754-21.75 21.75-21.75 12 0 21.75 9.754 21.75 21.75 0 12-9.75 21.75-21.75 21.75Zm18.168-46.067c-3.977-2.972-8.676-4.949-13.817-5.687V180.8c12.32.941 23.531 5.828 32.399 13.433Zm-22.516-5.687a30.189 30.189 0 0 0-13.816 5.687L90.52 194.234a56.263 56.263 0 0 1 32.398-13.433Zm-19.969 11.84c-2.972 3.976-4.949 8.672-5.687 13.816H70.934c.941-12.32 5.828-23.535 13.433-32.398Zm-5.687 22.515a30.206 30.206 0 0 0 5.687 13.817l-18.59 18.574a56.272 56.272 0 0 1-13.425-32.39Zm72.906 32.399L151.582 255.3c2.977-3.977 4.953-8.676 5.691-13.817h26.317c-.938 12.32-5.82 23.532-13.422 32.399Zm0 0" style="stroke:none;fill-rule:nonzero;fill:#fac200;fill-opacity:1"/></g></svg>