<svg xmlns="http://www.w3.org/2000/svg" xml:space="preserve" x="0" y="0" style="enable-background:new 0 0 140 90" version="1.1" viewBox="0 0 140 90"><style type="text/css">.st0{display:none}.st1{display:inline}.st2{fill:none}.st3{fill:#464644}.st4,.st5{fill:none;stroke:#fbc300;stroke-width:5}.st5{stroke-width:4}.st6{fill:#fbc300}.st7{stroke:#fff}.st8{fill:none;stroke:#fbc300;stroke-width:2.7}.st9{stroke:#fff;stroke-width:2}.st10{fill:none;stroke:#fbc300;stroke-width:3}.st11{fill:#fff}.st12{fill:#fbc300;stroke:#fbc300}.st13,.st14{stroke:#fff;stroke-linejoin:round}.st14{fill:none;stroke:#000;stroke-width:2.5;stroke-linecap:round}</style><g id="Ebene_1" class="st0"><g id="assets_1_" class="st1"><g id="bike-_x2F_-atv"><g id="icon_1_"><circle id="green_1_" cx="70" cy="45" r="85" class="st2"/><g id="quad" transform="translate(15 39.801)"><path id="Fill-18" d="M36-.6c-1.3 0-2.3 1-2.3 2.3v6.8c0 1.3 1 2.3 2.3 2.3s2.3-1 2.3-2.3V1.7c.1-1.3-1-2.3-2.3-2.3" class="st3"/><path id="Fill-19" d="M45.3-.6C44-.6 43 .4 43 1.7v6.8c0 1.3 1 2.3 2.3 2.3s2.3-1 2.3-2.3V1.7c0-1.3-1-2.3-2.3-2.3" class="st3"/><path id="Fill-20" d="M54.6-.6c-1.3 0-2.3 1-2.3 2.3v6.8c0 1.3 1 2.3 2.3 2.3s2.3-1 2.3-2.3V1.7c0-1.3-1-2.3-2.3-2.3" class="st3"/><path id="Fill-21" d="M8.4 34.6c-4 0-7.2-3.2-7.2-7.2s3.2-7.2 7.2-7.2 7.2 3.2 7.2 7.2-3.2 7.2-7.2 7.2zm0-19c-6.5 0-11.8 5.3-11.8 11.8 0 6.5 5.3 11.8 11.8 11.8s11.8-5.3 11.8-11.8c.1-6.5-5.2-11.8-11.8-11.8z" class="st3"/><path id="Fill-22" d="M101.7 45.7c-10.1 0-18.3-8.2-18.3-18.3s8.2-18.3 18.3-18.3S120 17.3 120 27.4s-8.3 18.3-18.3 18.3zM64.3 17.3c-.4-.7-1.2-1.2-2-1.2H44.6c-.8 0-1.6.4-2 1.2L38.2 25h-7c-.8-7.1-4.7-13.2-10.4-16.8l3.4-6.8c.5-1.1.2-2.4-.8-3L-2.7-18.3v-7.2h13.6l7.6 7.3c.3.3.6.4.9.5L93.6 6c-7.9 3-13.8 10.3-14.7 19H68.8l-4.5-7.7zM8.4 45.7c-10.1 0-18.3-8.2-18.3-18.3S-1.6 9.1 8.4 9.1c10.1 0 18.3 8.2 18.3 18.3S18.5 45.7 8.4 45.7zm52-68.4c1.5 0 2.9.3 4.2.8.8.3 1.8.2 2.5-.5 2.6-2.5 5.1-4.7 6.5-5.9 2.8 1.5 9.5 5.6 14.9 13h-9.3c-1.3 0-2.3 1-2.3 2.3 0 1.3 1 2.3 2.3 2.3h12.3C93.4-7.1 95-3 95.7 1.8 87.3-.9 49.2-13 49.2-13c.8-5.5 5.5-9.7 11.2-9.7zm41.3 27.2h-.9c-.9-11-5.8-21-14-28.9-6.3-6-12.3-8.7-12.5-8.8-.8-.4-1.7-.2-2.4.3-.1.1-1.5 1.2-3.4 3l-7.6-7.8c-.5-.5-2.2-2.3-5.3-2.3h-9c-1.3 0-2.3 1-2.3 2.3 0 1.3 1 2.3 2.3 2.3h9c1.1 0 1.7.6 1.8.7 0 .1 7.7 7.9 7.7 7.9-1.5-.4-3-.6-4.5-.6-7.8 0-14.2 5.6-15.7 12.9l-23.4-7.4-7.9-7.6c-.4-.4-1-.6-1.6-.6H-5c-1.3 0-2.3 1-2.3 2.3V-17c0 .8.4 1.5 1.1 2L19.1 1.1 16.6 6c-2.5-1-5.3-1.5-8.2-1.5-12.6 0-22.9 10.3-22.9 22.9 0 12.6 10.3 22.9 22.9 22.9 11.9 0 21.7-9.1 22.8-20.7h8.3c.8 0 1.6-.4 2-1.2l4.4-7.7h15l4.4 7.7c.4.7 1.2 1.2 2 1.2h11.5c1.1 11.6 10.9 20.7 22.8 20.7 12.6 0 22.9-10.3 22.9-22.9.1-12.6-10.2-22.9-22.8-22.9z" class="st3"/><circle id="Oval-2" cx="8.2" cy="27.2" r="20.7" class="st4"/><circle id="Oval-2_1_" cx="101.8" cy="27.2" r="20.7" class="st4"/><path id="Fill-23" d="M101.7 34.6c-4 0-7.2-3.2-7.2-7.2s3.2-7.2 7.2-7.2 7.2 3.2 7.2 7.2-3.3 7.2-7.2 7.2zm0-19c-6.5 0-11.8 5.3-11.8 11.8 0 6.5 5.3 11.8 11.8 11.8 6.5 0 11.8-5.3 11.8-11.8 0-6.5-5.3-11.8-11.8-11.8z" class="st3"/></g></g></g></g></g><g id="Ebene_2" class="st0"><g id="assets_2_" class="st1"><g id="bike-_x2F_-cruiser"><g id="icon_2_"><circle id="green_2_" cx="70" cy="46" r="85" class="st2"/><g id="cruiser" transform="translate(15 49.493)"><path id="Fill-3" d="M104.7 27.5c-8.8 0-16-7.2-16-16s7.2-16 16-16 16 7.2 16 16-7.2 16-16 16zM83.3-6.4 80-9.8c-.2-4.3-3.4-8-8.4-10.4l3.5-3.4 12.5 13-4.3 4.2zM65.8 16.9H24.5c.5-1.7.7-3.5.7-5.3 0-2.8-.6-5.4-1.6-7.9h18c.6 0 1.2-.3 1.6-.8l3-3.7h26.9v5.4l-7.3 12.3zM5.2 27.5c-8.8 0-16-7.2-16-16s7.2-16 16-16 16 7.2 16 16-7.2 16-16 16zM-6.7-27.6l1.7-.6c.6-.2 1.3-.4 2-.4 2.4 0 4.5 1.5 5.3 3.7l3.9 10.6c.2.8 1 1.3 1.9 1.3h13.5l2.6 5.6c.3.7 1.1 1.2 1.8 1.2h12.6c.6 1.6 1.6 3.1 3 4.5l-1 1.3H21.3c-3.7-4.9-9.5-8.1-16.1-8.1-1.6 0-3.2.2-4.6.6l-7.3-19.7zm65.8 8.8c9.2 0 17 4.3 17 9.5 0 1.9-1 3.4-2.1 4.4H44.2c-1-1.1-2.1-2.6-2.1-4.4 0-5.1 7.8-9.5 17-9.5zm27.5-10.9H89v9.9h-2.4c-2.7 0-5-2.2-5-5 .1-2.7 2.3-4.9 5-4.9zm18.1 21.2c-4.6 0-8.9 1.6-12.3 4.2L89.8-7 92-9.1c.4-.4.6-.9.6-1.4 0-.5-.2-1.1-.6-1.4l-3.7-3.8H91c1.1 0 2-.9 2-2v-14c0-1.1-.9-2-2-2h-4.4c-4.3 0-7.9 3-8.8 7.1l-1.1-1.1c-.8-.8-2.1-.8-2.9-.1l-2.2 2.1-10.9-11.4c-.4-.5-1.5-1.5-3.7-1.5h-8.2c-1.1 0-2 .9-2 2s.9 2 2 2H57c.4 0 .6.1.7.1L68.8-23l-1.3 1.2c-2.6-.7-5.4-1.1-8.4-1.1-11.3 0-20.3 5.5-21 12.6H27.3l-2.6-5.6c-.3-.7-1.1-1.2-1.8-1.2H9.5L6-26.3c-1.4-3.8-5.1-6.4-9.1-6.4-1.2 0-2.3.2-3.4.6l-3.6 1.3c-.5.2-.9.6-1.1 1.1-.2.5-.2 1-.1 1.6l7.9 21.5C-10.2-3.4-15 3.5-15 11.6c0 11 9 20 20 20 7.7 0 14.3-4.3 17.7-10.7H67c.7 0 1.4-.4 1.7-1l8.1-13.8c.2-.3.3-.7.3-1v-7.4c.8-.8 1.5-1.7 2-2.7l2.8 2.9c.4.4.9.6 1.5.6.5 0 1-.2 1.4-.6L87-4.2l2.6 2.7c-3 3.5-4.8 8-4.8 13 0 11 9 20 20 20s20-9 20-20-9-20-20.1-20z" class="st3"/><circle id="Oval" cx="5.3" cy="11.5" r="18.3" class="st5"/><circle id="Oval_1_" cx="104.7" cy="11.5" r="18.3" class="st5"/><path id="Fill-4" d="M104.7 17.8c-3.5 0-6.3-2.8-6.3-6.3s2.8-6.3 6.3-6.3S111 8 111 11.5s-2.8 6.3-6.3 6.3zm0-16.6c-5.7 0-10.4 4.6-10.4 10.4 0 5.7 4.6 10.4 10.4 10.4s10.4-4.6 10.4-10.4c0-5.8-4.7-10.4-10.4-10.4z" class="st3"/><path id="Fill-5" d="M5.2 17.8c-3.5 0-6.3-2.8-6.3-6.3s2.8-6.3 6.3-6.3 6.3 2.8 6.3 6.3-2.8 6.3-6.3 6.3zm0-16.6C-.5 1.2-5.2 5.8-5.2 11.6-5.2 17.3-.6 22 5.2 22s10.4-4.6 10.4-10.4C15.5 5.8 10.9 1.2 5.2 1.2z" class="st3"/><path id="Fill-6" d="M51 3.4c-1.1 0-2 .9-2 2V11c0 1.1.9 2 2 2s2-.9 2-2V5.5c0-1.2-.9-2.1-2-2.1" class="st3"/><path id="Fill-7" d="M59.1 3.4c-1.1 0-2 .9-2 2V11c0 1.1.9 2 2 2s2-.9 2-2V5.5c0-1.2-.9-2.1-2-2.1" class="st3"/><path id="Fill-8" d="M41.9 8.3H31.7c-1.1 0-2 .9-2 2s.9 2 2 2h10.2c1.1 0 2-.9 2-2 .1-1.1-.9-2-2-2" class="st3"/></g></g></g></g></g><g id="Ebene_3" class="st0"><g id="assets_3_" class="st1"><g id="bike-_x2F_-off-road"><g id="icon_3_"><circle id="green_3_" cx="70" cy="45" r="85" class="st2"/><g id="off-road" transform="translate(15 40.705)"><path id="Fill-14" d="M8.1 44C-1.9 44-10 35.9-10 25.9S-1.9 7.8 8.1 7.8s18.1 8.1 18.1 18.1S18 44 8.1 44zm0-40.8c-12.5 0-22.7 10.2-22.7 22.7S-4.4 48.6 8.1 48.6s22.7-10.2 22.7-22.7S20.6 3.2 8.1 3.2z" class="st6"/><path id="Fill-15" d="M8.1 33C4.2 33 1 29.8 1 25.9s3.2-7.1 7.1-7.1c3.9 0 7.1 3.2 7.1 7.1S12 33 8.1 33zm0-18.8c-6.5 0-11.7 5.3-11.7 11.7S1.6 37.6 8.1 37.6c6.5 0 11.7-5.3 11.7-11.7S14.5 14.2 8.1 14.2z" class="st3"/><path id="Fill-16" d="M102.1 44C92.1 44 84 35.9 84 25.9s8.1-18.1 18.1-18.1 18.1 8.1 18.1 18.1S112.1 44 102.1 44zM63.2 19.1H45.1c-.4-1.1-1-2.8-1.8-4.9h15c1.3 0 2.3-1 2.3-2.3 0-1.3-1-2.3-2.3-2.3H41.6c-.6-1.5-1.2-3.2-1.8-5h11.9c1.3 0 2.3-1 2.3-2.3C54 1 53 0 51.7 0H36.5c-8.4.3-10-1.5-13.3-4.9-3.8-4-9-9.4-25.1-15.1-2.9-1-4.8-2.4-5.6-4.1-.4-.8-.4-1.6-.4-2.3 6.8 2 27 7.9 43.3 12.6 4.9 1.4 10 .6 14.1-.7-.1.5-.1 1-.1 1.4 0 2.7 1.3 5.3 3.6 7.4.4.4 1 .6 1.5.6h27.7l.6 1.8-19.6 22.4zm14.1-38.2 3.4 9.4H55.5c-.8-.8-1.5-2-1.5-3.4 0-3.8 5.8-7.8 14.3-7.8 3.6.1 6.6.8 9 1.8zM93.4-8 87-5.7l-6.9-19.2 6.4-2.3L93.4-8zm8.7 11.2c-1.9 0-3.8.2-5.6.7l-2.6-7.3 3.2-1.1c3.6-.6 7.3-.6 10.9.1 1.2.2 2.5-.6 2.7-1.8.2-1.2-.6-2.4-1.8-2.7-3.7-.7-7.4-.8-11-.4L90-30.9c-.4-1.2-1.7-1.8-2.9-1.4l-3.2 1.2-1.5-4.2c-.5-1.5-2.3-4.1-6-4.2h-8c-1.3 0-2.3 1-2.3 2.3s1 2.3 2.3 2.3h7.9c1.3.1 1.7.8 1.8 1.1l1.5 4.2-3.2 1.2c-.6.2-1 .6-1.3 1.2-.3.6-.3 1.2-.1 1.8l.3 1c-2.1-.5-4.5-.8-7-.8-5.3 0-9.9 1.3-13.3 3.5-1.9 1.1-10.7 5.9-18.3 3.7C16.8-23.8-8.7-31.4-8.9-31.4c-1.1-.3-2.2.2-2.7 1.2-.1.2-1.8 3.9-.1 8 1.3 3 4.1 5.3 8.3 6.7 15 5.2 19.8 10.2 23.2 13.8 3.8 4 6.5 6.4 15 6.4h.1c4 11 6.4 17.5 6.4 17.5.3.9 1.2 1.5 2.2 1.5h20.7c.7 0 1.3-.3 1.7-.8l21-23.8 2.7-1 2.6 7.3C84.6 9.2 79.4 17 79.4 25.9c0 12.5 10.2 22.7 22.7 22.7s22.7-10.2 22.7-22.7-10.2-22.7-22.7-22.7z" class="st3"/><path id="Fill-14_1_" d="M102.2 44c-10 0-18.1-8.1-18.1-18.1s8.1-18.1 18.1-18.1 18.1 8.1 18.1 18.1S112.1 44 102.2 44zm0-40.8c-12.5 0-22.7 10.2-22.7 22.7s10.2 22.7 22.7 22.7 22.7-10.2 22.7-22.7-10.2-22.7-22.7-22.7z" class="st6"/><path id="Fill-17" d="M102.1 33c-3.9 0-7.1-3.2-7.1-7.1s3.2-7.1 7.1-7.1c3.9 0 7.1 3.2 7.1 7.1S106 33 102.1 33zm0-18.8c-6.5 0-11.7 5.3-11.7 11.7s5.3 11.7 11.7 11.7c6.5 0 11.7-5.3 11.7-11.7s-5.2-11.7-11.7-11.7z" class="st3"/></g></g></g></g></g><g id="Ebene_4" class="st0"><g id="assets_4_" class="st1"><g id="bike-_x2F_-road"><g id="icon_4_"><circle id="green_4_" cx="70" cy="46" r="85" class="st2"/><g id="road" transform="translate(15 45.587)"><path id="Fill-44" d="M104.6 35.5c-8.9 0-16.2-7.3-16.2-16.2 0-8.9 7.3-16.2 16.2-16.2 8.9 0 16.2 7.3 16.2 16.2-.1 8.9-7.3 16.2-16.2 16.2zM90.1-12.3c.1-.4.1-.9.1-1.3 0-2.7-1.2-5.2-3.2-7.3l5.8-2.1L98-8.5l-5.8 2.1-2.1-5.9zM84-9.2H53.9c-1.1-1.1-2.1-2.6-2.1-4.5 0-5.2 7.9-9.6 17.2-9.6 9.3 0 17.2 4.4 17.2 9.6-.1 1.9-1.1 3.5-2.2 4.5zM71.5 24.7H41.6c.3-1.8.5-3.6.5-5.4 0-1.9-.2-3.7-.5-5.5h8.5c1.1 0 2.1-.9 2.1-2.1 0-1.1-.9-2.1-2.1-2.1h-9.7C38.2 3.5 33.9-1.7 28.3-5h53.9L80.3.3H57.6c-1.1 0-2.1.9-2.1 2.1 0 1.1.9 2.1 2.1 2.1h21.3l-7.4 20.2zm-80-23.3-2.3-2.2V-5h9.7c-2.8 1.7-5.3 3.8-7.4 6.4zM5.9-10.9c0-3.2 2.6-5.7 5.7-5.7h36.6c-.3 1-.5 2-.5 3 0 1.6.4 3.1 1.1 4.5h-43v-1.8zm98.2-12.8h2.4v10h-2.4c-2.8 0-5-2.2-5-5-.1-2.8 2.2-5 5-5zm.5 22.8c-1.6 0-3.2.2-4.7.6l-1.4-3.9 2.9-1c1.1-.4 1.6-1.6 1.2-2.6l-.7-1.9c.7.2 1.4.3 2.2.3h4.5c1.1 0 2.1-.9 2.1-2.1v-14.1c0-1.1-.9-2.1-2.1-2.1h-4.5c-3 0-5.6 1.4-7.3 3.7l-.8-2.4c-.4-1.1-1.6-1.6-2.6-1.2l-2.9 1-3.1-8.6c-.4-1.3-1.9-3.6-5.2-3.6h-8.3c-1.1 0-2.1.9-2.1 2.1 0 1.1.9 2.1 2.1 2.1h8.3c.9 0 1.2.4 1.3.7 0 .1 3.2 8.8 3.2 8.8l-2.9 1c-.2.1-.3.2-.5.3-3.7-2.2-8.7-3.5-14.3-3.5-7.8 0-14.6 2.6-18.3 6.6H11.6c-5.4 0-9.9 4.4-9.9 9.9V-9h-14.6C-14-9-15-8.1-15-6.9V.3c0 .6.2 1.1.6 1.5l3.4 3.3c-2.5 4.3-4 9.2-4 14.5 0 1.1.9 2.1 2.1 2.1s2.1-.9 2.1-2.1C-10.7 5.9.2-5 13.6-5 27.1-5 38 5.9 38 19.3c0 2.3-.3 4.7-1 6.9-.3 1.1.3 2.2 1.4 2.5.2.1.4.1.6.1h33.9c.9 0 1.6-.5 1.9-1.4l12-33c.1-.2.3-.8.3-.9l.6-.6 1.4 3.9c.3.8 1.1 1.4 1.9 1.4.2 0 .5 0 .7-.1l2.9-1L96 1c-6.9 3.2-11.7 10.2-11.7 18.4 0 11.2 9.1 20.3 20.3 20.3s20.3-9.1 20.3-20.3S115.7-.9 104.6-.9z" class="st3"/><path id="Fill-45" d="M104.6 25.7c-3.5 0-6.4-2.9-6.4-6.4 0-3.5 2.9-6.4 6.4-6.4s6.4 2.9 6.4 6.4c-.1 3.5-2.9 6.4-6.4 6.4zm0-16.9c-5.8 0-10.5 4.7-10.5 10.5s4.7 10.5 10.5 10.5 10.5-4.7 10.5-10.5-4.8-10.5-10.5-10.5z" class="st3"/><path id="Fill-46" d="M13.6 35.5c-8.9 0-16.2-7.3-16.2-16.2 0-8.9 7.3-16.2 16.2-16.2 8.9 0 16.2 7.3 16.2 16.2 0 8.9-7.3 16.2-16.2 16.2zm0-36.4C2.5-.9-6.6 8.2-6.6 19.3s9.1 20.3 20.3 20.3c11.2 0 20.3-9.1 20.3-20.3S24.8-.9 13.6-.9z" class="st6"/><path id="Fill-46_1_" d="M104.4 35.5c-8.9 0-16.2-7.3-16.2-16.2 0-8.9 7.3-16.2 16.2-16.2 8.9 0 16.2 7.3 16.2 16.2-.1 8.9-7.3 16.2-16.2 16.2zm0-36.4c-11.2 0-20.3 9.1-20.3 20.3s9.1 20.3 20.3 20.3c11.2 0 20.3-9.1 20.3-20.3S115.5-.9 104.4-.9z" class="st6"/><path id="Fill-47" d="M13.6 25.7c-3.5 0-6.4-2.9-6.4-6.4 0-3.5 2.9-6.4 6.4-6.4s6.4 2.9 6.4 6.4c0 3.5-2.9 6.4-6.4 6.4zm0-16.9c-5.8 0-10.5 4.7-10.5 10.5s4.7 10.5 10.5 10.5 10.5-4.7 10.5-10.5S19.4 8.8 13.6 8.8z" class="st3"/><path id="Fill-48" d="M58.3 9.7c-1.1 0-2.1.9-2.1 2.1v5.7c0 1.1.9 2.1 2.1 2.1 1.1 0 2.1-.9 2.1-2.1v-5.7c-.1-1.2-1-2.1-2.1-2.1" class="st3"/><path id="Fill-49" d="M66.5 9.7c-1.1 0-2.1.9-2.1 2.1v5.7c0 1.1.9 2.1 2.1 2.1 1.1 0 2.1-.9 2.1-2.1v-5.7c0-1.2-1-2.1-2.1-2.1" class="st3"/></g></g></g></g></g><g id="Ebene_5" class="st0"><g id="assets_5_" class="st1"><g id="bike-_x2F_-scooter"><g id="icon_5_"><circle id="green_5_" cx="70" cy="45" r="85" class="st2"/><g id="scooter" transform="translate(15 40.128)"><path id="Fill-35" d="M9.1 45.1c-8 0-14.5-6.5-14.5-14.5S1.1 16.1 9.1 16.1s14.5 6.5 14.5 14.5-6.5 14.5-14.5 14.5zm0-33.4c-10.4 0-18.9 8.5-18.9 18.9 0 10.4 8.5 18.9 18.9 18.9C19.5 49.5 28 41 28 30.6c.1-10.4-8.4-18.9-18.9-18.9z" class="st6"/><path id="Fill-36" d="M9.1 36.1c-3 0-5.5-2.5-5.5-5.5s2.5-5.5 5.5-5.5 5.5 2.5 5.5 5.5c0 3.1-2.4 5.5-5.5 5.5zm0-15.4c-5.5 0-10 4.5-10 10s4.5 10 10 10 10-4.5 10-10-4.5-10-10-10z" class="st3"/><path id="Fill-37" d="M105.7 45.1c-8 0-14.5-6.5-14.5-14.5s6.5-14.5 14.5-14.5 14.5 6.5 14.5 14.5-6.5 14.5-14.5 14.5zm0-33.4c-10.4 0-18.9 8.5-18.9 18.9 0 10.4 8.5 18.9 18.9 18.9 10.4 0 18.9-8.5 18.9-18.9.1-10.4-8.4-18.9-18.9-18.9z" class="st6"/><path id="Fill-38" d="M105.7 36.1c-3 0-5.5-2.5-5.5-5.5s2.5-5.5 5.5-5.5 5.5 2.5 5.5 5.5c0 3.1-2.4 5.5-5.5 5.5zm0-15.4c-5.5 0-10 4.5-10 10s4.5 10 10 10 10-4.5 10-10-4.5-10-10-10z" class="st3"/><path id="Fill-39" d="M79.2 22.1h-4.9c2.1-4.3 5.9-12.1 8.6-17.3.3-.5.3-1.1.2-1.7-3.2-10.5-5.3-16.9-7-22h4.2c7.1 4.2 12.3 9.2 16 13.5H89c-1.2 0-2.2 1-2.2 2.2C86.8-2 87.8-1 89-1h10.7c1 1.4 1.8 2.7 2.4 3.8C91.3 4.4 82.4 12 79.2 22.1zm-1.3 11H43.6l-10-21.8c-.2-.4-.5-.7-.9-1l-9.6-6H45l2 4.4h-3.5c-1.2 0-2.2 1-2.2 2.2s1 2.2 2.2 2.2H49l2.1 4.5H47c-1.2 0-2.2 1-2.2 2.2 0 1.2 1 2.2 2.2 2.2h6.2l1.4 3.1c.4.8 1.2 1.3 2 1.3H78c-.2 1.3-.3 2.7-.3 4 .1 1.1.2 1.9.2 2.7zM-1.2-8c.3-3.2 2.9-5.7 6.1-5.7l37.2 5.4h.3c3.2 0 5.8 2.4 6.2 5.4L46-.2H3.3L-1.2-8zm86.4-20.4-5 5.1h-5.7L70.7-35c9.3 1.2 13.2 4.7 14.5 6.6zm20.5 35.6c.8 0 1.5-.4 1.9-1 .4-.6.5-1.4.2-2.1-.3-.6-6.4-14.7-23.2-25.5l5-5.1c.6-.6.8-1.5.5-2.4-.1-.4-3.9-9.9-22.4-11-.7 0-1.5.3-1.9.9-.5.6-.6 1.4-.4 2.1l1.9 5.9h-6.7c-1.2 0-2.2 1-2.2 2.2 0 1.2 1 2.2 2.2 2.2h8.2s6.5 19.8 9.7 30.1c-3.1 6.1-7.6 15.2-9.2 18.6H58.1L49.3 2.9l3.3-3.4c.4-.4.6-1 .6-1.6 0-5.9-4.7-10.7-10.6-10.8L5.4-18.2h-.3c-5.9 0-10.8 4.8-10.8 10.8 0 .4.1.8.3 1.1l1.7 3L-14 7.3c-.9.9-.8 2.3.1 3.2.4.4 1 .6 1.5.6.6 0 1.2-.2 1.6-.7L-1.5.7 0 3.2c.4.7 1.1 1.1 2 1.1h12.7l15.2 9.4 10.3 22.5c.4.8 1.2 1.3 2 1.3h38.3c.7 0 1.3-.3 1.7-.8.4-.5.6-1.2.5-1.8-.3-1.4-.4-2.9-.4-4.3 0-1.8.2-3.6.6-5.4 2.5-10.3 11.8-18 22.8-18z" class="st3"/></g></g></g></g></g><g id="Ebene_6" class="st0"><g id="assets_6_" class="st1"><g id="bike-_x2F_-track_1_"><g id="icon_6_"><circle id="green_6_" cx="70" cy="45" r="85" class="st2"/><g id="track_1_" transform="translate(15 42.866)"><path id="Fill-9_1_" d="M102.9 39.8c-9.7 0-17.6-7.9-17.6-17.6s7.9-17.6 17.6-17.6 17.6 7.9 17.6 17.6-7.9 17.6-17.6 17.6zm0-39.6c-12.1 0-22 9.9-22 22s9.9 22 22 22 22-9.9 22-22-9.8-22-22-22z" class="st6"/><path id="Fill-10_1_" d="M102.9 29.2c-3.8 0-6.9-3.1-6.9-6.9s3.1-6.9 6.9-6.9c3.8 0 6.9 3.1 6.9 6.9s-3 6.9-6.9 6.9zm0-18.4c-6.3 0-11.4 5.1-11.4 11.4s5.1 11.4 11.4 11.4c6.3 0 11.4-5.1 11.4-11.4s-5.1-11.4-11.4-11.4z" class="st3"/><path id="Fill-11_1_" d="M11.6 39.8C1.9 39.8-6 31.9-6 22.2S1.9 4.7 11.6 4.7c9.7 0 17.6 7.9 17.6 17.6s-7.9 17.5-17.6 17.5zm0-39.6c-12.1 0-22 9.9-22 22s9.9 22 22 22 22-9.9 22-22-9.8-22-22-22z" class="st6"/><path id="Fill-12_1_" d="M11.6 29.2c-3.8 0-6.9-3.1-6.9-6.9s3.1-6.9 6.9-6.9 6.9 3.1 6.9 6.9-3.1 6.9-6.9 6.9zm0-18.4C5.3 10.8.2 16 .2 22.2s5.1 11.4 11.4 11.4S23 28.5 23 22.2s-5.1-11.4-11.4-11.4z" class="st3"/><path id="Fill-13_1_" d="M48.5 30.2 36.7.1c-.2-.5-.6-1-1.1-1.2L-2.6-18.7l-6.5-12.5c2.9.3 5.2 1.9 6.8 4.9.3.6.9 1 1.6 1.1l19.3 2.9 4.4 7.9c.3.5.8.9 1.3 1L64.2-1.5c.5.1 1 .1 1.4 0l18.7-7L82.6-1c-2.9 2.6-5.3 5.6-7.1 8.9H52.8c-1.2 0-2.2 1-2.2 2.2s1 2.2 2.2 2.2h20.9c-.7 2.1-1.2 4.3-1.5 6.6H62.1c-1.2 0-2.2 1-2.2 2.2 0 1.2 1 2.2 2.2 2.2h10c.1 2.3.4 4.6 1 6.8H48.5zM51-13.3c.8-3.2 4.3-8.2 10.7-8.2.6 0 1.3 0 1.9.1l11.1 2.6 8 6-18 6.8-14.5-4.3.8-3zm35.4-15.1 7.7-6.4c3.6 1.9 14.4 8.2 18.6 18.6-3.6 4.6-5.9 6.9-6.7 7.6-1.1-.1-2.1-.2-3.1-.2C97.7-8.8 92.6-7.5 88-5l3.7-16.6c.2-.7-.1-1.5-.6-2l-4.7-4.8zm-9.9 50.6c0-3.9.9-7.8 2.5-11.2 1.6-3.5 4-6.6 7.1-9.1C90.8-2 96.8-4.2 103-4.2c1 0 2 .1 3.1.2.3 0 .6 0 .9-.1l.7-.2c.3-.1.5-.2.7-.4.1-.1 3.2-2.5 8.7-9.8.4-.6.6-1.4.3-2.1-5.2-15.1-21.9-22.6-22.6-22.9-.8-.3-1.7-.2-2.3.3l-10.7 8.8c-.5.4-.8 1-.8 1.6 0 .6.2 1.2.6 1.7l5.6 5.8L86-16l-8.9-6.6c-.2-.2-.5-.3-.8-.4l-11.6-2.7h-.2c-.9-.1-1.8-.2-2.7-.2-8 0-13.7 6-15.1 11.6l-.7 2.7-19.5-5.8-4.5-8c-.3-.6-.9-1-1.6-1.1L1-29.4c-3.5-5.5-8.3-6.3-11-6.3-1.9 0-3.2.4-3.3.5-.6.2-1.1.7-1.4 1.3-.3.6-.2 1.3.1 1.9l8.5 16c.2.4.6.8 1 1L32.8 2.6l12 30.6c.3.9 1.2 1.4 2.1 1.4h29.2c.7 0 1.4-.4 1.8-1 .4-.6.5-1.4.2-2.1-1-2.9-1.6-6.1-1.6-9.3z" class="st3"/></g></g></g></g></g><g id="Ebene_15" class="st0"><g id="assets_13_" class="st1"><g id="tyre-_x2F_-4x4"><g id="nav_bar_4x4" transform="matrix(-1 0 0 1 126 38.5)"><path id="Shape_15_" d="M121.9-20.9h-7.1V-28c0-1.3-1.1-2.4-2.4-2.4H43.8c-1 0-1.8.6-2.2 1.5L32.7-6.7h-43.4c-1.3 0-2.4 1.1-2.4 2.4v31.9c0 1.3 1.1 2.4 2.4 2.4h5.9c1.3 0 2.4-1.1 2.4-2.4 0-9.1 7.4-15.4 16.6-15.4s16.6 7.1 16.6 15.4c0 2.2 1.1 2.4 2.4 2.4h36.7c1.3 0 2.4-1.1 2.4-2.4 0-9.1 7.4-15.4 16.6-15.4 9.1 0 16.6 6.2 16.6 15.4 0 1.3 1.1 2.4 2.4 2.4h9.5c1.3 0 2.4-1.1 2.4-2.4V17c0-1.3-1.1-2.4-2.4-2.4H115V9.9h7.1c1.3 0 2.4-1.1 2.4-2.4v-26c-.2-1.3-1.3-2.4-2.6-2.4zm-45-4.7H110v18.9H76.9v-18.9zm-31.5 0h26.8v18.9H37.8l7.6-18.9zm64.5 50.8C108.7 14.6 99.7 7.5 88.8 7.5s-20 7.1-21.2 17.7H35.4C34.2 14.6 25.2 7.5 14.2 7.5S-5.8 14.6-7 25.2h-1.3V7.5h2.4c1.3 0 2.4-1.1 2.4-2.4s-1.1-2.4-2.4-2.4h-2.4V-2H110v4.7h-2.4c-1.3 0-2.4 1.1-2.4 2.4s1.1 2.4 2.4 2.4h2.4V17c0 1.3 1.1 2.4 2.4 2.4h2.4v5.9h-4.9zm9.6-20.1h-4.7v-21.3h4.7V5.1z" class="st7"/><g id="tyre-1_6_" transform="translate(73.5 40.5)"><circle id="Oval_9_" cx="15.1" cy="-9" r="12.6" class="st8"/><circle id="Oval-2_15_" cx="15.1" cy="-9" r="3.2"/></g><g id="tyre-2_6_" transform="translate(10 40.5)"><circle id="Oval_8_" cx="3.5" cy="-9" r="12.6" class="st8"/><circle id="Oval-2_14_" cx="3.5" cy="-9" r="3.2"/></g></g></g></g></g><g id="Ebene_8" class="st0"><g id="assets_12_" class="st1"><g id="tyre-_x2F_-all-terrain"><g id="nav_bar_suv" transform="matrix(-1 0 0 1 130 42)"><path id="Shape_14_" d="M125.5 5.5V-5.3c0-.1-.1-.5-.1-.7 0-.2-.1-.3-.2-.4 0-.1-9.2-13.9-9.2-13.9-.3-.5-.9-.9-1.5-1-57.2-9.6-71.8 0-72.5.4L24.2-7.6l-29 2.2c-.8.1-1.5.6-1.9 1.4-.2.4-5.1 11.1-.1 29 .3 1 1.2 1.7 2.2 1.7h6.8c1.3 0 2.3-1 2.3-2.3 0-8.8 7.2-16 16-16s16 7.2 16 16c0 1.3 1 2.3 2.3 2.3h41.1c1.3 0 2.3-1 2.3-2.3 0-8.8 7.2-16 16-16s16 7.2 16 16c0 1.3 1 2.3 2.3 2.3h6.8c.8 0 1.6-.4 2-1.2 4.9-8.9 1.3-17.7.2-20zm-12.8-22.4 6.2 9.3H94.8l-7.2-12.5c7.3.6 15.5 1.6 25.1 3.2zm-44.3-4c4-.1 8.6 0 13.9.4 0 .1.1.3.1.4l7.2 12.6H68.4v-13.4zm-23.8 3.8c.1-.1 4.9-3 19.3-3.7v13.2h-32l12.7-9.5zm77.2 39.2h-3.3c-1.1-10.3-9.9-18.3-20.4-18.3s-19.3 8-20.4 18.3H40.9C39.8 11.8 31.1 3.8 20.5 3.8S1.2 11.8.1 22.1h-2.9c-1.3-5.4-1.6-10-1.5-13.7h2.1c1.3 0 2.3-1 2.3-2.3s-1-2.3-2.3-2.3H-4c.3-2.1.7-3.7 1-4.7l28-2.2h95.8v4.6h-2.3c-1.3 0-2.3 1-2.3 2.3s1 2.3 2.3 2.3h2.3c0 .4.1.8.3 1.1.3.3 4.1 7.4.7 14.9z" class="st7"/><g id="tyre-1_5_" transform="translate(82.5 33.86)"><circle id="Oval_7_" cx="15.5" cy="-8.3" r="11" class="st8"/><circle id="Oval-2_13_" cx="15.5" cy="-8.3" r="2.8"/></g><g id="tyre-2_5_" transform="translate(14 33.86)"><circle id="Oval_6_" cx="5.9" cy="-8.3" r="11" class="st8"/><circle id="Oval-2_12_" cx="5.9" cy="-8.3" r="2.8"/></g></g></g></g></g><g id="Ebene_13" class="st0"><g id="assets_11_" class="st1"><g id="tyre-_x2F_-auto"><g id="passenger" transform="matrix(-1 0 0 1 130 42)"><g id="tyre-1_4_" transform="translate(82 33)"><circle id="Oval_5_" cx="16.7" cy="-9.5" r="11.1" class="st8"/><circle id="Oval-2_11_" cx="16.7" cy="-9.5" r="2.9"/></g><g id="tyre-2_4_" transform="translate(14 33)"><circle id="Oval_4_" cx="6.2" cy="-9.5" r="11.1" class="st8"/><circle id="Oval-2_10_" cx="6.2" cy="-9.5" r="2.9"/></g><path id="Shape_13_" d="M126.5 13V-.7c0-1-.6-1.9-1.6-2.2l-13-4.3c-4.9-8.3-11.6-16.1-26.4-18.7h-.1C58-29.7 37.5-23.5 24.3-7.5c-15.3.2-31 5-31 13.8V13C-8 13-9 14.1-9 15.3v9.2c0 1.3 1 2.3 2.3 2.3h9.2c1.3 0 2.3-1 2.3-2.3 0-8.9 7.2-16.1 16.1-16.1S37 15.6 37 24.5c0 1.3 1 2.3 2.3 2.3h41.3c1.3 0 2.3-1 2.3-2.3 0-8.9 7.2-16.1 16.1-16.1 8.9 0 16.1 7.2 16.1 16.1 0 1.3 1 2.3 2.3 2.3h9.2c1.3 0 2.3-1 2.3-2.3v-9.2c-.1-1.2-1.2-2.3-2.4-2.3zM96.7-17.1c4 2.4 7 5.7 9.5 9.5h-9.6l.1-9.5zm-27.6-5.3c4.9-.1 10.1.3 15.7 1 2.8.5 5.2 1.2 7.4 2L92-7.6H69v-14.8zm-4.6.1v14.6h-34c8.5-8.7 19.8-13.5 34-14.6zm59.7 44.5h-4.7C118.4 11.9 109.6 3.8 99 3.8s-19.4 8-20.5 18.4h-37c-1.3-10.3-10-18.3-20.7-18.3S1.4 11.9.3 22.3h-4.7v-4.6c1.3 0 2.3-1 2.3-2.3V8.5H.2c1.3 0 2.3-1 2.3-2.3S1.5 3.9.2 3.9H-1C2.1.5 11.6-3 25.4-3H110l11.9 4v2.9h-2.3c-1.3 0-2.3 1-2.3 2.3s1 2.3 2.3 2.3h2.3v6.9c0 1.3 1 2.3 2.3 2.3v4.5z" class="st7"/></g></g></g></g><g id="Ebene_14"><g id="assets_10_"><g id="tyre-_x2F_-light-truck"><g id="light-truck_1_" transform="matrix(-1 0 0 1 125 34)"><g id="tyre-2_3_" transform="translate(12 49)"><path id="Shape_12_" d="M5-21.1c-7.4 0-13.4 6-13.4 13.4S-2.4 5.6 5 5.6s13.4-6 13.4-13.4-6-13.3-13.4-13.3zM5 1.2c-4.9 0-8.9-4-8.9-8.9s4-8.9 8.9-8.9 8.9 4 8.9 8.9-4 8.9-8.9 8.9z" class="st6"/><circle id="Oval-2_9_" cx="5" cy="-7.7" r="3"/></g><g id="tyre-1_3_" transform="translate(74 49)"><path id="Shape_11_" d="M17.7-21.1c-7.4 0-13.4 6-13.4 13.4s6 13.4 13.4 13.4 13.4-6 13.4-13.4-6-13.4-13.4-13.4zm0 22.3c-4.9 0-8.9-4-8.9-8.9s4-8.9 8.9-8.9 8.9 4 8.9 8.9-4 8.9-8.9 8.9z" class="st6"/><circle id="Oval-2_8_" cx="17.7" cy="-7.7" r="3"/></g><path id="Shape_10_" d="M119.5 21.2h-2.2v-51.3c0-1.2-1-2.2-2.2-2.2H46c-4.9 0-8.9 4-8.9 8.9v46.8h-4.5V-10c0-1.2-1-2.2-2.2-2.2H3.6c-.7 0-1.4.4-1.9 1l-13.3 20c-.3.4-.4.8-.4 1.2v24.5c0 1.2 1 2.2 2.2 2.2h6.7c.9 0 1.8-.6 2.1-1.5 2.5-7.1 9.3-11.9 16.8-11.9 4.7 0 10.3 1.7 13.1 4 .4.3.9.5 1.4.5H37v6.7c0 1.2 1 2.2 2.2 2.2h33.5c.9 0 1.8-.6 2.1-1.5 2.5-7.1 9.3-11.9 16.8-11.9s14.2 4.7 16.8 11.8c.3.9 1.1 1.6 2.1 1.6h8.9c1.2 0 2.2-1 2.2-2.2V23.4c.2-1.2-.8-2.2-2.1-2.2zM4.8-7.8h14.4V7.8H-5.6L4.8-7.8zm23.3 29.5c-4-1.9-8.8-2.7-12.3-2.7-8.9 0-16.9 5.3-20.4 13.3h-2.9V21.2h2.2c1.2 0 2.2-1 2.2-2.2 0-1.2-1-2.2-2.2-2.2h-2.2v-4.5h29c1.2 0 2.2-1 2.2-2.2V-7.8h4.5v29.5zm89.2 10.6h-5.2c-3.5-8-11.5-13.3-20.4-13.3-8.9 0-16.9 5.3-20.4 13.4H41.5v-55.7c0-2.5 2-4.5 4.5-4.5h66.9v40.1h-2.2c-1.2 0-2.2 1-2.2 2.2s1 2.2 2.2 2.2h2.2v6.7c0 1.2 1 2.2 2.2 2.2h2.2v6.7z" class="st7"/></g></g></g></g><g id="Ebene_9" class="st0"><g id="assets_9_" class="st1"><g id="tyre-_x2F_-motorbike"><g id="motorbike---edit---fixed" transform="translate(25.5 39)"><path id="Shape_9_" d="M80.6 5.2C84.2 4 88 3.4 91.8 3.7c2.2.2 3.8-1.5 3.9-3.6l-.1-6.6c-.2-1.1-5.8-27.3-30.9-30.8-2.4-.4-5 2.1-3.8 5 .6 1.4 1.2 3 1.8 4.7l-5.9-3.3c-1.7-1-3.9-.4-4.9 1.4-1 1.7-.4 3.9 1.4 4.9l12.1 6.8c.4 2 .6 4 .6 5.7-3.4-1.4-8.3-2.7-13.7-1.7-5.6 1-10.6 4.2-14.8 9.5-9.6-4.6-41-17.5-55.2-.1-.5.6-.8 1.5-.8 2.3v9.5c0 2.6 3 4.8 5.7 2.9 4.5-3.3 9.7-5 15.2-5 5.8 0 11.2 2 15.5 5.3l5.1 5.1c3.3 4.3 5.3 9.7 5.3 15.6 0 2 1.6 3.6 3.6 3.6h26.4c2 0 3.6-1.6 3.6-3.6 0-9.5 4.8-17.9 12.1-22.8l6.6-3.3zM55 27.6H35.4C33.6 11.1 19.6-1.9 2.5-1.9c-4.8 0-9.5 1-13.8 3V-.7C2.2-14.8 36.6 3.3 37 3.5c1.6.9 3.7.4 4.7-1.2 3.4-5.1 7.4-8.1 11.9-9 6.9-1.3 13 2.9 13 2.9 1.6 1.2 4.3.8 5.4-1.5 2.8-6.2.3-16.5-1.9-23.3C83.9-23.1 88-7.9 88.5-5.3v1.8C71.1-3 56.8 10.5 55 27.6z" class="st9"/><circle id="Oval_3_" cx="2.5" cy="31.3" r="17.3" class="st10"/><circle id="Oval_2_" cx="90" cy="31.3" r="17.3" class="st10"/><circle id="Oval-3" cx="2.5" cy="31.3" r="4.3"/><circle id="Oval-3_1_" cx="90" cy="31.3" r="4.3"/></g></g></g></g><g id="Ebene_10" class="st0"><g id="assets_8_" class="st1"><g id="tyre-_x2F_-racing"><g id="race-car" transform="translate(10 45)"><path id="Shape_8_" d="M34.7 15.8h35.9c3.8 0 7.4-2 9.4-5.3L83.8 4c.6-1 .3-2.3-.7-2.9-1-.6-2.3-.3-2.9.7l-3.9 6.5c-1.2 2-3.4 3.2-5.7 3.2H34.7c-1.2 0-2.1 1-2.1 2.1s.9 2.2 2.1 2.2z" class="st7"/><path id="Shape_7_" d="M127.1 20.1v-6.5c0-13-10.6-23.6-23.6-23.6H91.6C88.3-12.6 74.7-22.9 67-22.9H52.5c-3 0-5.9.4-8.7 1.3-.1 0-.1 0-.2.1l-19.8 8c-3 .9-6.1 1.4-9.2 1.4H7.5c-.1-.2-.2-.4-.4-.6L5-14.8c2.3-1 3.9-3.3 3.9-5.9v-2.1C8.9-24 8-25 6.8-25H-6.1c-1.2 0-2.1 1-2.1 2.1v2.1c0 3.6 2.9 6.5 6.5 6.5h1.2l2.1 2.1H-.2c-3.3 0-5.9 2.7-5.9 5.9v17.7c0 5 3.6 9.2 9.1 10.7 2.7 3.9 7.3 6.5 12.4 6.5 4.1 0 7.8-1.6 10.5-4.3H93c2.7 2.7 6.4 4.3 10.5 4.3s7.8-1.6 10.5-4.3h12.9c1.2 0 2.1-1 2.1-2.1 0-1-.8-1.9-1.9-2.1zM-4-20.7h8.6c0 1.2-1 2.1-2.2 2.1h-4.3c-1.1 0-2-.9-2.1-2.1zm91.5 13c-1 .7-1.7 1.4-2.2 2l-40.6-4c1.9-3.4 5.8-8.9 11.5-8.9H67c5 0 15.1 6.8 20.5 10.9zM-1.8 11.5V-6.2c0-.9.7-1.6 1.6-1.6h14.8c3.6 0 7.1-.5 10.5-1.6.1 0 .1 0 .2-.1L45-17.4c-.5.6-1.1 1.2-1.6 1.9-2.6 3.4-4 6.8-4 7-.2.6-.2 1.3.2 1.9.4.6 1 .9 1.6 1l44.9 4.3h.2c.8 0 1.5-.4 1.9-1.1.2-.3 2-3.2 6.7-3.2h8.6c10.7 0 19.3 8.7 19.3 19.3v6.4H117c.9-2 1.5-4.1 1.5-6.4 0-8.3-6.7-15-15-15s-15 6.7-15 15c0 2.3.5 4.5 1.5 6.4H29c.9-2 1.5-4.1 1.5-6.4 0-8.3-6.7-15-15-15s-15 6.7-15 15c0 .9.1 1.8.2 2.6-1.6-1.2-2.5-2.9-2.5-4.8zm6.4 2.2C4.6 7.8 9.4 3 15.3 3S26 7.8 26 13.7s-4.8 10.7-10.7 10.7S4.6 19.6 4.6 13.7zm98.9 10.7c-5.9 0-10.7-4.8-10.7-10.7S97.6 3 103.5 3c5.9 0 10.7 4.8 10.7 10.7s-4.8 10.7-10.7 10.7z" class="st7"/><g id="tyre-1_2_" transform="translate(82 18.6)"><circle id="Oval-4" cx="21.6" cy="-4.7" r="17.7" class="st11"/><g id="Oval-4_1_"><g><circle id="path-1" cx="21.6" cy="-4.7" r="14.9" class="st11"/></g><circle cx="21.6" cy="-4.7" r="13.2" class="st10"/></g><circle id="Oval-2_7_" cx="21.6" cy="-4.7" r="2.9"/></g><g id="tyre-2_2_" transform="translate(7 18.6)"><circle id="Oval-4_2_" cx="10.8" cy="-4.7" r="17.7" class="st11"/><g id="Oval-4_3_"><g><circle id="path-2" cx="10.8" cy="-4.7" r="14.9" class="st11"/></g><circle cx="10.8" cy="-4.7" r="13.2" class="st10"/></g><circle id="Oval-2_6_" cx="10.8" cy="-4.7" r="2.9"/></g></g></g></g></g><g id="Ebene_11" class="st0"><g id="assets_7_" class="st1"><g id="tyre-_x2F_-tractor"><g id="tractor" transform="translate(25 36)"><g id="tyre-2_1_" transform="translate(2 34)"><path id="Shape_6_" d="M31.2-2.8c0-11.4-9.3-20.7-20.7-20.7s-20.7 9.3-20.7 20.7 9.3 20.7 20.7 20.7c11.4 0 20.7-9.3 20.7-20.7zm-37.7 0c0-9.3 7.6-17 17-17s17 7.6 17 17-7.6 17-17 17-17-7.7-17-17z" class="st12"/><circle id="Oval-2_5_" cx="10.5" cy="-2.8" r="3.1"/></g><g id="tyre-1_1_" transform="translate(62.5 46)"><circle id="Oval-2_4_" cx="18.4" cy="-7.3" r="3.1"/><path id="Shape_5_" d="M18.4 5.9c7.3 0 13.2-5.9 13.2-13.2 0-7.3-5.9-13.2-13.2-13.2S5.3-14.6 5.3-7.3C5.3 0 11.2 5.9 18.4 5.9zm0-22.6c5.2 0 9.4 4.2 9.4 9.4s-4.2 9.4-9.4 9.4S9-2.1 9-7.3s4.2-9.4 9.4-9.4z" class="st12"/></g><path id="Shape_4_" d="M91.6.4H86V-9c0-1-.8-1.9-1.9-1.9-1 0-1.9.8-1.9 1.9V.4H62.8L52-32.2c-.3-.8-1-1.3-1.8-1.3H12.5c-.9 0-1.7.7-1.9 1.6L6.9-5.5c-.1 1 .6 2 1.6 2.1 1 .1 2-.6 2.1-1.6l3.5-24.8h8.2l7.2 32.4c.2.9 1 1.5 1.8 1.5h60.3c2.8 0 4.7 1.4 5.4 3.8H80.3c-1 0-1.9.8-1.9 1.9s.8 1.9 1.9 1.9h17v3.8h-17c-1 0-1.9.8-1.9 1.9 0 1 .8 1.9 1.9 1.9h17v17c0 1 .8 1.9 1.9 1.9s1.9-.8 1.9-1.9V9.8C101 4.3 97.2.4 91.6.4zM51.3.4l2.4-4.8c.5-.9.1-2.1-.8-2.5-.9-.5-2.1-.1-2.5.8L47.2.4H32.8l-6.7-30.1h22.7L58.8.4h-7.5z"/><path id="Shape_3_" d="M61.5 7.9c-1 0-1.9.8-1.9 1.9v24.5H40.7v-5.7c0-5.1-1.4-10.2-4-14.6C31.5 5.5 22.5.4 12.5.4S-6.6 5.5-11.7 14.1c-.5.9-.3 2 .6 2.6.9.5 2 .2 2.6-.6C-4 8.6 3.8 4.2 12.5 4.2s16.5 4.4 21 11.9c2.3 3.8 3.5 8.2 3.5 12.6v7.5c0 1 .8 1.9 1.9 1.9h22.6c1 0 1.9-.8 1.9-1.9V9.8c0-1-.9-1.9-1.9-1.9z"/></g></g></g></g><g id="Ebene_12" class="st0"><g id="assets" class="st1"><g id="tyre-_x2F_-truck"><g id="version-0.2" transform="translate(19 42)"><g id="light-truck" transform="matrix(-1 0 0 1 106 0)"><g id="tyre-2" transform="translate(11.2 33)"><path id="Shape" d="M5.2-22.4c-7.7 0-14 6.3-14 14s6.3 14 14 14 14-6.3 14-14-6.3-14-14-14zM5.2 1C.1 1-4.1-3.2-4.1-8.4s4.2-9.3 9.3-9.3 9.3 4.2 9.3 9.3S10.4 1 5.2 1z" class="st6"/><circle id="Oval-2_3_" cx="5.2" cy="-8.4" r="3.2"/></g><g id="tyre-1" transform="translate(73 33)"><path id="Shape_1_" d="M21.4-22.4c-7.7 0-14 6.3-14 14s6.3 14 14 14 14-6.3 14-14-6.3-14-14-14zm0 23.4C16.2 1 12-3.2 12-8.4s4.2-9.3 9.3-9.3 9.3 4.2 9.3 9.3S26.5 1 21.4 1z" class="st6"/><circle id="Oval-2_2_" cx="21.4" cy="-8.4" r="3.2"/></g><path id="Shape_2_" d="M33.8 6v-35c0-1.3-1-2.3-2.3-2.3H6c-.8 0-1.5.4-1.9 1l-2.5 21c-.4.3-14.5.8-14.5 1.3v25.7c0 1.3 1 2.3 2.3 2.3h7c1 0 1.9-.6 2.2-1.6C1.2 11 8.3 6 16.2 6 21.1 6 27 7.7 30 10.1c.4.3 3.1.1 3.6.1l.2-4.2zM8.5-26.7h11.3v16.3H6.5l2-16.3zM29.1 4.1C25 2.2 19.9 1.2 16.2 1.2c-9.3 0-17.7 5.6-21.4 14h-3.1V3.6H-6c1.3 0 2.3-1 2.3-2.3S-4.6-1-5.9-1h-2.3v-2.1l30.3-2.5c1.3 0 2.3-1 2.3-2.3v-18.7h4.7V4.1z" class="st13"/></g><path id="Path-2" d="M110 24.5h6.4" class="st14"/><path id="Path-3" d="M-2.1 8.1h-13.8v16.3h6.3c0-8.4 7.1-20.9 21.5-20.9S33 14.5 33 24.4h36.3" class="st14"/><path id="Path-2_1_" d="M26 8.2h48.4" class="st14"/></g></g></g></g></svg>