<svg xmlns="http://www.w3.org/2000/svg" width="61" height="58" viewBox="0 0 61 58"><g fill="none" fill-rule="evenodd"><path d="M.931-1.244h59.854v60H.931z"/><g fill-rule="evenodd" transform="translate(1.004 .512)"><path fill="#000" fill-rule="nonzero" stroke="#000" stroke-width=".5" d="m57.528 23.233-5.772-8.417-1.461-6.715a1.893 1.893 0 0 0-2.166-1.456.718.718 0 0 1-.824-.567L46.235.6A.585.585 0 0 0 45.11.525l-2.635 7.823a2.176 2.176 0 0 1-2.064 1.483c-.432 0-.852-.13-1.215-.378l-3.214-2.188a1.59 1.59 0 0 1-.55-1.984c.32-.695.338-1.5.048-2.208a2.768 2.768 0 0 0-1.582-1.537l-2.47-.929a2.759 2.759 0 0 0-2.728.46L24.262 4.76a2.264 2.264 0 0 1-2.488.267 3.3 3.3 0 0 0-1.52-.373c-1.004 0-1.942.45-2.57 1.236l-6.843 8.543L3.286 17.9a5.61 5.61 0 0 0-2.84 7.302l4.057 9.67a2.599 2.599 0 0 1-.166 2.331l-.178.298A2.581 2.581 0 0 0 5.38 41.21a5.752 5.752 0 0 0 2.215.442c.843 0 1.658-.18 2.423-.532l6.047-2.79c.7-.324 1.425-.613 2.155-.86l6.914-2.338c.48-.162.979-.244 1.482-.244a4.65 4.65 0 0 1 4.03 2.344l1.217 2.135a1.668 1.668 0 0 0 2.68.298l.817-.898a.564.564 0 0 1 .421-.188c.19 0 .43.095.537.362l1.38 3.46a6.451 6.451 0 0 0 5.834 4.067l3.456.087.204.002a8.177 8.177 0 0 0 6.935-3.897l3.754-6.151a12.249 12.249 0 0 0 1.778-5.847 12.296 12.296 0 0 0-2.13-7.428z"/><path fill="#fff" fill-rule="evenodd" d="m25.008 5.66 4.437-3.69a1.606 1.606 0 0 1 1.572-.266l2.47.928c.418.157.742.472.912.886.17.414.16.866-.028 1.272a2.757 2.757 0 0 0 .954 3.443l2.097 1.428-.515 15.52-12.355-.289-.786-18.576c.452-.13.876-.351 1.242-.656z"/><path stroke="#000" stroke-width=".1" d="M25.04 5.699c-.367.305-.797.531-1.224.614l.737 18.53 12.304.336.537-15.477-2.097-1.427a2.807 2.807 0 0 1-.971-3.506c.181-.393.19-.83.026-1.232a1.524 1.524 0 0 0-.883-.858L31 1.75a1.556 1.556 0 0 0-1.522.258l-4.437 3.69z"/><path fill="#fff" fill-rule="evenodd" d="M17.847 36.36c-.77.26-1.533.565-2.27.905l-6.047 2.79a4.589 4.589 0 0 1-1.935.425c-.61 0-1.205-.118-1.768-.352a1.408 1.408 0 0 1-.667-2.024l.178-.298a3.776 3.776 0 0 0 .241-3.388l-4.056-9.67a4.444 4.444 0 0 1 2.249-5.783l7.681-3.526a.582.582 0 0 0 .212-.165l6.93-8.652a2.117 2.117 0 0 1 2.64-.557c.423.22.892.35 1.367.38l1.182 27.908z"/><path stroke="#000" stroke-width=".1" d="m17.83 36.313 5.904-1.958-1.135-27.86a3.49 3.49 0 0 1-1.387-.386 2.067 2.067 0 0 0-2.579.544l-6.929 8.652a.632.632 0 0 1-.23.18L3.793 19.01a4.394 4.394 0 0 0-2.224 5.72l4.057 9.669a3.826 3.826 0 0 1-.245 3.433l-.178.298a1.358 1.358 0 0 0 .643 1.952 4.544 4.544 0 0 0 1.75.348c.665 0 1.308-.141 1.913-.42l6.046-2.79c.74-.342 1.506-.647 2.276-.907z"/><path fill="#fff" fill-rule="evenodd" d="m38.782 41.965-1.38-3.459a1.736 1.736 0 0 0-1.621-1.098c-.494 0-.95.202-1.284.569l-.817.898a.492.492 0 0 1-.368.163.495.495 0 0 1-.435-.253l-1.217-2.134a5.82 5.82 0 0 0-5.044-2.935c-.57 0-1.134.085-1.68.251l-.334-7.902 16.642.389-1.15 17.428a5.294 5.294 0 0 1-1.312-1.917z"/><path stroke="#000" stroke-width=".1" d="M38.828 41.947c.29.727.734 1.372 1.216 1.932l1.199-17.375-16.591-.441.27 7.856a5.823 5.823 0 0 1 1.694-.253 5.87 5.87 0 0 1 5.087 2.96l1.217 2.135a.445.445 0 0 0 .392.227.434.434 0 0 0 .33-.147l.818-.898a1.768 1.768 0 0 1 1.32-.585c.74 0 1.394.443 1.668 1.13l1.38 3.459z"/><path fill="#fff" fill-rule="evenodd" d="m56.885 35.897-3.754 6.151a7.003 7.003 0 0 1-6.114 3.336l-3.456-.087a5.27 5.27 0 0 1-2.35-.62l.874-13.228 16.162 1.043c-.262 1.2-.72 2.353-1.362 3.405z"/><path stroke="#000" stroke-width=".1" d="M56.842 35.87c.636-1.041 1.095-2.19 1.401-3.328l-16.108-1.09-.9 13.18c.718.383 1.511.595 2.327.615l3.456.087.174.002c2.39 0 4.649-1.27 5.896-3.314l3.754-6.151z"/><path fill="#fbc300" fill-rule="evenodd" d="M56.885 35.897c-1.47 2.48-2.4 4.017-2.788 4.612-.435.668-1.633 3.05-2.135 3.156-.344.074-9.637-5.58-10.347-5.958l.47-6.258 16.162 1.043c-.262 1.2-.72 2.353-1.362 3.405z"/><path stroke="#000" stroke-width=".1" d="M56.842 35.871c.636-1.042 1.095-2.19 1.401-3.33l-16.108-1.088-.497 6.21c.221.118 4.667 2.767 5.01 2.97l.15.088c3.108 1.84 5.023 2.923 5.154 2.895.192-.04.535-.482 1.003-1.25.073-.12.15-.25.231-.388.035-.06.746-1.307.87-1.496.387-.595 1.316-2.132 2.786-4.61zm.086.052z"/><ellipse cx="51.244" cy="39.105" fill="#000" rx="1.46" ry="1.463"/><path fill="#fff" fill-rule="evenodd" d="M40.41 11.002a3.343 3.343 0 0 0 3.17-2.279l1.932-5.734.647 3.314a1.886 1.886 0 0 0 2.173 1.495.721.721 0 0 1 .822.552l1.486 6.828a.583.583 0 0 0 .09.207l5.836 8.51a11.113 11.113 0 0 1 1.87 7.436l-16.274-1.05.288-4.36a.587.587 0 0 0-.57-.624l-3.805-.089.49-14.77a3.31 3.31 0 0 0 1.845.564z"/><path stroke="#000" stroke-width=".1" d="M40.41 11.052c-.666 0-1.313-.198-1.795-.613l-.54 14.72 3.807.088a.634.634 0 0 1 .618.677l-.335 4.306 16.222 1.095a11.063 11.063 0 0 0-1.862-7.401l-5.837-8.51a.633.633 0 0 1-.097-.225L49.105 8.36a.671.671 0 0 0-.764-.514 1.936 1.936 0 0 1-2.231-1.535l-.55-3.307-1.932 5.734a3.393 3.393 0 0 1-3.218 2.313z"/><g transform="translate(43.942 50.488)"><path fill="#000" fill-rule="nonzero" stroke="#000" d="M4.238.31 1.834.11A1.637 1.637 0 0 0 .38.756 1.65 1.65 0 0 0 .101 2.2l.91 3.35a.585.585 0 0 0 .998.238l3.05-3.398c.32-.355.408-.851.233-1.295A1.237 1.237 0 0 0 4.238.311z"/><path fill="#fff" d="M4.192 1.605 1.857 4.206l-.63-2.315a.479.479 0 0 1 .082-.424.48.48 0 0 1 .428-.19l2.404.2a.07.07 0 0 1 .065.049.07.07 0 0 1-.014.08z"/></g><path fill="#000" d="m41.402 37.313 11.11 6.414-.732 1.267-11.11-6.413z"/></g></g></svg>