<svg xmlns="http://www.w3.org/2000/svg" width="75" height="63" viewBox="0 0 75 63"><g fill="none" fill-rule="evenodd"><circle cx="47.104" cy="54.954" r="6.792" stroke="#000" stroke-width="1.8"/><g fill="#000" transform="translate(.95 3.415)"><path d="M7.312 19.397h39.223c.474 0 .859-.386.859-.863a.861.861 0 0 0-.86-.863H7.313a.861.861 0 0 0-.86.863c0 .477.385.863.86.863z"/><path d="m50.877 18.19-.832-3.357h1.796c.475 0 .86-.386.86-.863a.861.861 0 0 0-.86-.863h-2.224l-2.242-9.043C46.82 1.82 44.578.06 42.274.06H11.572c-2.304 0-4.544 1.76-5.101 4.004l-2.242 9.043H2.005a.861.861 0 0 0-.86.863c0 .477.385.863.86.863h1.797l-.833 3.357-2.221 3.512C.322 22.377 0 23.488 0 24.287v12.5c0 .476.385.862.86.862h.286v6.3c0 .476.384.862.859.862h9.04c.475 0 .86-.386.86-.863v-3.71a.861.861 0 0 0-.86-.863.861.861 0 0 0-.859.863v2.848H2.864v-5.437h50.123c.474 0 .86-.386.86-.863v-12.5c0-.798-.322-1.91-.749-2.584zM1.718 24.287c0-.471.23-1.262.48-1.66l2.297-3.63a.867.867 0 0 0 .108-.254L8.14 4.48c.362-1.46 1.934-2.695 3.433-2.695h30.702c1.499 0 3.071 1.234 3.433 2.695l3.536 14.261c.022.09.059.176.108.255l2.296 3.63c.252.398.48 1.189.48 1.66v11.636h-12.8l-2.076-5.215a.86.86 0 0 0-.798-.543h-19.06a.86.86 0 0 0-.798.543l-2.075 5.215H1.718zm35.758 11.636H16.37l1.605-4.032H35.87z"/><path d="M4.296 31.604H7.53c2.562 0 4.646-2.093 4.646-4.666 0-2.572-2.084-4.665-4.646-4.665H4.931c-.475 0-.86.387-.86.863s.385.863.86.863h2.598a2.936 2.936 0 0 1 2.927 2.94c0 1.62-1.313 2.939-2.927 2.939H4.296c-.474 0-.859.386-.859.863s.385.863.86.863zM41.672 26.938c0 2.573 2.083 4.666 4.645 4.666h3.233c.474 0 .86-.387.86-.863s-.386-.863-.86-.863h-3.233a2.936 2.936 0 0 1-2.927-2.94c0-1.62 1.313-2.939 2.927-2.939h2.598c.475 0 .86-.386.86-.863s-.385-.863-.86-.863h-2.598c-2.562 0-4.645 2.093-4.645 4.665z"/></g><g transform="translate(20.181 43.415)"><path fill="#000" fill-rule="evenodd" d="M6.923 16.923V1.155C6.923.517 7.435 0 8.077 0 8.714 0 9.23.52 9.23 1.155v15.768h5.761c.642 0 1.162.512 1.162 1.154 0 .637-.52 1.154-1.162 1.154H1.162A1.155 1.155 0 0 1 0 18.077c0-.637.52-1.154 1.162-1.154z"/><path stroke="#fff" stroke-width=".2" d="m7.023 16.923-.1.1H1.162c-.587 0-1.062.472-1.062 1.054 0 .585.474 1.054 1.062 1.054h13.83c.587 0 1.062-.472 1.062-1.054 0-.585-.474-1.054-1.062-1.054H9.231l-.1-.1V1.155C9.13.574 8.658.1 8.077.1c-.585 0-1.054.47-1.054 1.055z"/></g><circle cx="52.5" cy="22.756" r="22" fill="#fff"/><circle cx="22" cy="22" r="19.938" fill="#fff" fill-rule="evenodd" transform="translate(30.5 .756)"/><circle cx="22" cy="22" r="18.438" stroke="#fbc300" stroke-width="3" transform="translate(30.5 .756)"/><g fill="#000"><path fill-rule="nonzero" stroke="#000" stroke-width=".5" d="M64.955 19.02c-.521-.542-1.123-.684-1.412-.748-.351-.083-.72-.1-1.077-.053-1.446-3.488-5.313-5.85-9.821-5.85-4.253 0-8.012 2.38-9.543 5.903-.448-.1-.908-.1-1.356.006-.289.064-.89.206-1.411.748-.097.1-.92.995-.726 2.274.187 1.266 1.242 2.056 2.143 2.256.312.07.63.065.941-.006l.08-.018c.09.16.38 1.002-.323 4.63a.624.624 0 0 0 .017.29c.414 1.378 1.083 2.05 2.177 2.18.023 0 .04.005.062.005v1.768c0 .324.256.589.567.589a.58.58 0 0 0 .567-.59v-1.767h13.61v1.768c0 .324.254.589.566.589s.567-.265.567-.59v-1.767c.023 0 .04 0 .063-.006 1.094-.13 1.769-.8 2.177-2.18a.624.624 0 0 0 .017-.288c-.703-3.635-.414-4.477-.323-4.63l.08.017c.306.07.629.077.935.006.902-.2 1.956-.99 2.143-2.256.193-1.285-.629-2.18-.72-2.28zm-12.31-5.473c4.003 0 7.434 2.026 8.738 5.037a5.13 5.13 0 0 0-.556.371c-.493.36-.93.807-1.276 1.326a5.812 5.812 0 0 0-.635 1.313c-.43 1.237-.555 2.71-.59 3.735H46.964c-.034-1.025-.164-2.498-.59-3.735a5.81 5.81 0 0 0-.635-1.313 5.252 5.252 0 0 0-1.275-1.326 6.23 6.23 0 0 0-.318-.224c1.355-3.093 4.706-5.184 8.5-5.184zm11.919 7.57c-.113.76-.817 1.184-1.259 1.278-.164.036-.329.03-.487-.011-.193-.042-.46-.095-.76.053-.947.442-1.05 2.126-.352 5.803-.357 1.09-.805 1.172-1.145 1.213H44.735c-.34-.041-.794-.124-1.146-1.213.698-3.677.596-5.361-.351-5.803-.3-.142-.567-.089-.76-.053a1.05 1.05 0 0 1-.488.011c-.442-.1-1.145-.518-1.259-1.278-.107-.713.403-1.26.403-1.267.29-.3.64-.382.856-.43.29-.07.596-.07.885 0 .374.089.607.26.936.495.385.283.725.63.992 1.031.21.324.374.678.499 1.043.46 1.337.533 3.034.533 3.923 0 .324.255.59.567.59h12.475a.58.58 0 0 0 .567-.59c0-.895.074-2.592.533-3.929a4.73 4.73 0 0 1 .499-1.043c.272-.4.607-.754.992-1.03.323-.236.562-.407.93-.496.295-.064.595-.064.89 0 .216.048.567.13.857.43.01.012.521.56.419 1.273z"/><g><circle cx="50.151" cy="17.81" r="1"/><circle cx="55.151" cy="17.81" r="1"/><circle cx="50.151" cy="21.81" r="1"/><circle cx="55.151" cy="21.81" r="1"/></g></g></g></svg>