<svg xmlns="http://www.w3.org/2000/svg" viewBox="0 0 512 512"><path fill="#fbc201" d="M260 22.7C131.4 22.7 26.7 127.4 26.7 256S131.4 489.3 260 489.3 493.3 384.6 493.3 256 388.7 22.7 260 22.7zm0 399c-91.5 0-165.7-74.2-165.7-165.7S168.5 90.3 260 90.3 425.7 164.5 425.7 256 351.5 421.7 260 421.7z"/><path d="M260 111.7c-79.5 0-144.3 64.7-144.3 144.3S180.5 400.3 260 400.3 404.3 335.5 404.3 256 339.6 111.7 260 111.7zm125.8 135.1h-70c-1.4-8.8-4.9-17-10-24l49.4-49.4c17.4 20 28.6 45.4 30.6 73.4zM269.1 130.2c27.9 2 53.4 13.1 73.4 30.4L293 210c-7-5-15.1-8.5-24-10zm-18.1 0v69.9c-8.8 1.4-17 4.9-24 10l-49.4-49.4c20-17.4 45.4-28.5 73.4-30.5zm-86.2 43.2 49.4 49.4c-5 7-8.5 15.1-10 24h-70c2.1-28 13.2-53.4 30.6-73.4zm-30.6 91.5h70c1.4 8.8 4.9 17 10 24l-49.5 49.5c-17.4-20-28.5-45.5-30.5-73.5zM251 381.8c-28-2-53.5-13.2-73.5-30.6l49.6-49.6c7 5 15.1 8.5 24 10-.1 0-.1 70.2-.1 70.2zm0-88.8v.1c-3.9-.9-7.6-2.5-10.9-4.5l.1-.1c-5.2-3.2-9.6-7.6-12.8-12.8l-.1.1c-2-3.3-3.6-7-4.5-10.9h.1c-.7-2.9-1.1-5.9-1.1-9.1s.4-6.1 1.1-9.1h-.1c.9-3.9 2.5-7.6 4.5-10.9l.1.1c3.2-5.2 7.6-9.6 12.8-12.8l-.1-.1c3.3-2 7-3.6 10.9-4.5v.1c2.9-.7 5.9-1.1 9.1-1.1 3.1 0 6.1.4 9.1 1.1v-.1c3.9.9 7.6 2.5 10.9 4.5l-.1.1c5.2 3.2 9.6 7.6 12.8 12.8l.1-.1c2 3.3 3.6 7 4.5 10.9h-.1c.7 2.9 1.1 5.9 1.1 9.1 0 3.1-.4 6.1-1.1 9.1h.1c-.9 3.9-2.5 7.6-4.5 10.9l-.1-.1c-3.2 5.2-7.6 9.6-12.8 12.8l.1.1c-3.3 2-7 3.6-10.9 4.5v-.1c-2.9.7-5.9 1.1-9.1 1.1s-6.2-.4-9.1-1.1zm18.1 88.8v-70.2c8.8-1.4 17-4.9 24-10l49.6 49.6c-20.1 17.4-45.6 28.6-73.6 30.6zm86.3-43.4-49.5-49.5c5-7 8.5-15.1 10-24h70c-2 28-13.2 53.5-30.5 73.5z"/></svg>