<svg xmlns="http://www.w3.org/2000/svg" width="46" height="62" viewBox="0 0 46 62"><g fill="none" fill-rule="nonzero" transform="translate(.5 .756)"><path fill="#000" d="M22.5 50.273a1.172 1.172 0 1 0 0 2.345 1.172 1.172 0 0 0 0-2.345z"/><g stroke="#fff" stroke-width=".8"><path fill="#000" d="M43.594 57.656h-3.516V53.79a3.52 3.52 0 0 0-3.516-3.516h-1.171v-1.171c0-1.56-1.021-2.884-2.429-3.343l-2.17-24.195a3.514 3.514 0 0 0-.089-6.597V9.375h1.172a1.172 1.172 0 0 0 0-2.344H30.62C30.059 3.09 26.67 0 22.5 0c-4.172 0-7.56 3.09-8.12 7.031h-1.255a1.172 1.172 0 0 0 0 2.344h1.172v5.59a3.517 3.517 0 0 0-.089 6.597l-2.17 24.197a3.521 3.521 0 0 0-2.429 3.343v1.171H8.437a3.52 3.52 0 0 0-3.515 3.516v3.867H1.406a1.172 1.172 0 0 0 0 2.344h42.188a1.172 1.172 0 0 0 0-2.344zM22.5 2.344a5.857 5.857 0 0 1 5.742 4.687H16.758A5.857 5.857 0 0 1 22.5 2.344zm5.86 7.031v5.39h-4.688v-5.39zm-11.72 0h4.688v5.39h-4.687zm-1.171 7.734H29.53a1.172 1.172 0 0 1 0 2.344H15.47a1.172 1.172 0 0 1 0-2.344zm13.049 5.333.58 6.465-13.815 6.908.634-7.072zM16.163 26l.377-4.202h8.027zm13.16 5.416.58 6.479-14.722 7.692h-.774l.63-7.028zm.807 9.005.463 5.166h-10.35zm7.604 17.236H7.266V53.79c0-.646.525-1.172 1.171-1.172h9.326a1.172 1.172 0 0 0 0-2.344h-5.81v-1.171c0-.647.526-1.172 1.172-1.172H31.876c.646 0 1.17.526 1.17 1.172v1.171h-5.81a1.172 1.172 0 0 0 0 2.344h9.326c.647 0 1.172.526 1.172 1.172z"/><path fill="#fbc300" d="m44.267 23.283-8.001-3.314a1.172 1.172 0 0 0-.897 2.165l8.001 3.314a1.172 1.172 0 1 0 .897-2.165zM44.901 7.061a1.172 1.172 0 0 0-1.53-.634L35.368 9.74a1.172 1.172 0 1 0 .897 2.165l8.001-3.314c.598-.248.882-.933.634-1.531zM41.25 14.766h-4.688a1.172 1.172 0 0 0 0 2.343h4.688a1.172 1.172 0 0 0 0-2.343zM9.631 9.74 1.63 6.428a1.172 1.172 0 0 0-.897 2.165l8.001 3.314a1.172 1.172 0 1 0 .897-2.165zM10.265 20.603a1.172 1.172 0 0 0-1.53-.634L.732 23.283a1.172 1.172 0 0 0 .897 2.165l8.001-3.314c.598-.247.882-.933.634-1.53zM8.438 14.766H3.75a1.172 1.172 0 0 0 0 2.343h4.688a1.172 1.172 0 0 0 0-2.343z"/></g></g></svg>