<svg xmlns="http://www.w3.org/2000/svg" viewBox="0 0 512 512"><path fill="#fbc201" d="M256 114.3c-84.3 0-152.9 68.6-152.9 152.9s68.6 153 152.9 153 152.9-68.6 152.9-152.9-68.6-153-152.9-153zm133.4 143.2h-74.2c-1.5-9.4-5.2-18-10.6-25.4l52.4-52.4c18.4 21.1 30.2 48.1 32.4 77.8zM265.6 133.9c29.6 2.1 56.6 13.9 77.8 32.2L291 218.5c-7.4-5.3-16-9-25.4-10.6zm-19.2 0V208c-9.4 1.5-18 5.2-25.4 10.6l-52.4-52.4c21.2-18.4 48.2-30.2 77.8-32.3zM155 179.7l52.4 52.4c-5.3 7.4-9 16-10.6 25.4h-74.2c2.2-29.7 14-56.7 32.4-77.8zm-32.4 97h74.2c1.5 9.4 5.2 18 10.6 25.4l-52.5 52.5c-18.4-21.2-30.2-48.2-32.3-77.9zm123.8 123.9c-29.7-2.1-56.7-14-78-32.4l52.5-52.5c7.4 5.3 16 9 25.4 10.6.1-.1.1 74.3.1 74.3zm0-94.1v.1c-4.1-1-8-2.6-11.6-4.8l.1-.1c-5.5-3.4-10.2-8-13.6-13.6l-.1.1c-2.2-3.5-3.8-7.4-4.8-11.6h.1c-.7-3.1-1.2-6.3-1.2-9.6s.4-6.5 1.2-9.6h-.1c1-4.1 2.6-8 4.8-11.6l.1.1c3.4-5.5 8-10.2 13.6-13.6l-.1-.1c3.5-2.2 7.4-3.8 11.6-4.8v.1c3.1-.7 6.3-1.2 9.6-1.2s6.5.4 9.6 1.2v-.1c4.1 1 8 2.6 11.6 4.8l-.1.1c5.5 3.4 10.2 8 13.6 13.6l.1-.1c2.2 3.5 3.8 7.4 4.8 11.6h-.1c.7 3.1 1.2 6.3 1.2 9.6s-.4 6.5-1.2 9.6h.1c-1 4.1-2.6 8-4.8 11.6l-.1-.1c-3.4 5.5-8 10.2-13.6 13.6l.1.1c-3.5 2.2-7.4 3.8-11.6 4.8v-.1c-3.1.7-6.3 1.2-9.6 1.2s-6.5-.5-9.6-1.2zm19.2 94.1v-74.4c9.4-1.5 18-5.2 25.4-10.6l52.5 52.5c-21.2 18.5-48.2 30.4-77.9 32.5zm91.5-46-52.5-52.5c5.3-7.4 9-16 10.6-25.4h74.2c-2.1 29.7-13.9 56.7-32.3 77.9z"/><path d="M386 479.4H126l-.4-.2c-35.5-21.9-65.2-52.6-85.9-88.9-21.3-37.4-32.6-79.9-32.6-123.1C7.1 130 118.8 18.4 256 18.4S504.9 130 504.9 267.3c0 43.2-11.3 85.7-32.6 123.1-20.7 36.2-50.4 66.9-85.9 88.9zm-259.1-3h258.2c34.9-21.6 64.1-51.9 84.5-87.6 21.1-36.9 32.2-78.9 32.2-121.6 0-135.6-110.3-245.9-245.9-245.9S10 131.6 10 267.2c0 42.6 11.1 84.7 32.2 121.6 20.5 35.6 49.8 65.9 84.7 87.6zm129.1-32c-97.7 0-177.2-79.5-177.2-177.2S158.3 90 256 90s177.2 79.5 177.2 177.2S353.7 444.4 256 444.4zM256 93c-96 0-174.2 78.1-174.2 174.2 0 96 78.1 174.2 174.2 174.2 96 0 174.2-78.1 174.2-174.2C430.2 171.2 352 93 256 93z"/></svg>