<svg xmlns="http://www.w3.org/2000/svg" width="77" height="62" viewBox="0 0 77 62"><g fill="none" fill-rule="evenodd" transform="translate(1.326 .756)"><g fill="#000" stroke-width="2"><path stroke="#fff" d="M21.163 30.28c.554-.9.226-2.051-.735-2.57l-3.48-1.881c-.961-.517-2.19-.21-2.744.688-.556.899-.226 2.05.735 2.57l3.48 1.879c.96.52 2.188.214 2.744-.687zm6.615-3.768c-3.069 0-5.556 2.498-5.556 5.581s2.487 5.581 5.556 5.581 5.555-2.498 5.555-5.581-2.487-5.581-5.555-5.581zm0 7.441a1.856 1.856 0 0 1-1.852-1.86c0-1.029.83-1.86 1.852-1.86s1.852.831 1.852 1.86c0 1.029-.83 1.86-1.852 1.86zm0-29.767C12.437 4.186 0 16.681 0 32.093S12.437 60 27.778 60c15.34 0 27.778-12.495 27.778-27.907S43.119 4.186 27.778 4.186zm0 52.093c-13.297 0-24.074-10.828-24.074-24.186S14.48 7.907 27.778 7.907s24.074 10.828 24.074 24.186-10.778 24.186-24.074 24.186zm0-31.628a1.856 1.856 0 0 0 1.852-1.86V19.07c0-1.03-.83-1.86-1.852-1.86s-1.852.83-1.852 1.86v3.72c0 1.03.83 1.861 1.852 1.861zm13.644 1.868c-.553-.899-1.783-1.206-2.742-.688l-3.48 1.88c-.961.52-1.29 1.67-.735 2.57.554.899 1.783 1.206 2.744.686l3.48-1.879c.96-.519 1.289-1.67.733-2.569zM27.778 11.628c-11.25 0-20.37 9.163-20.37 20.465s9.12 20.465 20.37 20.465 20.37-9.163 20.37-20.465-9.12-20.465-20.37-20.465zm0 37.21c-9.206 0-16.667-7.497-16.667-16.745 0-9.248 7.461-16.744 16.667-16.744 9.205 0 16.666 7.496 16.666 16.744s-7.46 16.744-16.666 16.744z"/><path stroke="#f6f6f6" d="M35.2 37.86a1.827 1.827 0 0 0-2.594 0 1.85 1.85 0 0 0 0 2.607l2.593 2.606a1.83 1.83 0 0 0 2.596 0 1.848 1.848 0 0 0 0-2.606zM18.01 40.467a1.827 1.827 0 0 0 0 2.594 1.85 1.85 0 0 0 2.608 0l2.605-2.594a1.83 1.83 0 0 0 0-2.595 1.848 1.848 0 0 0-2.605 0z"/></g><g transform="translate(30.556)"><ellipse cx="20.139" cy="20.233" fill="#fff" rx="20.139" ry="20.233"/><path fill="#fbc300" d="M43.934 41.678 33.917 31.615a17.629 17.629 0 0 0 3.98-11.183c0-9.74-7.866-17.641-17.56-17.641-9.702 0-17.56 7.902-17.56 17.64 0 9.74 7.858 17.642 17.56 17.642 4.226 0 8.096-1.495 11.123-3.99L41.477 44.14c.68.683 1.777.683 2.457 0 .68-.675.68-1.786 0-2.46zm-23.597-7.116c-7.763 0-14.073-6.339-14.073-14.13s6.31-14.139 14.073-14.139c7.755 0 14.073 6.348 14.073 14.139s-6.318 14.13-14.073 14.13z"/><ellipse cx="20.139" cy="20.233" fill="#fff" rx="14.583" ry="14.651"/><path fill="#000" d="M9.322 23.504a90.302 90.302 0 0 0 1.548-1.486c.468-.46.87-.893 1.209-1.297.338-.405.602-.782.791-1.13.19-.35.285-.682.285-.998 0-.438-.111-.77-.333-.998-.222-.228-.528-.342-.917-.342-.324 0-.611.09-.861.272-.25.182-.486.393-.708.635l-1.111-1.102c.435-.465.88-.816 1.333-1.054.454-.237.995-.355 1.625-.355.435 0 .83.067 1.187.202.357.135.665.325.924.572.26.246.458.542.597.886a3.07 3.07 0 0 1-.028 2.295 6.22 6.22 0 0 1-.631 1.158c-.264.387-.565.773-.903 1.159a30.13 30.13 0 0 1-1.049 1.137c.222-.028.47-.054.743-.077s.516-.035.73-.035h1.777v1.73H9.322zm10.68-.195c.306 0 .567-.114.785-.342s.326-.593.326-1.095c0-.475-.108-.807-.326-.998-.218-.19-.493-.286-.826-.286-.223 0-.45.065-.68.195-.232.13-.45.359-.654.684.047.354.116.647.209.88.092.232.199.42.32.564a1.054 1.054 0 0 0 .846.398zm1.778-5.372a2.156 2.156 0 0 0-.611-.44 1.685 1.685 0 0 0-1.444-.048c-.213.093-.4.248-.563.467-.162.219-.294.505-.396.858-.102.354-.162.786-.18 1.298.11-.15.24-.282.389-.398.148-.116.3-.214.458-.293.157-.079.315-.14.472-.181.158-.042.306-.063.445-.063.38 0 .729.056 1.048.167.32.112.597.28.834.503.236.223.418.507.548.85.13.345.195.75.195 1.215s-.08.879-.237 1.242-.368.674-.631.935c-.264.26-.575.458-.931.593s-.734.202-1.132.202c-.426 0-.84-.084-1.243-.251s-.76-.428-1.07-.782c-.31-.353-.557-.807-.743-1.36-.185-.554-.277-1.221-.277-2.002 0-.828.1-1.545.298-2.15.2-.604.463-1.102.792-1.492.329-.391.708-.682 1.139-.872.43-.191.877-.286 1.34-.286.583 0 1.088.104 1.514.313.426.21.778.459 1.056.747zm2.93 4.367c.27.242.559.45.869.621.31.172.655.258 1.034.258.454 0 .815-.116 1.084-.348.268-.233.403-.577.403-1.033 0-.447-.128-.786-.382-1.019s-.59-.348-1.007-.348c-.13 0-.246.007-.348.02-.101.014-.2.04-.298.077s-.2.084-.306.14a4.59 4.59 0 0 0-.354.21l-.917-.587.25-4.48h5v1.731h-3.236l-.152 1.66c.166-.074.326-.127.479-.16.153-.032.321-.049.507-.049.38 0 .738.056 1.076.168.338.111.637.279.896.502.26.223.463.507.611.851.148.344.222.754.222 1.228a3.1 3.1 0 0 1-.264 1.312 2.93 2.93 0 0 1-.708.97 3.074 3.074 0 0 1-1.035.607 3.65 3.65 0 0 1-1.229.209c-.722 0-1.333-.119-1.833-.356s-.926-.533-1.278-.886z"/></g></g></svg>