<svg xmlns="http://www.w3.org/2000/svg" width="76" height="63" viewBox="0 0 76 63"><g fill="none" fill-rule="evenodd"><g fill="#000" stroke="#fff" stroke-width="2" transform="translate(1.453 6.169)"><path d="M21.163 26.093c.554-.899.226-2.05-.735-2.57l-3.48-1.88c-.961-.517-2.19-.21-2.744.688-.556.899-.226 2.05.735 2.57l3.48 1.879c.96.52 2.188.213 2.744-.687zm6.615-3.767c-3.069 0-5.556 2.498-5.556 5.581s2.487 5.581 5.556 5.581 5.555-2.498 5.555-5.581-2.487-5.581-5.555-5.581zm0 7.441a1.856 1.856 0 0 1-1.852-1.86c0-1.029.83-1.86 1.852-1.86s1.852.831 1.852 1.86c0 1.029-.83 1.86-1.852 1.86zm0-29.767C12.437 0 0 12.495 0 27.907s12.437 27.907 27.778 27.907c15.34 0 27.778-12.495 27.778-27.907S43.119 0 27.778 0zm0 52.093c-13.297 0-24.074-10.828-24.074-24.186S14.48 3.721 27.778 3.721s24.074 10.828 24.074 24.186-10.778 24.186-24.074 24.186zm0-31.628a1.856 1.856 0 0 0 1.852-1.86v-3.721c0-1.03-.83-1.86-1.852-1.86s-1.852.83-1.852 1.86v3.72c0 1.03.83 1.861 1.852 1.861zm13.644 1.868c-.553-.899-1.783-1.206-2.742-.688l-3.48 1.88c-.961.52-1.29 1.67-.735 2.57.554.898 1.783 1.205 2.744.686l3.48-1.879c.96-.519 1.289-1.67.733-2.569zM27.778 7.442c-11.25 0-20.37 9.163-20.37 20.465s9.12 20.465 20.37 20.465 20.37-9.163 20.37-20.465-9.12-20.465-20.37-20.465zm0 37.21c-9.206 0-16.667-7.497-16.667-16.745 0-9.248 7.461-16.744 16.667-16.744 9.205 0 16.666 7.496 16.666 16.744s-7.46 16.744-16.666 16.744z"/><path d="M35.2 33.673a1.827 1.827 0 0 0-2.594 0 1.85 1.85 0 0 0 0 2.608l2.593 2.606a1.83 1.83 0 0 0 2.596 0 1.848 1.848 0 0 0 0-2.606zM18.01 36.281a1.827 1.827 0 0 0 0 2.594 1.85 1.85 0 0 0 2.608 0l2.605-2.594a1.83 1.83 0 0 0 0-2.595 1.848 1.848 0 0 0-2.605 0z"/></g><g fill-rule="nonzero" transform="translate(33.27 .36)"><path fill="#fff" d="M41.941 6.087 21.79.079a1.016 1.016 0 0 0-.578 0L1.059 6.087a1.002 1.002 0 0 0-.717.96v22.028c0 8.855 13.586 16.732 20.86 18.98a1.005 1.005 0 0 0 .597 0c7.275-2.25 20.862-10.125 20.862-18.98V7.046c0-.443-.293-.831-.72-.96z"/><g transform="translate(3.18 2.79)"><path fill="#000" stroke="#000" stroke-width=".5" d="M29.692 14.184a.889.889 0 0 0-1.246 0l-11.709 11.57-6.425-6.347a.889.889 0 0 0-1.246 0 .864.864 0 0 0 0 1.23l7.047 6.964a.89.89 0 0 0 1.246 0L29.69 15.415a.864.864 0 0 0 0-1.231z"/><path fill="#fbc300" fill-rule="evenodd" d="M36.369 5.26 18.75.036a.893.893 0 0 0-.506 0L.627 5.259A.872.872 0 0 0 0 6.093v19.151c0 7.699 11.878 14.546 18.238 16.501a.884.884 0 0 0 .522 0c6.36-1.957 18.238-8.802 18.238-16.501V6.094a.873.873 0 0 0-.63-.835zm-1.133 19.984c0 6.113-9.801 12.54-16.737 14.756-6.936-2.216-16.737-8.643-16.737-14.756V6.741L18.499 1.78l16.737 4.962z"/><path stroke="#fbc300" stroke-width=".5" d="M36.44 5.02c.48.143.808.578.808 1.073v19.151c0 6.664-9.434 13.977-18.415 16.74a1.133 1.133 0 0 1-.668 0C9.186 39.224-.25 31.908-.25 25.244V6.094c0-.496.329-.933.806-1.074L18.175-.203c.211-.063.435-.063.647 0zm-1.454 1.908L18.499 2.04 2.012 6.928v18.316c0 5.255 8.211 11.826 16.487 14.494 8.275-2.668 16.487-9.24 16.487-14.494z"/></g></g></g></svg>