<svg xmlns="http://www.w3.org/2000/svg" viewBox="0 0 512 512"><path d="M258.3 486.6c-61.9 0-120.3-24.3-164.5-68.5C49.6 374 25.3 315.6 25.3 253.7S49.6 133.4 93.8 89.2s102.6-68.5 164.5-68.5S378.6 45 422.8 89.2s68.5 102.6 68.5 164.5-24.4 120.3-68.6 164.4c-44.1 44.2-102.5 68.5-164.4 68.5zm0-462.8c-61.1 0-118.7 24-162.3 67.6S28.4 192.6 28.4 253.7 52.4 372.4 96 416s101.2 67.6 162.3 67.6 118.7-24 162.3-67.6 67.6-101.2 67.6-162.3-24-118.7-67.6-162.3C377 47.8 319.3 23.8 258.3 23.8zm0 380.6c-83.1 0-150.7-67.6-150.7-150.7S175.2 103 258.3 103 409 170.6 409 253.7s-67.6 150.7-150.7 150.7zm0-298.4c-81.4 0-147.6 66.2-147.6 147.6s66.2 147.6 147.6 147.6S405.9 335 405.9 253.6 339.7 106 258.3 106z"/><path fill="#fbc201" d="M326.1 253.7c0-2.5-.5-4.9-.7-7.4l49-28.3c-5.5-17.7-14.6-33.8-27-47.1l-49.1 28.3c-4-3-8.3-5.6-12.9-7.6v-56.7c-8.8-2-17.8-3.3-27.1-3.3-9.4 0-18.4 1.3-27.1 3.3v56.7c-4.6 2-8.9 4.7-12.9 7.6l-49.1-28.3c-12.3 13.3-21.5 29.3-27 47.1l49 28.3c-.3 2.5-.7 4.9-.7 7.4s.5 4.9.7 7.4l-49 28.3c5.5 17.7 14.6 33.8 27 47.1l49.1-28.3c4 3 8.3 5.6 12.9 7.6v56.7c8.8 2 17.8 3.3 27.1 3.3 9.4 0 18.4-1.3 27.1-3.3v-56.7c4.6-2 8.9-4.7 12.9-7.6l49.1 28.3c12.3-13.3 21.5-29.3 27-47.1l-49-28.3c.2-2.5.7-4.9.7-7.4zm-67.8 13.5c-7.5 0-13.6-6.1-13.6-13.6s6.1-13.6 13.6-13.6 13.6 6.1 13.6 13.6c-.1 7.6-6.1 13.6-13.6 13.6z"/><path d="m133.7 125.5-11.1 11.6-2.4-2.3-.2-8.2c-.1-1.7-.1-3-.2-4.1s-.3-1.9-.5-2.6-.7-1.3-1.2-1.8c-.7-.6-1.3-.9-2-.9-.7.1-1.3.4-1.9 1s-1.1 1.4-1.4 2.3-.5 1.9-.6 3.1l-4.1-.2c0-.9.1-1.7.3-2.6.1-.9.4-1.8.9-2.7s1.2-1.9 2.1-2.9c1-1.1 2.1-1.8 3.3-2.3s2.3-.5 3.3-.3c1.1.2 2 .7 2.9 1.5.9.9 1.6 1.8 2 2.9s.6 2.3.7 3.7.1 3 .1 4.9v4.1l.2.2 6.9-7.3zM139.7 105.2c1.2 1.4 2.2 2.7 2.9 4s1.2 2.5 1.4 3.7 0 2.3-.4 3.4-1.2 2.1-2.3 3c-1.4 1.2-2.9 1.8-4.4 1.9s-3-.4-4.6-1.3c-1.6-1-3.2-2.4-4.8-4.2-1.6-1.9-2.8-3.6-3.5-5.3s-1-3.2-.7-4.7 1.2-2.9 2.7-4.1c1.4-1.2 2.8-1.8 4.4-1.9 1.5-.1 3.1.4 4.6 1.3s3.1 2.3 4.7 4.2zm-8.5 7.3c1.1 1.3 2.2 2.4 3.1 3.1.9.8 1.7 1.2 2.5 1.3s1.4-.1 2-.6.9-1.2.9-1.9-.3-1.6-.9-2.6-1.5-2.2-2.6-3.5-2.2-2.4-3.1-3.1c-.9-.8-1.7-1.2-2.5-1.3-.7-.1-1.4.1-2 .6s-.9 1.2-.9 1.9.4 1.6 1 2.6c.5 1.1 1.3 2.2 2.5 3.5zM147.2 95.9c1.2-.8 2.3-1.3 3.5-1.5s2.4 0 3.5.4 2.1 1.3 3 2.6 1.5 2.7 1.6 4.1-.2 2.7-.9 4-2 2.5-3.6 3.7c-1 .7-2 1.3-3 1.7s-1.9.7-2.8.8l-2.4-3.4c.9-.1 1.9-.4 3-.8s2-.9 2.8-1.5 1.4-1.1 1.8-1.7.6-1.2.6-1.8-.3-1.3-.8-2c-.6-.9-1.4-1.4-2.4-1.5s-2.1.4-3.4 1.3c-.5.3-1 .7-1.4 1.2-.5.5-.8.9-1.1 1.2l-2.2.3-6-10 10.2-7.2 2.3 3.4-6.7 4.7 2.2 3.9.8-.8c.3-.3.8-.7 1.4-1.1zM170.6 72.7l2.9 24.2-3.9 2-2.9-24.2zM192.3 72.6c1.3-.5 2.6-.7 3.8-.5 1.2.1 2.3.6 3.2 1.3.9.8 1.7 1.8 2.2 3.3.6 1.5.7 3 .5 4.4s-.9 2.6-2 3.6-2.5 1.9-4.4 2.6c-1.1.4-2.2.7-3.3.9s-2.1.2-2.9.1l-1.4-3.9c.9.1 1.9.1 3.1 0 1.1-.1 2.2-.3 3.1-.7.9-.3 1.6-.7 2.2-1.2.5-.5.9-1 1-1.6s.1-1.3-.2-2.1c-.4-1-1-1.7-1.9-2s-2.1-.2-3.6.3c-.6.2-1.1.5-1.7.8s-1 .6-1.4.9l-2.2-.3-3.2-11.2 11.7-4.3 1.4 3.9-7.7 2.8 1.1 4.4c.3-.2.7-.4 1-.6.4-.4.9-.6 1.6-.9zM210.8 67c1.4-.3 2.6-.4 3.8-.1 1.2.2 2.2.8 3.1 1.6s1.5 2 1.9 3.5c.4 1.6.4 3.1 0 4.4s-1.1 2.5-2.3 3.4-2.7 1.7-4.7 2.2c-1.2.3-2.3.5-3.4.5-1.1.1-2.1 0-2.9-.2l-1-4c.9.2 1.9.3 3 .3 1.2 0 2.2-.1 3.2-.4.9-.2 1.7-.6 2.3-1s1-.9 1.2-1.5.2-1.3 0-2.1c-.3-1.1-.8-1.8-1.7-2.2s-2.1-.4-3.6 0c-.6.1-1.2.4-1.8.6-.6.3-1.1.5-1.5.7l-2.1-.5-2-11.5 12.1-3.1 1 4-8 2 .7 4.5c.3-.2.7-.3 1.1-.5.3-.2.9-.4 1.6-.6zM246.9 53.2c2.1-.1 3.8.1 5.2.5s2.4 1.1 3.1 2.1 1.1 2.2 1.2 3.8c.1 1-.1 2-.5 2.8s-.9 1.5-1.5 2.1-1.3 1.1-2 1.4l7.3 9.6-5.4.3-5.9-8.5-2.6.1.4 8.8-4.9.2-1.1-22.8zm-.1 4-1.5.1.3 6.2 1.6-.1c1.6-.1 2.8-.4 3.4-1 .7-.6 1-1.4.9-2.4-.1-1.1-.5-1.8-1.2-2.3-.8-.4-2-.6-3.5-.5zM272.4 76.3l-4.9-.3.7-13.2c0-.4 0-.8.1-1.3 0-.5.1-1.1.1-1.7.1-.6.1-1.1.1-1.5-.1.1-.4.3-.7.7-.4.3-.7.6-1 .8l-2.8 2-2.2-3 7.7-5.4 4 .2zM279.6 67.1c.2-1.3.5-2.6.9-3.8s.9-2.4 1.6-3.4c.7-1.1 1.5-1.9 2.5-2.7 1-.7 2.2-1.3 3.6-1.5 1.4-.3 3.1-.3 4.9 0 .4.1 1 .2 1.6.3s1.1.3 1.5.4l-.6 3.8c-.4-.2-.8-.3-1.3-.4s-.9-.2-1.4-.3c-1.9-.3-3.4-.2-4.5.2s-2 1.2-2.6 2.1-1 2.2-1.3 3.6h.2c.4-.5.8-.9 1.3-1.2s1.1-.6 1.8-.7 1.4-.1 2.3 0c1.3.2 2.4.7 3.3 1.4s1.5 1.6 1.9 2.8c.4 1.1.4 2.5.2 4-.3 1.6-.8 3-1.6 4.1s-1.8 1.8-3.1 2.3c-1.3.4-2.7.5-4.3.3-1.2-.2-2.2-.5-3.2-1.1-.9-.6-1.7-1.3-2.4-2.2-.6-.9-1.1-2-1.3-3.4s-.2-2.9 0-4.6zm7.3 7.3c.9.1 1.8-.1 2.5-.6s1.1-1.5 1.4-2.9c.2-1.1 0-2-.4-2.7s-1.1-1.1-2.2-1.3c-.7-.1-1.3 0-1.9.2s-1.1.6-1.4 1c-.4.4-.6.9-.7 1.4s-.1 1.1 0 1.6.2 1 .4 1.5.5.9.9 1.2c.4.4.9.6 1.4.6zM331.2 76.7c-.4 1.2-1 2.4-1.6 3.6s-1.3 2.2-2.2 3.1c-.8.9-1.8 1.6-2.9 2.2-1.1.5-2.4.8-3.8.8s-3-.3-4.8-.9c-.4-.2-.9-.3-1.5-.6l-1.4-.7 1.3-3.6c.4.2.8.5 1.2.7s.9.4 1.3.6c1.8.6 3.3.9 4.5.6s2.2-.8 2.9-1.6c.8-.9 1.4-2 1.9-3.3l-.2-.1c-.5.4-.9.7-1.5.9-.5.2-1.1.4-1.8.4s-1.5-.2-2.4-.5c-1.2-.4-2.2-1.1-2.9-2s-1.2-1.9-1.3-3.1.1-2.5.6-4c.6-1.6 1.3-2.8 2.3-3.7s2.2-1.4 3.5-1.6 2.7 0 4.2.5c1.1.4 2.1 1 2.9 1.7s1.5 1.6 1.9 2.6.7 2.2.6 3.6c.1 1.3-.2 2.8-.8 4.4zm-5.7-8.6c-.9-.3-1.7-.3-2.5.1s-1.4 1.3-1.9 2.6c-.4 1-.4 2-.2 2.7s.9 1.4 1.9 1.7c.7.2 1.3.3 1.9.2s1.1-.4 1.6-.7.8-.8.9-1.3c.2-.5.3-1 .3-1.6 0-.5 0-1.1-.1-1.6s-.4-.9-.7-1.3c-.3-.3-.7-.6-1.2-.8zM339.4 95l-4.4-2.1 5.7-11.9c.2-.3.4-.7.6-1.2s.5-1 .8-1.5.5-1 .7-1.4c-.2.1-.5.2-.9.3-.5.1-.9.3-1.3.4l-3.3.8-.9-3.6 9.2-2.1 3.6 1.7zM373.4 88.4l-18.6 15.4-4.5-2.8 5.3-23.6 4.2 2.6-3.4 13.9c-.1.2-.2.7-.4 1.3s-.4 1.3-.6 2-.4 1.2-.6 1.7c.3-.4.7-.8 1.2-1.3s1-1 1.5-1.4c.5-.5.8-.8 1-.9l10.8-9.3z"/></svg>