<svg xmlns="http://www.w3.org/2000/svg" width="78" height="64" viewBox="0 0 78 64"><g fill="none" fill-rule="evenodd"><g fill="#000" fill-rule="evenodd" stroke-width="2" transform="translate(1.326 6.942)"><path stroke="#fff" d="M21.163 26.093c.554-.899.226-2.05-.735-2.57l-3.48-1.88c-.961-.517-2.19-.21-2.744.688-.556.899-.226 2.05.735 2.57l3.48 1.879c.96.52 2.188.213 2.744-.687zm6.615-3.767c-3.069 0-5.556 2.498-5.556 5.581s2.487 5.581 5.556 5.581 5.555-2.498 5.555-5.581-2.487-5.581-5.555-5.581zm0 7.441a1.856 1.856 0 0 1-1.852-1.86c0-1.029.83-1.86 1.852-1.86s1.852.831 1.852 1.86c0 1.029-.83 1.86-1.852 1.86zm0-29.767C12.437 0 0 12.495 0 27.907s12.437 27.907 27.778 27.907c15.34 0 27.778-12.495 27.778-27.907S43.119 0 27.778 0zm0 52.093c-13.297 0-24.074-10.828-24.074-24.186S14.48 3.721 27.778 3.721s24.074 10.828 24.074 24.186-10.778 24.186-24.074 24.186zm0-31.628a1.856 1.856 0 0 0 1.852-1.86v-3.721c0-1.03-.83-1.86-1.852-1.86s-1.852.83-1.852 1.86v3.72c0 1.03.83 1.861 1.852 1.861zm0-13.023c-11.25 0-20.37 9.163-20.37 20.465s9.12 20.465 20.37 20.465 20.37-9.163 20.37-20.465-9.12-20.465-20.37-20.465zm0 37.21c-9.206 0-16.667-7.497-16.667-16.745 0-9.248 7.461-16.744 16.667-16.744 9.205 0 16.666 7.496 16.666 16.744s-7.46 16.744-16.666 16.744z"/><g stroke="#f6f6f6"><path d="M35.2 33.673a1.827 1.827 0 0 0-2.594 0 1.85 1.85 0 0 0 0 2.608l2.593 2.606a1.83 1.83 0 0 0 2.596 0 1.848 1.848 0 0 0 0-2.606zM18.01 36.281a1.827 1.827 0 0 0 0 2.594 1.85 1.85 0 0 0 2.608 0l2.605-2.594a1.83 1.83 0 0 0 0-2.595 1.848 1.848 0 0 0-2.605 0z"/></g></g><g transform="translate(33.964 .663)"><ellipse cx="22" cy="22.5" fill="#fff" fill-rule="evenodd" rx="22" ry="22.5"/><ellipse cx="22" cy="22.5" fill="#fff" fill-rule="evenodd" rx="19.938" ry="20.391"/><ellipse cx="22" cy="22.5" stroke="#fbc300" stroke-width="3" rx="18.438" ry="18.891"/><g fill="#000" fill-rule="evenodd" transform="rotate(45 2.265 41.519)"><rect width="2.063" height="15.08" x="2.3" y=".689" rx="1.031"/><ellipse cx="3.331" cy="14.424" rx="2.75" ry="2.813"/></g></g></g></svg>