<svg xmlns="http://www.w3.org/2000/svg" viewBox="0 0 512 512"><path d="M254.1 235.1c-16.5 0-30 13.4-30 30 0 16.5 13.4 30 30 30 16.5 0 30-13.5 30-30s-13.5-30-30-30zm0 42.9c-7.1 0-12.9-5.8-12.9-12.9s5.8-12.9 12.9-12.9S267 258 267 265.1s-5.8 12.9-12.9 12.9z"/><path d="M481 139.8c0-56-45.6-101.6-101.6-101.6-23.2 0-44.6 7.8-61.8 21-20.5-6.3-41.8-9.5-63.5-9.5-57.6 0-111.7 22.4-152.3 63.1-40.8 40.7-63.2 94.8-63.2 152.3 0 57.6 22.4 111.7 63.1 152.3 40.7 40.7 94.8 63.1 152.3 63.1s111.7-22.4 152.3-63.1c40.7-40.7 63.1-94.8 63.1-152.3 0-21.7-3.2-43-9.5-63.5 13.3-17.1 21.1-38.5 21.1-61.8zm-17.1 0c0 46.6-37.9 84.6-84.6 84.6-46.6 0-84.6-37.9-84.6-84.6 0-46.6 37.9-84.6 84.6-84.6 46.7.1 84.6 38 84.6 84.6zm-65.4 125.3c0 79.6-64.8 144.4-144.4 144.4s-144.4-64.8-144.4-144.4 64.8-144.4 144.4-144.4c8.4 0 16.8.7 25.1 2.2-.7 4-1.1 8.1-1.3 12.3-2.6-.5-5.3-.9-7.9-1.2-5.2-.6-10.5-.9-15.8-.9-21.1 0-41.4 4.8-60.1 14.4-17.8 9.1-33.6 22.4-45.7 38.5-17.3 23-26.4 50.4-26.4 79.3 0 72.9 59.3 132.2 132.2 132.2 21.1 0 41.4-4.8 60.1-14.4 17.8-9.1 33.6-22.4 45.7-38.5 17.3-23 26.4-50.4 26.4-79.3 0-8-.7-15.9-2.1-23.7 4.2-.2 8.2-.6 12.3-1.3 1.2 8 1.9 16.4 1.9 24.8zm-31.9-24.4c1.7 8 2.6 16.2 2.6 24.4 0 12.3-1.9 24.3-5.6 35.6L316.9 270c-2.4-1.6-2.7-4-2.7-4.9 0-1 .3-3.4 2.7-4.9l34.4-22.6c5 1.4 10.1 2.4 15.3 3.1zm-59 5.2c-6.5 4.3-10.4 11.4-10.4 19.2s3.9 14.9 10.4 19.2l49.4 32.5c-2 4-4.2 7.8-6.7 11.6l-52.8-26.5c-6.9-3.5-15.1-3.2-21.8.6-6.7 3.9-11 10.8-11.4 18.6l-3.4 59c-2.2.1-4.4.2-6.7.2-2.2 0-4.5-.1-6.7-.2l-3.4-59c-.5-7.7-4.7-14.7-11.5-18.6-6.7-3.9-14.9-4.1-21.8-.6L158 328.4c-2.5-3.7-4.7-7.6-6.7-11.6l49.4-32.5c6.5-4.3 10.4-11.4 10.4-19.2s-3.9-14.9-10.4-19.2l-49.4-32.5c2-4 4.2-7.8 6.7-11.6l52.8 26.5c3.3 1.6 6.8 2.5 10.3 2.5 4 0 7.9-1 11.5-3.1 6.7-3.9 11-10.8 11.5-18.6l3.4-59c2.2-.1 4.4-.2 6.7-.2 2.2 0 4.5.1 6.7.2l3.4 59c.5 7.7 4.7 14.7 11.4 18.6 3.6 2.1 7.5 3.1 11.5 3.1 3.5 0 7.1-.8 10.3-2.5l18.4-9.2c5 4 10.5 7.6 16.2 10.7zm32.1 96.2c-16.4 18.3-37.9 30.7-61.7 35.6l3.2-55.8c.2-2.9 2.1-4.3 3-4.8.8-.5 3-1.5 5.6-.2zm-109.5 35.6c-24.2-5.1-45.6-17.9-61.6-35.6l49.8-25c2.6-1.3 4.8-.3 5.6.2s2.8 1.9 3 4.8zM139 265.1c0-12.3 1.9-24.2 5.6-35.6l46.7 30.7c2.4 1.6 2.7 4 2.7 4.9 0 1-.3 3.4-2.7 5l-46.6 30.7c-3.7-11.3-5.7-23.3-5.7-35.7zm29.5-77c16.4-18.3 37.9-30.7 61.7-35.6l-3.2 55.8c-.2 2.9-2.1 4.3-2.9 4.8s-3 1.5-5.6.2zm121.3 25.1c-2.6 1.3-4.8.3-5.6-.2s-2.8-1.9-3-4.8l-3.2-55.7c.2 0 .3.1.5.1 2.6 20.5 11.3 39.2 24.3 54zm-35.7 250.3c-109.4 0-198.4-89-198.4-198.4s89-198.4 198.4-198.4c16.6 0 33 2.1 48.9 6.1-8.5 9.7-15.2 21-19.6 33.5-9.6-1.8-19.5-2.7-29.3-2.7-89 0-161.5 72.4-161.5 161.5S165 426.6 254.1 426.6s161.5-72.4 161.5-161.5c0-9.9-.9-19.7-2.7-29.3 12.4-4.4 23.8-11.1 33.5-19.6 4 15.9 6.1 32.3 6.1 48.9 0 109.4-89 198.4-198.4 198.4z"/><g fill="#fbc201"><path d="M379.3 214c40.9 0 74.1-33.3 74.1-74.1 0-40.9-33.3-74.1-74.1-74.1-40.9 0-74.1 33.3-74.1 74.1s33.3 74.1 74.1 74.1zm0-17.2c-28.5 0-52.2-21-56.3-48.4h4.2c4.7 0 8.5-3.8 8.5-8.5s-3.8-8.5-8.5-8.5H323c.6-4.3 1.8-8.3 3.3-12.2l3.6 2.1c1.3.8 2.8 1.1 4.3 1.1 2.9 0 5.8-1.5 7.4-4.3 2.3-4.1 1-9.3-3.1-11.6l-3.6-2.1c2.6-3.3 5.6-6.3 8.9-8.9l2.1 3.6c1.6 2.7 4.4 4.3 7.4 4.3 1.4 0 2.9-.4 4.3-1.1 4.1-2.4 5.5-7.6 3.1-11.6l-2.1-3.6c3.9-1.5 8-2.6 12.2-3.3V88c0 4.7 3.8 8.5 8.5 8.5s8.5-3.8 8.5-8.5v-4.2c4.3.6 8.3 1.8 12.2 3.3l-2.1 3.7c-2.4 4.1-1 9.3 3.1 11.6 1.3.8 2.8 1.1 4.3 1.1 2.9 0 5.8-1.5 7.4-4.3l2.1-3.6c3.3 2.6 6.3 5.6 8.9 8.9l-3.6 2.1c-4.1 2.4-5.5 7.6-3.1 11.6 1.6 2.7 4.4 4.3 7.4 4.3 1.4 0 2.9-.4 4.3-1.1l3.6-2.1c1.5 3.9 2.7 8 3.3 12.2h-4.2c-4.7 0-8.5 3.8-8.5 8.5s3.8 8.5 8.5 8.5h4.2c-4.1 27.2-27.8 48.3-56.3 48.3z"/><path d="M369.7 118.2c-3.3-3.3-8.7-3.3-12.1 0-3.3 3.3-3.3 8.7 0 12.1l15.6 15.7c1.7 1.7 3.8 2.5 6 2.5s4.4-.8 6-2.5c3.3-3.3 3.3-8.7 0-12.1z"/></g></svg>