<svg xmlns="http://www.w3.org/2000/svg" width="72" height="78" viewBox="0 0 72 78"><g fill="none" fill-rule="evenodd"><circle cx="61.486" cy="67.857" r="8.5" stroke="#fac612" stroke-width="3"/><g fill="#000"><g stroke="#000" transform="translate(1.486 .857)"><path d="M9.505 25.216h50.99c.617 0 1.117-.502 1.117-1.122s-.5-1.122-1.117-1.122H9.505c-.617 0-1.117.503-1.117 1.122s.5 1.122 1.117 1.122z"/><path d="m66.14 23.647-1.082-4.364h2.336c.617 0 1.117-.502 1.117-1.122s-.5-1.122-1.117-1.122h-2.892L61.588 5.284C60.864 2.364 57.95.079 54.956.079H15.044c-2.995 0-5.908 2.286-6.632 5.205L5.498 17.039H2.606c-.617 0-1.117.503-1.117 1.122s.5 1.122 1.117 1.122h2.336L3.86 23.647.972 28.213C.418 29.09 0 30.534 0 31.573v16.25c0 .619.5 1.12 1.117 1.12h.372v8.19c0 .62.5 1.122 1.117 1.122H14.36a1.12 1.12 0 0 0 1.117-1.122v-4.824c0-.62-.5-1.121-1.117-1.121s-1.117.502-1.117 1.121v3.702H3.723v-7.067h65.16A1.12 1.12 0 0 0 70 47.822v-16.25c0-1.038-.418-2.482-.973-3.359zM2.234 31.573c0-.612.298-1.64.624-2.157l2.985-4.72c.065-.102.112-.214.141-.33l4.596-18.54c.471-1.9 2.515-3.504 4.464-3.504h39.912c1.949 0 3.993 1.605 4.464 3.504l4.595 18.54c.03.116.077.228.141.33l2.985 4.72c.327.517.625 1.545.625 2.157V46.7H51.125l-2.698-6.78a1.117 1.117 0 0 0-1.038-.705H22.611c-.457 0-.868.28-1.038.705l-2.698 6.78H2.234zM48.719 46.7H21.28l2.086-5.241h23.266z"/><path d="M5.585 41.085h4.203c3.33 0 6.039-2.72 6.039-6.065 0-3.344-2.709-6.065-6.039-6.065H6.41c-.617 0-1.117.503-1.117 1.122s.5 1.122 1.117 1.122h3.378c2.098 0 3.805 1.714 3.805 3.821s-1.707 3.821-3.805 3.821H5.585c-.617 0-1.117.502-1.117 1.122s.5 1.122 1.117 1.122zM54.173 35.02c0 3.344 2.709 6.065 6.039 6.065h4.203c.617 0 1.117-.503 1.117-1.122s-.5-1.122-1.117-1.122h-4.203c-2.098 0-3.805-1.714-3.805-3.821s1.707-3.821 3.805-3.821h3.378c.617 0 1.117-.502 1.117-1.122s-.5-1.122-1.117-1.122h-3.378c-3.33 0-6.039 2.72-6.039 6.065z"/></g><g><rect width="21" height="3" x="26.486" y="74.857" rx="1.5"/><rect width="3" height="23" x="35.486" y="52.857" rx="1.5"/></g></g></g></svg>